<?xml version="1.0" encoding="utf-8"?>
<!-- Generator: Adobe Illustrator 25.4.1, SVG Export Plug-In . SVG Version: 6.00 Build 0)  -->
<svg version="1.1" id="Capa_1" xmlns="http://www.w3.org/2000/svg" xmlns:xlink="http://www.w3.org/1999/xlink" x="0px" y="0px"
	 viewBox="0 0 1022.7 1022.5" style="enable-background:new 0 0 1022.7 1022.5;" xml:space="preserve">
<style type="text/css">
	.st0{fill:#F3F3F3;}
	.st1{fill:#73ABDE;}
	.st2{fill:#89BAE2;}
	.st3{fill:#90BFE2;}
	.st4{fill:#803107;}
	.st5{fill:#AAC9E6;}
	.st6{fill:#F7F7F9;}
	.st7{fill:#F4F1EA;}
	.st8{fill:#F0F4F3;}
	.st9{fill:#F4B311;}
	.st10{fill:#F3B311;}
	.st11{fill:#F2B212;}
	.st12{fill:#F3B211;}
	.st13{fill:#EEAE15;}
	.st14{fill:#EFAE15;}
	.st15{fill:#EFAF13;}
	.st16{fill:#EFAF15;}
	.st17{fill:#EEAE14;}
	.st18{fill:#EDAD15;}
	.st19{fill:#EDAC14;}
	.st20{fill:#EDAD13;}
	.st21{fill:#863B11;}
	.st22{fill:#873A10;}
	.st23{fill:#EEAC13;}
	.st24{fill:#F2B114;}
	.st25{fill:#863A10;}
	.st26{fill:#883E18;}
	.st27{fill:#883C15;}
	.st28{fill:#EEAE13;}
	.st29{fill:#8E4315;}
	.st30{fill:#863812;}
	.st31{fill:#853811;}
	.st32{fill:#853711;}
	.st33{fill:#883C12;}
	.st34{fill:#EDAC15;}
	.st35{fill:#8B4015;}
	.st36{fill:#8C4319;}
	.st37{fill:#EFAD16;}
	.st38{fill:#893D14;}
	.st39{fill:#8A3E14;}
	.st40{fill:#E2A115;}
	.st41{fill:#EBAC15;}
	.st42{fill:#873E14;}
	.st43{fill:#F0B015;}
	.st44{fill:#863D12;}
	.st45{fill:#8B3F16;}
	.st46{fill:#914618;}
	.st47{fill:#873D14;}
	.st48{fill:#873D13;}
	.st49{fill:#853C15;}
	.st50{fill:#8E4722;}
	.st51{fill:#F0B113;}
	.st52{fill:#8A401B;}
	.st53{fill:#E3A216;}
	.st54{fill:#E9A911;}
	.st55{fill:#883D14;}
	.st56{fill:#894421;}
	.st57{fill:#8D3D00;}
	.st58{fill:#893F12;}
	.st59{fill:#863E13;}
	.st60{fill:#8A3D14;}
	.st61{fill:#883C13;}
	.st62{fill:#ECAC14;}
	.st63{fill:#E3A315;}
	.st64{fill:#8F451F;}
	.st65{fill:#8A4014;}
	.st66{fill:#873A11;}
	.st67{fill:#8B4517;}
	.st68{fill:#8C461E;}
	.st69{fill:#904516;}
	.st70{fill:#864115;}
	.st71{fill:#924208;}
	.st72{fill:#904412;}
	.st73{fill:#E6A318;}
	.st74{fill:#883F13;}
	.st75{fill:#9C5A3A;}
	.st76{fill:#883A10;}
	.st77{fill:#8A3F15;}
	.st78{fill:#8A4116;}
	.st79{fill:#E8A817;}
	.st80{fill:#9B5732;}
	.st81{fill:#8B4116;}
	.st82{fill:#8C441B;}
	.st83{fill:#843E13;}
	.st84{fill:#823613;}
	.st85{fill:#914C15;}
	.st86{fill:#8B3F14;}
	.st87{fill:#8A4215;}
	.st88{fill:#874113;}
	.st89{fill:#8B471D;}
	.st90{fill:#8B4318;}
	.st91{fill:#934812;}
	.st92{fill:#8C4520;}
	.st93{fill:#823E12;}
	.st94{fill:#8A4117;}
	.st95{fill:#873E1B;}
	.st96{fill:#A05605;}
	.st97{fill:#8D4319;}
	.st98{fill:#833D11;}
	.st99{fill:#8C4113;}
	.st100{fill:#914817;}
	.st101{fill:#8A4317;}
	.st102{fill:#8F4A21;}
	.st103{fill:#914918;}
	.st104{fill:#924919;}
	.st105{fill:#8C3F15;}
	.st106{fill:#8B431F;}
	.st107{fill:#8D4219;}
	.st108{fill:#8D4316;}
	.st109{fill:#904B22;}
	.st110{fill:#7F4C33;}
	.st111{fill:#995833;}
	.st112{fill:#995933;}
	.st113{fill:#873C13;}
	.st114{fill:#8B4416;}
	.st115{fill:#893F16;}
	.st116{fill:#C88011;}
	.st117{fill:#8C4215;}
	.st118{fill:#8F3E00;}
	.st119{fill:#8B411A;}
	.st120{fill:#863C13;}
	.st121{fill:#7D391C;}
	.st122{fill:#8C471B;}
	.st123{fill:#873C14;}
	.st124{fill:#8A4010;}
	.st125{fill:#8C4A26;}
	.st126{fill:#87411E;}
	.st127{fill:#90461A;}
	.st128{fill:#954D21;}
	.st129{fill:#8F4B1A;}
	.st130{fill:#924C1E;}
	.st131{fill:#8F4A1C;}
	.st132{fill:#843D1E;}
	.st133{fill:#C98111;}
	.st134{fill:#8B471A;}
	.st135{fill:#904A1C;}
	.st136{fill:#8E4B1A;}
	.st137{fill:#8D481D;}
	.st138{fill:#9A5528;}
	.st139{fill:#8A4118;}
	.st140{fill:#90471B;}
	.st141{fill:#8B431A;}
	.st142{fill:#914A1B;}
	.st143{fill:#8F491C;}
	.st144{fill:#914A1E;}
	.st145{fill:#7C3718;}
	.st146{fill:#8F451A;}
	.st147{fill:#934915;}
	.st148{fill:#8A3F18;}
	.st149{fill:#8C421B;}
	.st150{fill:#8B471B;}
	.st151{fill:#974303;}
	.st152{fill:#8D461A;}
	.st153{fill:#874112;}
	.st154{fill:#8F4517;}
	.st155{fill:#D9981C;}
	.st156{fill:#93511E;}
	.st157{fill:#803F20;}
	.st158{fill:#904D16;}
	.st159{fill:#EBA917;}
	.st160{fill:#984502;}
	.st161{fill:#863B19;}
	.st162{fill:#975020;}
	.st163{fill:#914A22;}
	.st164{fill:#8D4218;}
	.st165{fill:#8A4115;}
	.st166{fill:#904C24;}
	.st167{fill:#A7601F;}
	.st168{fill:#8D421D;}
	.st169{fill:#863B0C;}
	.st170{fill:#752703;}
	.st171{fill:#934A1B;}
	.st172{fill:#8D451B;}
	.st173{fill:#934D21;}
	.st174{fill:#863A0B;}
	.st175{fill:#974402;}
	.st176{fill:#8C4315;}
	.st177{fill:#8F481D;}
	.st178{fill:#914A1C;}
	.st179{fill:#8E4112;}
	.st180{fill:#934A12;}
	.st181{fill:#FCFBFB;}
	.st182{fill:#853F1E;}
	.st183{fill:#8B431C;}
	.st184{fill:#8D4619;}
	.st185{fill:#8D441A;}
	.st186{fill:#FBFCFA;}
	.st187{fill:#8A4012;}
	.st188{fill:#EEAD1A;}
	.st189{fill:#8F491D;}
	.st190{fill:#E8A418;}
	.st191{fill:#91481D;}
	.st192{fill:#DE9C15;}
	.st193{fill:#8E4A1E;}
	.st194{fill:#85431B;}
	.st195{fill:#975129;}
	.st196{fill:#DD9714;}
	.st197{fill:#883A18;}
	.st198{fill:#8B4010;}
	.st199{fill:#873C12;}
	.st200{fill:#EBAA19;}
	.st201{fill:#873F20;}
	.st202{fill:#985115;}
	.st203{fill:#8C4518;}
	.st204{fill:#8E4A22;}
	.st205{fill:#954C19;}
	.st206{fill:#90481D;}
	.st207{fill:#8B3F10;}
	.st208{fill:#863F1E;}
	.st209{fill:#914B1E;}
	.st210{fill:#904A1F;}
	.st211{fill:#924D1E;}
	.st212{fill:#8A4217;}
	.st213{fill:#853D12;}
	.st214{fill:#8A431B;}
	.st215{fill:#843711;}
	.st216{fill:#86340A;}
	.st217{fill:#8E4827;}
	.st218{fill:#883E17;}
	.st219{fill:#964D18;}
	.st220{fill:#904C27;}
	.st221{fill:#8E461C;}
	.st222{fill:#924F25;}
	.st223{fill:#8D4C1F;}
	.st224{fill:#7E391C;}
	.st225{fill:#97521C;}
	.st226{fill:#934D25;}
	.st227{fill:#8D441B;}
	.st228{fill:#90481C;}
	.st229{fill:#8F4A1E;}
	.st230{fill:#96521F;}
	.st231{fill:#853E18;}
	.st232{fill:#863E17;}
	.st233{fill:#803D16;}
	.st234{fill:#844321;}
	.st235{fill:#954E24;}
	.st236{fill:#C1760D;}
	.st237{fill:#853306;}
	.st238{fill:#94491B;}
	.st239{fill:#914C1C;}
	.st240{fill:#8A451C;}
	.st241{fill:#934D20;}
	.st242{fill:#8F4C25;}
	.st243{fill:#8A4925;}
	.st244{fill:#83380E;}
	.st245{fill:#8F4920;}
	.st246{fill:#9B5B39;}
	.st247{fill:#8D4724;}
	.st248{fill:#924A1E;}
	.st249{fill:#904C20;}
	.st250{fill:#873C15;}
	.st251{fill:#935023;}
	.st252{fill:#8A400C;}
	.st253{fill:#8D4624;}
	.st254{fill:#7D3414;}
	.st255{fill:#924920;}
	.st256{fill:#8F4F22;}
	.st257{fill:#8B4824;}
	.st258{fill:#883D15;}
	.st259{fill:#864120;}
	.st260{fill:#8F4B23;}
	.st261{fill:#8E4E26;}
	.st262{fill:#873D16;}
	.st263{fill:#853B12;}
	.st264{fill:#904F24;}
	.st265{fill:#E5A320;}
	.st266{fill:#904618;}
	.st267{fill:#975726;}
	.st268{fill:#89421A;}
	.st269{fill:#8A4A20;}
	.st270{fill:#904F23;}
	.st271{fill:#98582E;}
	.st272{fill:#8B491F;}
	.st273{fill:#97460B;}
	.st274{fill:#904B1C;}
	.st275{fill:#8B431D;}
	.st276{fill:#8B4B21;}
	.st277{fill:#864720;}
	.st278{fill:#945124;}
	.st279{fill:#8D481C;}
	.st280{fill:#98552B;}
	.st281{fill:#EAD7CC;}
	.st282{fill:#E8A518;}
	.st283{fill:#8A401F;}
	.st284{fill:#86360A;}
	.st285{fill:#965321;}
	.st286{fill:#864521;}
	.st287{fill:#823C1E;}
	.st288{fill:#904720;}
	.st289{fill:#8A3F16;}
	.st290{fill:#8F471B;}
	.st291{fill:#8F461E;}
	.st292{fill:#90471D;}
	.st293{fill:#8E4718;}
	.st294{fill:#83360A;}
	.st295{fill:#9A531D;}
	.st296{fill:#A75606;}
	.st297{fill:#93491B;}
	.st298{fill:#893F1D;}
	.st299{fill:#92461B;}
	.st300{fill:#8A4825;}
	.st301{fill:#884321;}
	.st302{fill:#C77C17;}
	.st303{fill:#924B20;}
	.st304{fill:#964E1C;}
	.st305{fill:#9E562D;}
	.st306{fill:#8F481E;}
	.st307{fill:#DD9419;}
	.st308{fill:#8D471B;}
	.st309{fill:#914E21;}
	.st310{fill:#954D1A;}
	.st311{fill:#985523;}
	.st312{fill:#904B1A;}
	.st313{fill:#894113;}
	.st314{fill:#9D5D22;}
	.st315{fill:#924A24;}
	.st316{fill:#844318;}
	.st317{fill:#9A541F;}
	.st318{fill:#7F2F03;}
	.st319{fill:#7E2F09;}
	.st320{fill:#905538;}
	.st321{fill:#C57818;}
	.st322{fill:#7D2F08;}
	.st323{fill:#8F471A;}
	.st324{fill:#8A4923;}
	.st325{fill:#863E11;}
	.st326{fill:#8A4005;}
	.st327{fill:#843306;}
	.st328{fill:#925026;}
	.st329{fill:#853D13;}
	.st330{fill:#975836;}
	.st331{fill:#863C1C;}
	.st332{fill:#9C5B28;}
	.st333{fill:#7B3107;}
	.st334{fill:#883D19;}
	.st335{fill:#863C1A;}
	.st336{fill:#DA9613;}
	.st337{fill:#98572A;}
	.st338{fill:#793009;}
	.st339{fill:#904219;}
	.st340{fill:#864223;}
	.st341{fill:#9B5523;}
	.st342{fill:#8E4E27;}
	.st343{fill:#884720;}
	.st344{fill:#985428;}
	.st345{fill:#793003;}
	.st346{fill:#823C0E;}
	.st347{fill:#8A3F1C;}
	.st348{fill:#924E27;}
	.st349{fill:#914F1F;}
	.st350{fill:#E6D1C7;}
	.st351{fill:#9D5924;}
	.st352{fill:#833910;}
	.st353{fill:#944F28;}
	.st354{fill:#8C451D;}
	.st355{fill:#934D1F;}
	.st356{fill:#7F2F0A;}
	.st357{fill:#803F14;}
	.st358{fill:#8F4F27;}
	.st359{fill:#87421F;}
	.st360{fill:#9B5A30;}
	.st361{fill:#792D0B;}
	.st362{fill:#894921;}
	.st363{fill:#833407;}
	.st364{fill:#965032;}
	.st365{fill:#7B3402;}
	.st366{fill:#8F4E28;}
	.st367{fill:#9A562C;}
	.st368{fill:#97562F;}
	.st369{fill:#925022;}
	.st370{fill:#8A3F1B;}
	.st371{fill:#954C23;}
	.st372{fill:#944A1E;}
	.st373{fill:#C97C18;}
	.st374{fill:#8C4318;}
	.st375{fill:#873E1C;}
	.st376{fill:#924F1F;}
	.st377{fill:#792C0A;}
	.st378{fill:#935118;}
	.st379{fill:#DBBDB2;}
	.st380{fill:#8C431E;}
	.st381{fill:#92481A;}
	.st382{fill:#7B360D;}
	.st383{fill:#843B17;}
	.st384{fill:#7B3200;}
	.st385{fill:#7A2D0D;}
	.st386{fill:#80310A;}
	.st387{fill:#874218;}
	.st388{fill:#7C330B;}
	.st389{fill:#85441B;}
	.st390{fill:#8A461D;}
	.st391{fill:#E0D5C3;}
	.st392{fill:#884120;}
	.st393{fill:#E49E1A;}
	.st394{fill:#914C1F;}
	.st395{fill:#7C482F;}
	.st396{fill:#894217;}
	.st397{fill:#752E02;}
	.st398{fill:#BE7419;}
	.st399{fill:#81350B;}
	.st400{fill:#7C3103;}
	.st401{fill:#7D2A07;}
	.st402{fill:#9A5521;}
	.st403{fill:#AF6205;}
	.st404{fill:#712600;}
	.st405{fill:#802D03;}
	.st406{fill:#985827;}
	.st407{fill:#883F1C;}
	.st408{fill:#8D4F21;}
	.st409{fill:#792204;}
	.st410{fill:#EBD6CE;}
	.st411{fill:#782306;}
	.st412{fill:#7E381B;}
	.st413{fill:#904B26;}
	.st414{fill:#8D3C17;}
	.st415{fill:#7E3300;}
	.st416{fill:#934003;}
	.st417{fill:#8A4920;}
	.st418{fill:#925427;}
	.st419{fill:#7B2F00;}
	.st420{fill:#75200B;}
	.st421{fill:#78230E;}
	.st422{fill:#802206;}
	.st423{fill:#8B431E;}
	.st424{fill:#8F5032;}
	.st425{fill:#873101;}
	.st426{fill:#89411D;}
	.st427{fill:#7F2B08;}
	.st428{fill:#9A5327;}
	.st429{fill:#812F00;}
	.st430{fill:#7A2200;}
	.st431{fill:#914B20;}
	.st432{fill:#7D2B00;}
	.st433{fill:#974C16;}
	.st434{fill:#7D3308;}
	.st435{fill:#9F531D;}
	.st436{fill:#702500;}
	.st437{fill:#8E4926;}
	.st438{fill:#954E16;}
	.st439{fill:#7D2C03;}
	.st440{fill:#833703;}
	.st441{fill:#E2CAC0;}
	.st442{fill:#7D2800;}
	.st443{fill:#752B10;}
	.st444{fill:#844122;}
	.st445{fill:#6B1F00;}
	.st446{fill:#FAF0F9;}
	.st447{fill:#89BAE3;}
	.st448{fill:#88B9E3;}
	.st449{fill:#F4B30E;}
	.st450{fill:#F4B411;}
	.st451{fill:#F3B410;}
	.st452{fill:#F5B511;}
	.st453{fill:#F4B511;}
	.st454{fill:#F3B210;}
	.st455{fill:#F2B112;}
	.st456{fill:#E6A515;}
	.st457{fill:#DA9917;}
	.st458{fill:#DD9C14;}
	.st459{fill:#EDAB16;}
	.st460{fill:#E8A715;}
	.st461{fill:#E1A213;}
	.st462{fill:#EBA915;}
	.st463{fill:#E9AA13;}
	.st464{fill:#DE9D15;}
	.st465{fill:#E19F12;}
	.st466{fill:#97480B;}
	.st467{fill:#974A09;}
	.st468{fill:#B1650D;}
	.st469{fill:#904108;}
	.st470{fill:#A5580B;}
	.st471{fill:#95450B;}
	.st472{fill:#984809;}
	.st473{fill:#A3570C;}
	.st474{fill:#A2570C;}
	.st475{fill:#EEAD19;}
	.st476{fill:#93450A;}
	.st477{fill:#974808;}
	.st478{fill:#97480A;}
	.st479{fill:#904305;}
	.st480{fill:#EBA816;}
	.st481{fill:#E29F14;}
	.st482{fill:#E5A217;}
	.st483{fill:#994E08;}
	.st484{fill:#994F08;}
	.st485{fill:#984707;}
	.st486{fill:#DB9914;}
	.st487{fill:#9A4F0A;}
	.st488{fill:#954909;}
	.st489{fill:#974C07;}
	.st490{fill:#954A08;}
	.st491{fill:#964A09;}
	.st492{fill:#E1A217;}
	.st493{fill:#964B09;}
	.st494{fill:#E3A219;}
	.st495{fill:#934705;}
	.st496{fill:#E6A616;}
	.st497{fill:#D99610;}
	.st498{fill:#8F4104;}
	.st499{fill:#AF610A;}
	.st500{fill:#732100;}
	.st501{fill:#742200;}
	.st502{fill:#AF6108;}
	.st503{fill:#711F00;}
	.st504{fill:#FEC822;}
	.st505{fill:#69A4DA;}
	.st506{fill:#C27B12;}
	.st507{fill:#A96005;}
	.st508{fill:#C07D10;}
	.st509{fill:#A65C06;}
	.st510{fill:#BD7411;}
	.st511{fill:#9D4F0D;}
	.st512{fill:#BC7710;}
	.st513{fill:#C77A10;}
	.st514{fill:#99480B;}
	.st515{fill:#BC760F;}
	.st516{fill:#BD770B;}
	.st517{fill:#D2900B;}
	.st518{fill:#E19C17;}
	.st519{fill:#D6951C;}
	.st520{fill:#CE890C;}
	.st521{fill:#BF7713;}
	.st522{fill:#AE5E0A;}
	.st523{fill:#C27B11;}
	.st524{fill:#B2640B;}
	.st525{fill:#883503;}
	.st526{fill:#C27B16;}
	.st527{fill:#E49E14;}
	.st528{fill:#8C4014;}
	.st529{fill:#EEAC19;}
	.st530{fill:#C97C12;}
	.st531{fill:#A6590C;}
	.st532{fill:#EDAC11;}
	.st533{fill:#C8820E;}
	.st534{fill:#A5540D;}
	.st535{fill:#B36C14;}
	.st536{fill:#A05209;}
	.st537{fill:#C8860D;}
	.st538{fill:#A85D0C;}
	.st539{fill:#B66E08;}
	.st540{fill:#BA6F12;}
	.st541{fill:#9D4F0B;}
	.st542{fill:#CA820E;}
	.st543{fill:#934101;}
	.st544{fill:#F4B413;}
	.st545{fill:#8E3E08;}
	.st546{fill:#904009;}
	.st547{fill:#8B3B09;}
	.st548{fill:#91410B;}
	.st549{fill:#9E5108;}
	.st550{fill:#AE620E;}
	.st551{fill:#B3680D;}
	.st552{fill:#964708;}
	.st553{fill:#A85B0B;}
	.st554{fill:#984909;}
	.st555{fill:#B06509;}
	.st556{fill:#EFB017;}
	.st557{fill:#9C4E02;}
	.st558{fill:#A3550B;}
	.st559{fill:#9C4E0A;}
	.st560{fill:#AD620A;}
	.st561{fill:#B66B0C;}
	.st562{fill:#F0B115;}
	.st563{fill:#B46911;}
	.st564{fill:#903F01;}
	.st565{fill:#B56815;}
	.st566{fill:#954606;}
	.st567{fill:#A25509;}
	.st568{fill:#B46811;}
	.st569{fill:#BA7111;}
	.st570{fill:#A6580E;}
	.st571{fill:#A25308;}
	.st572{fill:#BD7311;}
	.st573{fill:#B76D0A;}
	.st574{fill:#BA710A;}
	.st575{fill:#FABF13;}
	.st576{fill:#8B3B05;}
	.st577{fill:#893806;}
	.st578{fill:#AA5F0C;}
	.st579{fill:#AE630A;}
	.st580{fill:#AC6208;}
	.st581{fill:#B26708;}
	.st582{fill:#AF6405;}
	.st583{fill:#B1680D;}
	.st584{fill:#D08C0E;}
	.st585{fill:#AC660A;}
	.st586{fill:#C67B13;}
	.st587{fill:#DA9A10;}
	.st588{fill:#DC9B12;}
	.st589{fill:#AC650C;}
	.st590{fill:#CC8212;}
	.st591{fill:#AC640D;}
	.st592{fill:#AE650F;}
	.st593{fill:#C37C13;}
	.st594{fill:#DA9811;}
	.st595{fill:#D28E0D;}
	.st596{fill:#B1680F;}
	.st597{fill:#D18D0E;}
	.st598{fill:#B0670E;}
	.st599{fill:#B1660C;}
	.st600{fill:#C88016;}
	.st601{fill:#D9950F;}
	.st602{fill:#DD990E;}
	.st603{fill:#C78016;}
	.st604{fill:#AA5E0A;}
	.st605{fill:#BB7110;}
	.st606{fill:#E19E0E;}
	.st607{fill:#CE8715;}
	.st608{fill:#D28C13;}
	.st609{fill:#BA7210;}
	.st610{fill:#B0680D;}
	.st611{fill:#D18E0E;}
	.st612{fill:#C58011;}
	.st613{fill:#A95E0C;}
	.st614{fill:#B56B0B;}
	.st615{fill:#EFAF16;}
	.st616{fill:#F2B416;}
	.st617{fill:#0052B3;}
	.st618{fill:#EFEFEF;}
	.st619{fill:#3273C0;}
	.st620{fill:#4F87C8;}
	.st621{fill:#1861B9;}
	.st622{fill:#286CBD;}
	.st623{fill:#B6CBE6;}
	.st624{fill:#D70027;}
	.st625{fill:#EEEFEF;}
	.st626{fill:#ECEDEE;}
</style>
<g>
	<path class="st617" d="M481.4,0c2.7,0,5.3,0,8,0c2.2,1,4.5,0.3,6.8,0.5c1.7-0.2,3.6,0.5,5.2-0.5c3.3,0,6.7,0,10,0
		c1.5,1.6,1.6,3.6,1.6,5.6c0,35.1,0.2,70.1-0.1,105.2c0.3,33.8,0.1,67.7,0.1,101.5c0,10.8,0.2,21.6-0.1,32.3c0.3,34,0.1,68,0.1,102
		c0,10.3,0.2,20.6-0.1,30.8c0.3,29.8,0.1,59.6,0.1,89.4c0,12.5,0,25,0,37.5c0,2.5,0.2,5-1.3,7.2c-3,2.1-6.4,1.4-9.7,1.4
		c-71.6,0-143.1,0-214.7,0c-92.5,0-185.1,0-277.6,0c-3.3,0-6.7,0.7-9.6-1.6c0-1,0-2,0-3c1.1-2.3,0.3-4.7,0.5-7.1
		c-0.3-2.6,0.6-5.3-0.5-7.9c0-2,0-4,0-6c1.1-1.8,0.3-3.8,0.5-5.7c0.6-11.2-0.2-22.5,2.4-33.5c0.8-1.9,2.4-3.2,4-4.3
		c6.1-4.4,12.1-8.7,18.1-13.2c3.5-2.6,6.4-2.5,9.9,0.1c10.3,7.5,20.7,15.1,31,22.6c1.3,1,2.5,2.1,4.7,3.1
		c-4.8-13.8-8.7-27.1-13.1-40.3c-2.4-7.1-2.2-7.5,4-11.9c11.3-8.1,22.5-16.3,34.8-25.3c-5.6-0.1-10.1,0-14.5,0c-9.5,0-18.9,0-28.4,0
		c-7.8,0-7.9-0.1-10.3-7.2c-4.2-12.3-7.8-24.7-11.9-37c0.3-6.6,3.6-12.3,6-18.2c3.1-7.8,6.3-15.5,10.4-22.9c2.7-1.3,4.4,0.6,6.2,1.9
		c5.2,3.8,10.4,7.6,16.7,11.9c-3.9-12.7-7.6-24.2-11.2-35.8c3.2-9.1,8-17.2,13.9-24.8c7.6-5.2,15-10.8,22.6-16.4
		c-3.5-1.5-7.6,1.2-10.3-2.4c0.4-4.1,3.3-6.8,5.5-9.8c15.4-21.7,32-42.3,50.6-61.4c10.6-11,21.7-21.4,33-31.6
		c2.3-2.1,4.4-5.7,8.7-4.2c1.3,2.4,0.2,4.6-0.5,6.7c-2.8,8.4-5.6,16.7-8.3,25.1c-0.5,1.5-1.5,3-0.9,5.1c5.9-3.6,11.3-7.8,16.8-11.7
		c6.2-4.5,12.4-8.9,18.6-13.5c3.3-2.5,6.1-2.4,9.4,0.1c11.7,8.6,23.4,17.1,35.8,26.1c-2-7-4.1-13.2-6-19.5
		c-2.3-7.5-4.8-14.9-7.4-22.3c-1.5-4.3-0.5-7.3,3.1-9.9c11.2-8,22.4-16.2,33.5-24.3c0.5-0.4,1.1-0.7,1.5-1.7
		c-12,0-23.9,0.1-35.8-0.1c-1.9,0-4.9,1.1-5.3-2.6c6.4-5.7,14.1-9.5,21.4-13.6C315.8,33,376.3,12.4,440.9,3.5
		c12.7-1.7,25.4-2.7,38.2-3C479.9,0.5,480.7,0.6,481.4,0z"/>
	<path class="st618" d="M0,511.4c168.5,0,336.9,0,505.4,0c2,0,4-0.1,6-0.2c2.3-1.8,5-1.4,7.7-1.5c21.3,0,42.6,0,63.9,0
		c143.2,0,286.4,0,429.6,0c3.4,0,7-0.8,10.1,1.5c0.2,20.7-1.4,41.2-3.8,61.8c-2.6,22.7-6.9,45-12.7,67c-0.5,2.1,0.4,4.4-1.3,6.2
		c-2.1,0.7-4.3,0.6-6.4,0.6c-324.8,0-649.5,0-974.3,0c-2.2,0-4.3,0.1-6.4-0.6c-4.5-19.1-9.3-38-11.9-57.5c-2.4-17.7-5.1-35.3-5-53.2
		c0-0.7-0.6-1.5-0.9-2.2C0,526,0,518.7,0,511.4z"/>
	<path class="st618" d="M511.6,111.1c-0.1-37-0.1-74.1-0.2-111.1c7.3,0,14.6,0,22,0c1.3,1.5,3.1,1,4.7,1c20.9,0.2,41.4,3.4,62,6.8
		c27.5,4.5,54.3,11.8,80.6,20.9c31.4,10.9,61.4,25,90,41.9c20.4,12.1,40,25.2,58.4,40.3c-2.7,2.3-6,1.6-9.1,1.6c-55,0-110,0-165.1,0
		c-44.9,0-89.8,0-134.6,0C517.3,112.5,514.2,113.1,511.6,111.1z"/>
	<path class="st619" d="M0,493.4c2.1,2.4,0.5,5.3,1,8c-0.3,0.5-0.6,0.5-1,0C0,498.7,0,496.1,0,493.4z"/>
	<path class="st620" d="M496.3,0.9c-2.3-0.4-4.8,1.2-6.9-0.9c2.3,0,4.7,0,7,0c0.3,0.2,0.4,0.4,0.3,0.6
		C496.6,0.8,496.5,0.9,496.3,0.9z"/>
	<path class="st621" d="M0,501.4c0.3,0,0.6,0,1,0c-0.3,2.3,0.9,4.9-1,7C0,506.1,0,503.7,0,501.4z"/>
	<path class="st622" d="M496.3,0.9c0-0.3,0.1-0.6,0.1-0.9c1.7,0,3.3,0,5,0C500,1.6,498.1,0.8,496.3,0.9z"/>
	<path class="st623" d="M0,482.4c0.3-0.1,0.5-0.1,0.8-0.1c0.1,1.7,0.9,3.6-0.8,5.1C0,485.7,0,484.1,0,482.4z"/>
	<path class="st624" d="M17.8,646.2c0.3-1.2,1.3-1.4,2.3-1.4c1.3,0,2.7,0,4,0c324.8,0,649.7,0,974.5,0.1c2.1,0,4.7-1.3,6.3,1.3
		c-8,27.9-17.7,55.2-30.1,81.5c-8.1,17.3-17.2,34-27,50.4c-1.9,1.2-4,1.6-6.2,1.6c-1.7,0-3.3,0-5,0c-283.5,0-567.1,0-850.6,0
		c-3.8,0-7.7,0.7-11.2-1.6c-24.6-40.6-43.6-83.7-56.2-129.5C18.5,647.8,18.1,647,17.8,646.2z"/>
	<path class="st618" d="M74.9,778.1c1.7,0,3.3,0.1,5,0.1c287.7,0,575.3,0,863,0c1.7,0,3.3,0,5-0.1c-13,21.2-27.6,41.3-43.3,60.5
		c-5,6.1-10.2,12.2-15.7,17.9c-13.7,14.2-27.5,28.3-42.3,41.4c-5.8,5.1-11.9,9.9-17.8,14.9c-8.7,1.3-17.5,0.8-26.3,0.8
		c-198.9,0-397.9,0-596.8,0c-4,0-8,0.2-11.7-1.6c-11.5-8.6-22.2-18.2-32.7-28.1c-12.4-11.7-24.4-23.8-35.5-36.7
		c-18-20.8-34.5-42.7-48.8-66.2C76.2,779.9,75.6,779,74.9,778.1z"/>
	<path class="st624" d="M1022.7,511.3c-1.5,0-3,0.1-4.5,0.1c-167.5,0-334.9,0-502.4,0c-1.5,0-3-0.1-4.5-0.2c0-42.4,0-84.8,0-127.3
		c0-2,0.1-4,0.2-6c1-1.7,2.7-1.8,4.4-2c1.7-0.2,3.3-0.1,5-0.1c158.1,0,316.2,0,474.3,0c3.2,0,6.7-0.9,9.5,1.9
		c4.6,13.6,7.2,27.6,9.8,41.6C1020,449.8,1022.8,480.4,1022.7,511.3z"/>
	<path class="st618" d="M1004.7,377.8c-2.2,0-4.3,0.1-6.5,0.1c-162.2,0-324.4,0-486.7,0c-0.1-34.2-0.1-68.3-0.2-102.5
		c0-10.3,0.1-20.6,0.2-30.8c2.4-2.1,5.4-1.5,8.1-1.5c31.9,0,63.9,0,95.8,0c109.8,0,219.6,0,329.4,0c0.7,0,1.3-0.1,1.9-0.4
		c9.2,16.1,18.5,32.1,26.5,48.9c12.7,27,23.1,54.9,31.2,83.7C1004.8,376.1,1004.7,377,1004.7,377.8z"/>
	<path class="st624" d="M946.9,242.7c0,0.8,0.2,1.8-1,1.8c-1.5,0.1-3,0.1-4.5,0.1c-143.3,0-286.5,0-429.8,0
		c-0.1-33.2-0.1-66.4-0.2-99.6c0-11.3,0.1-22.6,0.2-33.9c103.8,0,207.7,0,311.5,0c2,0,4-0.1,6-0.2c25.5,19.6,48.3,42.1,69.4,66.3
		C916.3,197.7,932.1,219.9,946.9,242.7z"/>
	<path class="st624" d="M193.9,911.9c2.2-0.1,4.3-0.3,6.5-0.3c207.5,0,414.9,0,622.4,0c2,0,4.3-1.1,6,1
		c-17,12.7-34.2,25.2-52.5,36.2c-60.4,36.4-125.3,60.1-195.3,69c-143,18.1-271.7-17-386-104.9C194.5,912.7,194.2,912.3,193.9,911.9z
		"/>
	<path class="st618" d="M439.1,459.4c-12.6-9.2-25.2-18.1-37.5-27.4c-3.5-2.6-5.7-2.9-9.3-0.1c-10.8,8.3-22,16.2-33,24.1
		c-1.5,1.1-2.8,3.1-5.1,2.1c5-15.4,10-30.9,15.1-46.2c0.9-2.5-0.4-3.6-2.1-4.8c-12.1-8.8-24.2-17.6-36.3-26.4
		c-0.9-0.7-1.8-1.4-2.8-2.2c1.3-1.5,2.9-0.8,4.3-0.8c14.1-0.1,28.3-0.2,42.4,0.1c4.1,0.1,6-0.9,7.3-5.1c4.2-14,8.9-27.8,13.5-41.7
		c0.3-0.9,0.7-1.8,1.4-3.6c4.7,14.2,9.1,27.6,13.4,41c3,9.3,3,9.3,12.6,9.3c14.1,0,28.2,0,42.4,0c0.2,2-1.5,2.2-2.4,2.9
		c-11.8,8.7-23.5,17.4-35.5,25.8c-3.2,2.3-3.6,4.1-2.3,7.7c4.6,13.3,8.9,26.8,13.1,40.2C438.7,455.8,439.8,457.3,439.1,459.4z"/>
	<path class="st618" d="M213.4,326.8c5.2,15.9,10.1,30.6,14.6,45.3c1.3,4.4,3.3,5.8,7.9,5.7c15.3-0.3,30.6-0.1,45.9-0.1
		c0.3,2-1.3,2.3-2.3,2.9c-11.8,8.6-23.6,17.3-35.5,25.8c-2.9,2-3.7,3.8-2.5,7.3c4.5,13,8.6,26.2,12.8,39.3c0.5,1.7,1.6,3.3,1.1,5.2
		c-2.3,0.2-3.4-1.5-4.8-2.5c-11.5-8.3-22.9-16.5-34.3-25c-2.2-1.7-3.7-1.7-6,0c-12.9,9.6-26,19-40.2,29.2c1.9-6,3.4-10.9,4.9-15.7
		c3.3-10.3,6.5-20.6,10.1-30.7c1.3-3.6,0.4-5.2-2.5-7.3c-11.7-8.3-23.2-16.7-34.7-25.1c-1.2-0.9-2.3-1.8-4.5-3.5c4.9,0,8.6,0,12.3,0
		c11.5,0,23-0.3,34.4,0.1c5,0.2,7.2-1.2,8.7-6.1C203.2,357.1,208.2,342.7,213.4,326.8z"/>
	<path class="st618" d="M465.7,229.7c-12.6,9.2-25.2,18.4-37.9,27.4c-3.2,2.2-4.1,4-2.7,8c4.8,13.8,9.1,27.8,13.6,41.7
		c0.3,1.1,1.2,2.1,0.4,3.6c-12.7-9.2-25.4-18.3-37.9-27.6c-3.1-2.3-5.1-2.7-8.5-0.2c-12.5,9.5-25.4,18.6-39.2,28.6
		c4.7-14.5,9-27.9,13.3-41.2c3.1-9.6,3.2-9.7-5-15.6c-11.2-8.2-22.5-16.4-35.1-25.5c3.6,0,5.6,0,7.7,0c13.8,0,27.6-0.1,41.4,0.1
		c3.4,0.1,4.9-0.9,5.9-4.2c4.2-13.7,8.7-27.2,13.2-40.8c0.5-1.5,0.5-3.3,2.3-4.8c4.8,14.7,9.8,29.2,14.2,43.8c1.4,4.6,3.4,6.1,8.2,6
		c15.3-0.3,30.6-0.1,45.8-0.1C465.5,229.1,465.6,229.4,465.7,229.7z"/>
	<path class="st618" d="M255.3,310.2c-8-5.7-15.5-11.2-23-16.6c-5-3.6-10.1-7-14.8-10.9c-2.9-2.4-4.9-2.6-8-0.2
		c-11.1,8.4-22.5,16.5-33.8,24.7c-1.5,1.1-2.9,2.1-4.8,3.4c-0.1-3.6,1.4-6.3,2.3-9c3.8-12.2,7.7-24.4,11.9-36.4
		c1.3-3.6,0.8-5.5-2.4-7.8c-11.6-8.1-22.9-16.5-34.3-24.8c-1.3-0.9-2.5-2-4.8-3.7c13.4,0,25.6,0.1,37.8,0c5.1,0,11.4,2.1,15-0.9
		c3.3-2.7,3.7-8.9,5.3-13.6c3.8-11.7,7.6-23.3,11.7-36.1c1.3,3.8,2.4,6.6,3.3,9.5c4.1,12.5,8.2,24.9,12.1,37.4
		c0.9,2.8,2.1,3.9,5.2,3.8c14.5-0.2,28.9-0.1,43.4-0.1c1.6,0,3.2,0,6.2,0c-5.7,4.2-10.2,7.5-14.7,10.8c-8.5,6.2-16.9,12.4-25.5,18.4
		c-2.5,1.7-3,3.3-2,6.2c4.5,13.2,8.7,26.5,13,39.8C254.8,305.6,255.9,307.2,255.3,310.2z"/>
	<path class="st618" d="M353.9,160.9c5.2-15.9,10.1-31.3,15.3-46.7c1-2.8-0.4-3.9-2.2-5.2c-11-8-22.1-16-33.1-24
		c-2-1.4-3.9-2.9-6.9-5.1c12.7,0,24.1,0.1,35.5,0c5.9-0.1,13.4,2.4,17.4-1c3.8-3.1,4.1-10.5,5.9-16c3.6-10.8,7.1-21.7,11.1-33.8
		c5.2,16.1,10.1,30.7,14.7,45.5c1.3,4.2,3.1,5.6,7.6,5.5c15.4-0.3,30.9-0.1,47.4-0.1c-2.1,1.7-3.3,2.8-4.7,3.8
		c-11.4,8.3-22.8,16.7-34.4,24.8c-3.2,2.2-3.6,4.1-2.3,7.7c4.6,13.3,8.8,26.8,13.2,40.2c0.5,1.5,0.8,3.1,1.5,5.6
		c-13.5-9.8-26.4-18.9-38.9-28.4c-3.1-2.3-5-2.2-8,0.1c-11.3,8.5-22.8,16.7-34.3,25C357.2,159.5,356.2,161,353.9,160.9z"/>
	<path class="st618" d="M4,447.5c2.7-23.3,7.4-46.2,13.4-68.8c3.8-14.4,8-28.6,13.5-42.5c0.2-0.6,0.7-1.1,1.1-1.6
		c4.3,12.9,8.7,25.7,12.8,38.7c1.1,3.3,2.4,4.6,6.2,4.6c15.7-0.2,31.5-0.1,47.7,0.8c-1.4,1-2.7,2.1-4.1,3.1
		c-11.2,8.1-22.3,16.3-33.6,24.3c-3.3,2.3-4.4,4.2-2.9,8.4c5.2,14.7,9.8,29.6,15,45.6c-4.2-3-7.5-5.3-10.7-7.6
		c-9.7-7-19.5-13.9-29-21.2c-2.9-2.2-4.6-1.9-7.3,0.1C18.9,436.9,11.4,442.1,4,447.5z"/>
	<path class="st618" d="M182.8,120.9c4.2-6.2,10.5-10,16.2-14.4c12.5-9.8,25.7-18.6,38.9-27.5c1.4,1.8,3.4,0.8,5.1,0.8
		c13,0.1,25.9,0.1,38.9,0.1c0.1,1.9-1.5,2.2-2.4,2.9c-11.8,8.6-23.6,17.3-35.5,25.8c-2.9,2-3.7,3.8-2.5,7.3
		c4.5,13,8.6,26.2,12.8,39.3c0.6,2,1.9,4,1.2,6.4c-13-9.5-26.1-18.8-38.9-28.4c-2.4-1.8-4-1.7-6.4,0c-11.3,8.4-22.8,16.7-34.2,25
		c-1.4,1-2.9,2-5.3,2.5c1.8-5.7,3.8-11.5,5.5-17.3C178.3,135.8,181.8,128.7,182.8,120.9z"/>
	<path class="st625" d="M48.1,294c4.2-7.3,7.2-15.4,11.9-22.4c4.2,12.4,8.4,24.9,12.6,37.3c-0.4,0.3-0.8,0.6-1.2,0.8
		c-5.8-4.2-11.6-8.4-17.4-12.5C52.1,296,50.7,293.9,48.1,294z"/>
	<path class="st626" d="M73.9,247.5c3-7.1,8-13.1,11.7-19.8c4,2.4,8.6,0,13.7,1.7C90.5,235.8,82.2,241.7,73.9,247.5z"/>
</g>
</svg>
