<?xml version="1.0" encoding="utf-8"?>
<!-- Generator: Adobe Illustrator 18.0.0, SVG Export Plug-In . SVG Version: 6.00 Build 0)  -->
<!DOCTYPE svg PUBLIC "-//W3C//DTD SVG 1.1//EN" "http://www.w3.org/Graphics/SVG/1.1/DTD/svg11.dtd">
<svg version="1.1" id="Capa_1" xmlns="http://www.w3.org/2000/svg" xmlns:xlink="http://www.w3.org/1999/xlink" x="0px" y="0px"
	 viewBox="0 0 1916.8 1493.1" enable-background="new 0 0 1916.8 1493.1" xml:space="preserve">
<g>
	<g>
		<defs>
			<rect id="SVGID_1_" x="0" y="729.2" width="965.3" height="763.9"/>
		</defs>
		<clipPath id="SVGID_2_">
			<use xlink:href="#SVGID_1_"  overflow="visible"/>
		</clipPath>
		
			<linearGradient id="SVGID_3_" gradientUnits="userSpaceOnUse" x1="-5491.1318" y1="2911.9753" x2="-5576.8179" y2="3231.7595" gradientTransform="matrix(0 -1 -1 0 3205.2678 -4113.4824)">
			<stop  offset="0" style="stop-color:#9C2D8D"/>
			<stop  offset="1" style="stop-color:#311C74;stop-opacity:0.1"/>
		</linearGradient>
		<path opacity="0.31" clip-path="url(#SVGID_2_)" fill="url(#SVGID_3_)" d="M150.9,1293.8L6.7,1438c-30.2,30.2-30.2,79,0,109.2l0,0
			c30.2,30.2,79,30.2,109.2,0L260.1,1403c30.2-30.2,30.2-79,0-109.2l0,0C229.9,1263.6,181.1,1263.6,150.9,1293.8z"/>
		
			<linearGradient id="SVGID_4_" gradientUnits="userSpaceOnUse" x1="-5201.6318" y1="2610.4753" x2="-5287.3179" y2="2930.2595" gradientTransform="matrix(0 -1 -1 0 3205.2678 -4113.4824)">
			<stop  offset="0" style="stop-color:#9C2D8D"/>
			<stop  offset="1" style="stop-color:#311C74;stop-opacity:0.1"/>
		</linearGradient>
		<path opacity="0.13" clip-path="url(#SVGID_2_)" fill="url(#SVGID_4_)" d="M452.4,1004.3l-144.2,144.2c-30.2,30.2-30.2,79,0,109.2
			l0,0c30.2,30.2,79,30.2,109.2,0l144.2-144.2c30.2-30.2,30.2-79,0-109.2l0,0C531.4,974.1,482.6,974.1,452.4,1004.3z"/>
		
			<linearGradient id="SVGID_5_" gradientUnits="userSpaceOnUse" x1="-4985.6318" y1="2927.7253" x2="-5071.3179" y2="3247.5095" gradientTransform="matrix(0 -1 -1 0 3205.2678 -4113.4824)">
			<stop  offset="0" style="stop-color:#9C2D8D"/>
			<stop  offset="1" style="stop-color:#311C74;stop-opacity:0.1"/>
		</linearGradient>
		<path opacity="6.000000e-002" clip-path="url(#SVGID_2_)" fill="url(#SVGID_5_)" d="M135.2,788.3L-9,932.5
			c-30.2,30.2-30.2,79,0,109.2l0,0c30.2,30.2,79,30.2,109.2,0l144.2-144.2c30.2-30.2,30.2-79,0-109.2l0,0
			C214.2,758.1,165.3,758.1,135.2,788.3z"/>
		
			<linearGradient id="SVGID_6_" gradientUnits="userSpaceOnUse" x1="-5620.1318" y1="2492.7253" x2="-5705.8179" y2="2812.5095" gradientTransform="matrix(0 -1 -1 0 3205.2678 -4113.4824)">
			<stop  offset="0" style="stop-color:#9C2D8D"/>
			<stop  offset="1" style="stop-color:#311C74;stop-opacity:0.1"/>
		</linearGradient>
		<path opacity="6.000000e-002" clip-path="url(#SVGID_2_)" fill="url(#SVGID_6_)" d="M570.2,1422.8L426,1567
			c-30.2,30.2-30.2,79,0,109.2l0,0c30.2,30.2,79,30.2,109.2,0L679.3,1532c30.2-30.2,30.2-79,0-109.2l0,0
			C649.2,1392.6,600.3,1392.6,570.2,1422.8z"/>
		
			<linearGradient id="SVGID_7_" gradientUnits="userSpaceOnUse" x1="-5501.6318" y1="2658.4753" x2="-5587.3179" y2="2978.2595" gradientTransform="matrix(0 -1 -1 0 3205.2678 -4113.4824)">
			<stop  offset="0" style="stop-color:#9C2D8D"/>
			<stop  offset="1" style="stop-color:#311C74;stop-opacity:0.1"/>
		</linearGradient>
		<path opacity="0.21" clip-path="url(#SVGID_2_)" fill="url(#SVGID_7_)" d="M404.4,1304.3l-144.2,144.2c-30.2,30.2-30.2,79,0,109.2
			l0,0c30.2,30.2,79,30.2,109.2,0l144.2-144.2c30.2-30.2,30.2-79,0-109.2l0,0C483.4,1274.1,434.6,1274.1,404.4,1304.3z"/>
		
			<linearGradient id="SVGID_8_" gradientUnits="userSpaceOnUse" x1="-5224.1318" y1="2901.4753" x2="-5309.8179" y2="3221.2595" gradientTransform="matrix(0 -1 -1 0 3205.2678 -4113.4824)">
			<stop  offset="0" style="stop-color:#9C2D8D"/>
			<stop  offset="1" style="stop-color:#311C74;stop-opacity:0.1"/>
		</linearGradient>
		<path opacity="0.21" clip-path="url(#SVGID_2_)" fill="url(#SVGID_8_)" d="M161.4,1026.8L17.2,1171c-30.2,30.2-30.2,79,0,109.2
			l0,0c30.2,30.2,79,30.2,109.2,0L270.6,1136c30.2-30.2,30.2-79,0-109.2l0,0C240.4,996.6,191.6,996.6,161.4,1026.8z"/>
	</g>
	<g>
		<defs>
			<rect id="SVGID_9_" x="1203.5" y="0" width="713.2" height="894.8"/>
		</defs>
		<clipPath id="SVGID_10_">
			<use xlink:href="#SVGID_9_"  overflow="visible"/>
		</clipPath>
		<linearGradient id="SVGID_11_" gradientUnits="userSpaceOnUse" x1="1479.4167" y1="630.3564" x2="2002.4495" y2="107.3236">
			<stop  offset="0" style="stop-color:#DF6363;stop-opacity:0.2"/>
			<stop  offset="2.094996e-002" style="stop-color:#D35E64;stop-opacity:0.2"/>
			<stop  offset="0.1168" style="stop-color:#A34B67;stop-opacity:0.2"/>
			<stop  offset="0.2181" style="stop-color:#78396A;stop-opacity:0.2"/>
			<stop  offset="0.323" style="stop-color:#542B6C;stop-opacity:0.2"/>
			<stop  offset="0.4325" style="stop-color:#361F6E;stop-opacity:0.2"/>
			<stop  offset="0.5482" style="stop-color:#201670;stop-opacity:0.2"/>
			<stop  offset="0.6728" style="stop-color:#100F71;stop-opacity:0.2"/>
			<stop  offset="0.8128" style="stop-color:#060B72;stop-opacity:0.2"/>
			<stop  offset="1" style="stop-color:#030A72;stop-opacity:0.2"/>
		</linearGradient>
		<circle clip-path="url(#SVGID_10_)" fill="url(#SVGID_11_)" cx="1740.9" cy="368.8" r="369.8"/>
	</g>
</g>
</svg>
