<?xml version="1.0" encoding="utf-8"?>
<!-- Generator: Adobe Illustrator 25.4.1, SVG Export Plug-In . SVG Version: 6.00 Build 0)  -->
<svg version="1.1" id="Capa_1" xmlns="http://www.w3.org/2000/svg" xmlns:xlink="http://www.w3.org/1999/xlink" x="0px" y="0px"
	 viewBox="0 0 1917.2 1509.4" style="enable-background:new 0 0 1917.2 1509.4;" xml:space="preserve">
<style type="text/css">
	.st0{fill:url(#SVGID_1_);}
	
		.st1{opacity:0.31;clip-path:url(#SVGID_00000183934936449875030000000018381007537202323619_);fill:url(#SVGID_00000160874638281078958840000007115650295137561521_);enable-background:new    ;}
	
		.st2{opacity:0.13;clip-path:url(#SVGID_00000111912636244337391090000017084286684019419811_);fill:url(#SVGID_00000041296003478387524130000006258521917738305950_);enable-background:new    ;}
	
		.st3{opacity:6.000000e-02;clip-path:url(#SVGID_00000044868749902003091340000005041877068923591356_);fill:url(#SVGID_00000039837717246348668770000015358540674211425446_);enable-background:new    ;}
	
		.st4{opacity:6.000000e-02;clip-path:url(#SVGID_00000101824669829970662000000001151973443717708457_);fill:url(#SVGID_00000054971531242901225330000014944305232309631140_);enable-background:new    ;}
	
		.st5{opacity:0.21;clip-path:url(#SVGID_00000047744305931425565280000012697651794592264856_);fill:url(#SVGID_00000041286910387577807710000009176548330643184552_);enable-background:new    ;}
	
		.st6{opacity:0.21;clip-path:url(#SVGID_00000041993864724465170050000000323234153845250199_);fill:url(#SVGID_00000021082013506733932890000016344480543954608777_);enable-background:new    ;}
	.st7{fill:url(#SVGID_00000001628146852199172190000016858646712239642250_);stroke:#AF9AC2;stroke-miterlimit:10;}
	.st8{fill:url(#SVGID_00000062189817166720885280000018347244778458530688_);}
</style>
<radialGradient id="SVGID_1_" cx="2247.2063" cy="711.8535" r="851.1881" gradientTransform="matrix(1.9971 0 0 -1.0353 -2570.6956 1495.9819)" gradientUnits="userSpaceOnUse">
	<stop  offset="0" style="stop-color:#111D9D"/>
	<stop  offset="0.8547" style="stop-color:#111D9D;stop-opacity:0"/>
</radialGradient>
<rect y="7.1" class="st0" width="3834.4" height="1503.8"/>
<g>
	<g>
		<defs>
			<rect id="SVGID_00000069380925178268397040000016801223802444658367_" x="0.4" y="747" width="965.3" height="763.9"/>
		</defs>
		<clipPath id="SVGID_00000102521717621859611690000014911484590623127430_">
			<use xlink:href="#SVGID_00000069380925178268397040000016801223802444658367_"  style="overflow:visible;"/>
		</clipPath>
		
			<linearGradient id="SVGID_00000046326082354955904940000011460290477115816082_" gradientUnits="userSpaceOnUse" x1="-1921.7716" y1="-4990.8447" x2="-2007.4713" y2="-5310.6812" gradientTransform="matrix(0 -1 1 0 5284.5718 -526.2878)">
			<stop  offset="0" style="stop-color:#9C2D8D"/>
			<stop  offset="1" style="stop-color:#311C74;stop-opacity:0.1"/>
		</linearGradient>
		
			<path style="opacity:0.31;clip-path:url(#SVGID_00000102521717621859611690000014911484590623127430_);fill:url(#SVGID_00000046326082354955904940000011460290477115816082_);enable-background:new    ;" d="
			M151.3,1311.6L7.1,1455.8c-30.2,30.2-30.2,79,0,109.2l0,0c30.2,30.2,79,30.2,109.2,0l144.2-144.2c30.2-30.2,30.2-79,0-109.2l0,0
			C230.4,1281.5,181.5,1281.5,151.3,1311.6z"/>
	</g>
	<g>
		<defs>
			<rect id="SVGID_00000016771856871778116120000015331954625252636291_" x="0.4" y="747" width="965.3" height="763.9"/>
		</defs>
		<clipPath id="SVGID_00000019680113130926888200000008440701829409243060_">
			<use xlink:href="#SVGID_00000016771856871778116120000015331954625252636291_"  style="overflow:visible;"/>
		</clipPath>
		
			<linearGradient id="SVGID_00000093863036656790579400000004756158620578351286_" gradientUnits="userSpaceOnUse" x1="-1632.2716" y1="-4689.3447" x2="-1717.9712" y2="-5009.1812" gradientTransform="matrix(0 -1 1 0 5284.5718 -526.2878)">
			<stop  offset="0" style="stop-color:#9C2D8D"/>
			<stop  offset="1" style="stop-color:#311C74;stop-opacity:0.1"/>
		</linearGradient>
		
			<path style="opacity:0.13;clip-path:url(#SVGID_00000019680113130926888200000008440701829409243060_);fill:url(#SVGID_00000093863036656790579400000004756158620578351286_);enable-background:new    ;" d="
			M452.8,1022.1l-144.2,144.2c-30.2,30.2-30.2,79,0,109.2l0,0c30.2,30.2,79,30.2,109.2,0L562,1131.3c30.2-30.2,30.2-79,0-109.2l0,0
			C531.9,992,483,992,452.8,1022.1z"/>
	</g>
	<g>
		<defs>
			<rect id="SVGID_00000175316079117194880710000017064578952297885834_" x="0.4" y="747" width="965.3" height="763.9"/>
		</defs>
		<clipPath id="SVGID_00000106826939610104620600000004526008599603235970_">
			<use xlink:href="#SVGID_00000175316079117194880710000017064578952297885834_"  style="overflow:visible;"/>
		</clipPath>
		
			<linearGradient id="SVGID_00000131337628929283218690000012433980182839874972_" gradientUnits="userSpaceOnUse" x1="-1416.2633" y1="-5006.5469" x2="-1501.963" y2="-5326.3833" gradientTransform="matrix(0 -1 1 0 5284.5718 -526.2878)">
			<stop  offset="0" style="stop-color:#9C2D8D"/>
			<stop  offset="1" style="stop-color:#311C74;stop-opacity:0.1"/>
		</linearGradient>
		
			<path style="opacity:6.000000e-02;clip-path:url(#SVGID_00000106826939610104620600000004526008599603235970_);fill:url(#SVGID_00000131337628929283218690000012433980182839874972_);enable-background:new    ;" d="
			M135.6,806.1L-8.6,950.3c-30.2,30.2-30.2,79,0,109.2l0,0c30.2,30.2,79,30.2,109.2,0l144.2-144.2c30.2-30.2,30.2-79,0-109.2l0,0
			C214.6,776,165.7,776,135.6,806.1z"/>
	</g>
	<g>
		<defs>
			<rect id="SVGID_00000067956153703599023690000001890632186387504015_" x="0.4" y="747" width="965.3" height="763.9"/>
		</defs>
		<clipPath id="SVGID_00000160191626880064619140000013407264592959354794_">
			<use xlink:href="#SVGID_00000067956153703599023690000001890632186387504015_"  style="overflow:visible;"/>
		</clipPath>
		
			<linearGradient id="SVGID_00000013887410371892000890000004291697236872713143_" gradientUnits="userSpaceOnUse" x1="-2050.7632" y1="-4571.5469" x2="-2136.4629" y2="-4891.3833" gradientTransform="matrix(0 -1 1 0 5284.5718 -526.2878)">
			<stop  offset="0" style="stop-color:#9C2D8D"/>
			<stop  offset="1" style="stop-color:#311C74;stop-opacity:0.1"/>
		</linearGradient>
		
			<path style="opacity:6.000000e-02;clip-path:url(#SVGID_00000160191626880064619140000013407264592959354794_);fill:url(#SVGID_00000013887410371892000890000004291697236872713143_);enable-background:new    ;" d="
			M570.6,1440.6l-144.2,144.2c-30.2,30.2-30.2,79,0,109.2l0,0c30.2,30.2,79,30.2,109.2,0l144.2-144.2c30.2-30.2,30.2-79,0-109.2l0,0
			C649.6,1410.5,600.7,1410.5,570.6,1440.6z"/>
	</g>
	<g>
		<defs>
			<rect id="SVGID_00000156552984659952815730000012226173546286887049_" x="0.4" y="747" width="965.3" height="763.9"/>
		</defs>
		<clipPath id="SVGID_00000164487576233698773550000005340736070011605420_">
			<use xlink:href="#SVGID_00000156552984659952815730000012226173546286887049_"  style="overflow:visible;"/>
		</clipPath>
		
			<linearGradient id="SVGID_00000048468978004129740470000008765467461145241493_" gradientUnits="userSpaceOnUse" x1="-1932.2716" y1="-4737.3447" x2="-2017.9712" y2="-5057.1812" gradientTransform="matrix(0 -1 1 0 5284.5718 -526.2878)">
			<stop  offset="0" style="stop-color:#9C2D8D"/>
			<stop  offset="1" style="stop-color:#311C74;stop-opacity:0.1"/>
		</linearGradient>
		
			<path style="opacity:0.21;clip-path:url(#SVGID_00000164487576233698773550000005340736070011605420_);fill:url(#SVGID_00000048468978004129740470000008765467461145241493_);enable-background:new    ;" d="
			M404.8,1322.1l-144.2,144.2c-30.2,30.2-30.2,79,0,109.2l0,0c30.2,30.2,79,30.2,109.2,0L514,1431.3c30.2-30.2,30.2-79,0-109.2l0,0
			C483.9,1292,435,1292,404.8,1322.1z"/>
	</g>
	<g>
		<defs>
			<rect id="SVGID_00000137126241935573800370000000351580483581305767_" x="0.4" y="747" width="965.3" height="763.9"/>
		</defs>
		<clipPath id="SVGID_00000029012680640753360560000015741524192385073033_">
			<use xlink:href="#SVGID_00000137126241935573800370000000351580483581305767_"  style="overflow:visible;"/>
		</clipPath>
		
			<linearGradient id="SVGID_00000143604892805817083810000013810757357795153293_" gradientUnits="userSpaceOnUse" x1="-1654.7716" y1="-4980.3447" x2="-1740.4713" y2="-5300.1812" gradientTransform="matrix(0 -1 1 0 5284.5718 -526.2878)">
			<stop  offset="0" style="stop-color:#9C2D8D"/>
			<stop  offset="1" style="stop-color:#311C74;stop-opacity:0.1"/>
		</linearGradient>
		
			<path style="opacity:0.21;clip-path:url(#SVGID_00000029012680640753360560000015741524192385073033_);fill:url(#SVGID_00000143604892805817083810000013810757357795153293_);enable-background:new    ;" d="
			M161.8,1044.6L17.6,1188.8c-30.2,30.2-30.2,79,0,109.2l0,0c30.2,30.2,79,30.2,109.2,0L271,1153.8c30.2-30.2,30.2-79,0-109.2l0,0
			C240.9,1014.5,192,1014.5,161.8,1044.6z"/>
	</g>
</g>
<linearGradient id="SVGID_00000122685460778436769880000004221541889515333289_" gradientUnits="userSpaceOnUse" x1="1476.912" y1="856.702" x2="1999.8881" y2="1379.678" gradientTransform="matrix(1 0 0 -1 0 1507.89)">
	<stop  offset="0" style="stop-color:#380576"/>
	<stop  offset="0.5943" style="stop-color:#230E6D"/>
	<stop  offset="1" style="stop-color:#1B126A"/>
</linearGradient>
<circle style="fill:url(#SVGID_00000122685460778436769880000004221541889515333289_);stroke:#AF9AC2;stroke-miterlimit:10;" cx="1738.4" cy="389.7" r="369.8"/>
<radialGradient id="SVGID_00000006686008241923600930000005376879549626129049_" cx="1287.4146" cy="631.0862" r="851.1705" gradientTransform="matrix(1.9971 0 0 -1.3878 -2570.6956 1964.8032)" gradientUnits="userSpaceOnUse">
	<stop  offset="0" style="stop-color:#2F1B74"/>
	<stop  offset="0.838" style="stop-color:#2F1B74;stop-opacity:0"/>
</radialGradient>
<rect x="-1916.8" y="81.2" style="fill:url(#SVGID_00000006686008241923600930000005376879549626129049_);" width="3834.4" height="2015.7"/>
</svg>
