<?xml version="1.0" encoding="utf-8"?>
<!-- Generator: Adobe Illustrator 25.4.1, SVG Export Plug-In . SVG Version: 6.00 Build 0)  -->
<svg version="1.1" id="Capa_1" xmlns="http://www.w3.org/2000/svg" xmlns:xlink="http://www.w3.org/1999/xlink" x="0px" y="0px"
	 viewBox="0 0 106.9 28" style="enable-background:new 0 0 106.9 28;" xml:space="preserve">
<style type="text/css">
	.st0{opacity:0.33;fill:url(#SVGID_1_);enable-background:new    ;}
	.st1{fill:none;stroke:url(#SVGID_00000012441865346080452170000008697594492245309363_);stroke-width:0.5;stroke-miterlimit:10;}
	.st2{opacity:8.000000e-02;fill:url(#SVGID_00000180345255414164050160000007461313466311993225_);enable-background:new    ;}
	.st3{fill:none;}
	.st4{enable-background:new    ;}
	.st5{fill:#FFFFFF;}
</style>
<linearGradient id="SVGID_1_" gradientUnits="userSpaceOnUse" x1="0.3" y1="828.3" x2="106.7" y2="828.3" gradientTransform="matrix(1 0 0 1 0 -814)">
	<stop  offset="0" style="stop-color:#FFFFFF"/>
	<stop  offset="1" style="stop-color:#FFFFFF;stop-opacity:0.5"/>
</linearGradient>
<path class="st0" d="M92.6,28.3H14.3c-7.7,0-14-6.3-14-14l0,0c0-7.7,6.3-14,14-14h78.4c7.7,0,14,6.3,14,14l0,0
	C106.6,22.1,100.3,28.3,92.6,28.3z"/>
<linearGradient id="SVGID_00000145768362205939581130000017905520869707984010_" gradientUnits="userSpaceOnUse" x1="5.000019e-02" y1="828.05" x2="106.85" y2="828.05" gradientTransform="matrix(1 0 0 1 0 -814)">
	<stop  offset="0" style="stop-color:#ACC90F"/>
	<stop  offset="1" style="stop-color:#E6E120;stop-opacity:0.2"/>
</linearGradient>
<path style="fill:none;stroke:url(#SVGID_00000145768362205939581130000017905520869707984010_);stroke-width:0.5;stroke-miterlimit:10;" d="
	M93.2,27.8H14c-7.6,0-13.7-6.1-13.7-13.7l0,0c0-7.6,6.2-13.8,13.8-13.8H93c7.5,0,13.6,6.1,13.6,13.6v0.5
	C106.6,21.8,100.6,27.8,93.2,27.8z"/>
<linearGradient id="SVGID_00000151506939740748148560000012811286771626854304_" gradientUnits="userSpaceOnUse" x1="106.6" y1="820.85" x2="15.7" y2="820.85" gradientTransform="matrix(1 0 0 1 0 -814)">
	<stop  offset="0" style="stop-color:#FFFFFF"/>
	<stop  offset="1" style="stop-color:#FFFFFF;stop-opacity:0"/>
</linearGradient>
<path style="opacity:8.000000e-02;fill:url(#SVGID_00000151506939740748148560000012811286771626854304_);enable-background:new    ;" d="
	M15.7,0.3h77.8c7.2,0,13.1,5.8,13.1,13.1l0,0L15.7,0.3z"/>
<rect x="4" y="9.7" class="st3" width="98.8" height="8.1"/>
<g class="st4">
	<path class="st5" d="M20.6,10.3h1.6h0.8c1,0,1.8,0.2,2.3,0.6s0.8,1,0.8,1.7s-0.2,1.3-0.8,1.7S24.1,15,23.1,15h-0.8v2.7h-1.6V10.3z
		 M22.3,11.7v1.8h0.8c0.5,0,0.9-0.1,1.2-0.2c0.3-0.1,0.4-0.4,0.4-0.7c0-0.3-0.1-0.6-0.4-0.7c-0.3-0.1-0.6-0.2-1.2-0.2H22.3z"/>
	<path class="st5" d="M26.7,11.8h1.5V15c0,0.9,0.3,1.4,1,1.4c0.3,0,0.6-0.1,0.9-0.2c0.2-0.1,0.4-0.3,0.5-0.6v-3.8h1.5v5.8h-1.5v-0.8
		c-0.2,0.3-0.5,0.5-0.9,0.7s-0.7,0.2-1,0.2c-0.5,0-1-0.2-1.4-0.6c-0.4-0.4-0.6-0.9-0.6-1.5v0V11.8z"/>
	<path class="st5" d="M33,9.7h1.5v2.6c0.4-0.4,1-0.6,1.7-0.6c0.8,0,1.5,0.3,2,0.8s0.8,1.3,0.8,2.2s-0.3,1.6-0.8,2.2
		c-0.5,0.6-1.2,0.9-2,0.9c-0.7,0-1.3-0.2-1.7-0.6v0.5H33V9.7z M37.1,13.5c-0.3-0.3-0.6-0.5-1.1-0.5s-0.8,0.2-1.1,0.5
		c-0.3,0.3-0.4,0.7-0.4,1.2s0.1,0.9,0.4,1.2c0.3,0.3,0.6,0.5,1.1,0.5s0.8-0.2,1.1-0.5c0.3-0.3,0.4-0.7,0.4-1.2S37.4,13.9,37.1,13.5z
		"/>
	<path class="st5" d="M39.6,9.7h1.5v7.9h-1.5V9.7z"/>
	<path class="st5" d="M42.2,9.9c0.2-0.1,0.4-0.2,0.6-0.2c0.2,0,0.4,0.1,0.6,0.2c0.2,0.1,0.2,0.3,0.2,0.6s-0.1,0.5-0.2,0.6
		c-0.2,0.1-0.4,0.2-0.6,0.2c-0.2,0-0.4-0.1-0.6-0.2S42,10.8,42,10.5S42,10.1,42.2,9.9z M42,11.8h1.5v5.8H42V11.8z"/>
	<path class="st5" d="M48.5,15.7l1.3,0.7c-0.3,0.4-0.6,0.8-1.1,1c-0.4,0.3-0.9,0.4-1.5,0.4c-0.9,0-1.6-0.3-2.1-0.9
		c-0.6-0.6-0.9-1.3-0.9-2.2s0.3-1.6,0.9-2.2c0.6-0.6,1.3-0.9,2.1-0.9c0.5,0,1,0.1,1.5,0.4c0.4,0.2,0.8,0.6,1.1,1l-1.3,0.7
		c-0.3-0.5-0.7-0.7-1.3-0.7c-0.4,0-0.8,0.2-1.1,0.5c-0.3,0.3-0.4,0.7-0.4,1.2s0.1,0.9,0.4,1.2c0.3,0.3,0.7,0.5,1.1,0.5
		C47.8,16.4,48.2,16.2,48.5,15.7z"/>
	<path class="st5" d="M59.4,15.5c0,0.8-0.3,1.4-0.8,1.7c-0.5,0.4-1.3,0.6-2.2,0.6c-0.3,0-0.7,0-1-0.1c-0.3-0.1-0.6-0.1-0.8-0.2
		s-0.4-0.2-0.6-0.2c-0.2-0.1-0.3-0.2-0.4-0.2L53.4,17l0.8-1.3c0.1,0.1,0.2,0.1,0.3,0.2c0.1,0.1,0.4,0.2,0.8,0.3
		c0.4,0.1,0.8,0.2,1.1,0.2c0.8,0,1.2-0.3,1.2-0.9c0-0.2-0.1-0.4-0.4-0.6c-0.3-0.2-0.6-0.3-1-0.4c-0.4-0.1-0.8-0.2-1.2-0.4
		c-0.4-0.1-0.7-0.3-1-0.6c-0.3-0.3-0.4-0.6-0.4-1.1c0-0.7,0.3-1.3,0.8-1.7c0.6-0.4,1.2-0.6,2-0.6c0.3,0,0.7,0,1,0.1s0.6,0.1,0.8,0.2
		s0.4,0.2,0.6,0.3c0.2,0.1,0.3,0.2,0.4,0.2l0.1,0.1l-0.8,1.2c-0.1-0.1-0.2-0.1-0.3-0.2s-0.4-0.2-0.8-0.3c-0.4-0.1-0.8-0.2-1.1-0.2
		c-0.4,0-0.6,0.1-0.8,0.3s-0.2,0.4-0.2,0.6c0,0.1,0.1,0.3,0.3,0.4s0.5,0.2,0.8,0.3c0.3,0.1,0.6,0.2,1,0.3c0.4,0.1,0.7,0.3,1,0.4
		s0.6,0.4,0.8,0.7S59.4,15.1,59.4,15.5z"/>
	<path class="st5" d="M62.8,11.7c0.8,0,1.4,0.3,1.9,0.8s0.8,1.3,0.8,2.2c0,0.2,0,0.4,0,0.5h-4.2c0.1,0.4,0.2,0.7,0.5,0.9
		c0.3,0.2,0.6,0.3,1,0.3c0.6,0,1-0.2,1.3-0.7l1.3,0.7c-0.3,0.4-0.6,0.8-1.1,1c-0.4,0.3-0.9,0.4-1.5,0.4c-0.9,0-1.6-0.3-2.1-0.9
		c-0.6-0.6-0.9-1.3-0.9-2.2s0.3-1.6,0.9-2.2S62,11.7,62.8,11.7z M62.8,13.1c-0.3,0-0.6,0.1-0.8,0.2c-0.2,0.2-0.4,0.4-0.5,0.7H64
		c0-0.2-0.1-0.4-0.3-0.6S63.2,13.1,62.8,13.1z"/>
	<path class="st5" d="M70.3,15.7l1.3,0.7c-0.3,0.4-0.6,0.8-1.1,1c-0.4,0.3-0.9,0.4-1.5,0.4c-0.9,0-1.6-0.3-2.1-0.9
		c-0.6-0.6-0.9-1.3-0.9-2.2s0.3-1.6,0.9-2.2c0.6-0.6,1.3-0.9,2.1-0.9c0.5,0,1,0.1,1.5,0.4c0.4,0.2,0.8,0.6,1.1,1l-1.3,0.7
		c-0.3-0.5-0.7-0.7-1.3-0.7c-0.4,0-0.8,0.2-1.1,0.5c-0.3,0.3-0.4,0.7-0.4,1.2s0.1,0.9,0.4,1.2c0.3,0.3,0.7,0.5,1.1,0.5
		C69.6,16.4,70,16.2,70.3,15.7z"/>
	<path class="st5" d="M72.8,10.2h1.5v1.6h1.5v1.4h-1.5v1.5v0v0.5c0,0.2,0,0.3,0,0.4c0,0.1,0,0.2,0.1,0.4c0,0.1,0.1,0.2,0.2,0.3
		c0.1,0.1,0.2,0.1,0.3,0.1c0.2,0,0.3,0,0.5-0.1c0.1-0.1,0.3-0.1,0.3-0.2l0.1-0.1l0.5,1.1c0,0-0.1,0.1-0.2,0.2
		c-0.1,0.1-0.2,0.1-0.5,0.3c-0.3,0.1-0.5,0.2-0.8,0.2c-0.4,0-0.7-0.1-0.9-0.2c-0.3-0.1-0.5-0.3-0.6-0.4s-0.2-0.4-0.3-0.7
		c-0.1-0.3-0.1-0.6-0.1-0.8c0-0.2,0-0.6,0-0.9v-1.5h-1v-1.4h1V10.2z"/>
	<path class="st5" d="M77,12.6c0.6-0.6,1.3-0.9,2.1-0.9c0.9,0,1.6,0.3,2.1,0.9s0.9,1.3,0.9,2.2s-0.3,1.6-0.9,2.2s-1.3,0.9-2.1,0.9
		c-0.9,0-1.6-0.3-2.1-0.9c-0.6-0.6-0.9-1.3-0.9-2.2S76.5,13.1,77,12.6z M80.3,13.5c-0.3-0.3-0.6-0.5-1.1-0.5c-0.4,0-0.8,0.2-1.1,0.5
		c-0.3,0.3-0.4,0.7-0.4,1.2s0.1,0.9,0.4,1.2c0.3,0.3,0.7,0.5,1.1,0.5c0.4,0,0.8-0.2,1.1-0.5c0.3-0.3,0.4-0.7,0.4-1.2
		S80.5,13.9,80.3,13.5z"/>
	<path class="st5" d="M86.2,11.7v1.5c-0.7,0-1.1,0.2-1.4,0.5c-0.3,0.3-0.5,0.8-0.5,1.2v2.7h-1.5v-5.8h1.5v0.8
		c0.2-0.3,0.5-0.5,0.8-0.7C85.5,11.8,85.8,11.7,86.2,11.7z"/>
</g>
</svg>
