<?xml version="1.0" encoding="utf-8"?>
<!-- Generator: Adobe Illustrator 24.0.0, SVG Export Plug-In . SVG Version: 6.00 Build 0)  -->
<svg version="1.1" id="Capa_1" xmlns="http://www.w3.org/2000/svg" xmlns:xlink="http://www.w3.org/1999/xlink" x="0px" y="0px"
	 viewBox="0 0 28.22 28.22" style="enable-background:new 0 0 28.22 28.22;" xml:space="preserve">
<style type="text/css">
	.st0{opacity:0.33;fill:url(#SVGID_1_);}
	.st1{fill:#FFFFFF;}
	.st2{fill:none;stroke:url(#SVGID_2_);stroke-width:0.5;stroke-miterlimit:10;}
	.st3{opacity:0.08;fill:url(#SVGID_3_);}
</style>
<g>
	<linearGradient id="SVGID_1_" gradientUnits="userSpaceOnUse" x1="0.25" y1="14.1079" x2="27.9657" y2="14.1079">
		<stop  offset="0" style="stop-color:#FFFFFF"/>
		<stop  offset="1" style="stop-color:#FFFFFF;stop-opacity:0.5"/>
	</linearGradient>
	<circle class="st0" cx="14.11" cy="14.11" r="13.86"/>
	<g>
		<g>
			<path class="st1" d="M8.02,15.85c0-1,0-1.99,0-2.99c0-0.53,0.21-0.94,0.64-1.25c1.59-1.14,3.18-2.29,4.77-3.44
				c0.24-0.17,0.43-0.17,0.67,0c1.6,1.15,3.2,2.31,4.8,3.47c0.4,0.29,0.6,0.69,0.6,1.18c0,2.04,0,4.08,0,6.12
				c0,0.32-0.22,0.55-0.54,0.55c-1.22,0-2.44,0-3.66,0c-0.32,0-0.52-0.2-0.52-0.52c0-0.75,0-1.5,0-2.25c0-0.55-0.36-0.98-0.88-1.06
				c-0.65-0.1-1.21,0.37-1.22,1.03c-0.01,0.75,0,1.49,0,2.24c0,0.39-0.19,0.57-0.58,0.57c-1.17,0-2.34,0-3.5,0
				c-0.38,0-0.57-0.19-0.57-0.58C8.02,17.89,8.02,16.87,8.02,15.85z M11.75,18.51c0-0.06,0-0.1,0-0.15c0-0.59-0.01-1.17,0.01-1.76
				c0.04-1.05,0.88-1.87,1.92-1.92c1.07-0.04,2.01,0.8,2.05,1.87c0.03,0.61,0.01,1.22,0.01,1.83c0,0.04,0,0.09,0,0.14
				c0.93,0,1.85,0,2.78,0c0-0.05,0-0.09,0-0.13c0-1.85,0-3.7,0-5.55c0-0.19-0.07-0.33-0.23-0.44c-1.49-1.08-2.98-2.16-4.47-3.24
				c-0.06-0.04-0.1-0.04-0.16,0c-1.49,1.08-2.99,2.15-4.48,3.23c-0.14,0.1-0.21,0.23-0.21,0.41c0,1.86,0,3.72,0,5.58
				c0,0.04,0,0.08,0,0.12C9.91,18.51,10.82,18.51,11.75,18.51z"/>
		</g>
	</g>
	<linearGradient id="SVGID_2_" gradientUnits="userSpaceOnUse" x1="0" y1="14.1079" x2="28.2157" y2="14.1079">
		<stop  offset="0" style="stop-color:#ACC90F"/>
		<stop  offset="1" style="stop-color:#E6E120;stop-opacity:0.2"/>
	</linearGradient>
	<circle class="st2" cx="14.11" cy="14.11" r="13.86"/>
	<linearGradient id="SVGID_3_" gradientUnits="userSpaceOnUse" x1="27.6533" y1="6.8161" x2="4.5741" y2="6.8161">
		<stop  offset="0" style="stop-color:#FFFFFF"/>
		<stop  offset="1" style="stop-color:#FFFFFF;stop-opacity:0"/>
	</linearGradient>
	<path class="st3" d="M4.57,4.53l23.08,8.57c0,0-0.07-8.54-9.4-11.95C15.86,0.36,9.65-0.55,4.57,4.53z"/>
</g>
</svg>
