<?xml version="1.0" encoding="utf-8"?>
<!-- Generator: Adobe Illustrator 25.4.1, SVG Export Plug-In . SVG Version: 6.00 Build 0)  -->
<svg version="1.1" id="Capa_1" xmlns="http://www.w3.org/2000/svg" xmlns:xlink="http://www.w3.org/1999/xlink" x="0px" y="0px"
	 viewBox="0 0 106.8 28.5" style="enable-background:new 0 0 106.8 28.5;" xml:space="preserve">
<style type="text/css">
	.st0{opacity:0.33;fill:url(#SVGID_1_);enable-background:new    ;}
	.st1{opacity:8.000000e-02;fill:url(#SVGID_00000086668325787296072140000007346390268144631988_);enable-background:new    ;}
	.st2{fill:none;stroke:url(#SVGID_00000021112366766487427590000005484697089634976652_);stroke-width:0.5;stroke-miterlimit:10;}
	.st3{fill:none;}
	.st4{enable-background:new    ;}
	.st5{fill:#FFFFFF;}
</style>
<linearGradient id="SVGID_1_" gradientUnits="userSpaceOnUse" x1="0.2" y1="828.3" x2="106.6" y2="828.3" gradientTransform="matrix(1 0 0 1 0 -814)">
	<stop  offset="0" style="stop-color:#FFFFFF"/>
	<stop  offset="1" style="stop-color:#FFFFFF;stop-opacity:0.5"/>
</linearGradient>
<path class="st0" d="M92.6,28.3H14.2c-7.7,0-14-6.3-14-14l0,0c0-7.7,6.3-14,14-14h78.4c7.7,0,14,6.3,14,14l0,0
	C106.6,22,100.3,28.3,92.6,28.3z"/>
<linearGradient id="SVGID_00000111155158315815585400000014994845589286753948_" gradientUnits="userSpaceOnUse" x1="106.6" y1="821.25" x2="15.7" y2="821.25" gradientTransform="matrix(1 0 0 1 0 -814)">
	<stop  offset="0" style="stop-color:#FFFFFF"/>
	<stop  offset="1" style="stop-color:#FFFFFF;stop-opacity:0"/>
</linearGradient>
<path style="opacity:8.000000e-02;fill:url(#SVGID_00000111155158315815585400000014994845589286753948_);enable-background:new    ;" d="
	M15.7,0.7h77.8c7.2,0,13.1,5.8,13.1,13.1l0,0L15.7,0.7z"/>
<linearGradient id="SVGID_00000060016168930664985660000011544161318281297037_" gradientUnits="userSpaceOnUse" x1="106.85" y1="828.25" x2="5.000019e-02" y2="828.25" gradientTransform="matrix(1 0 0 1 0 -814)">
	<stop  offset="0" style="stop-color:#EC6466;stop-opacity:0"/>
	<stop  offset="1" style="stop-color:#B1338A"/>
</linearGradient>
<path style="fill:none;stroke:url(#SVGID_00000060016168930664985660000011544161318281297037_);stroke-width:0.5;stroke-miterlimit:10;" d="
	M93.1,28.2H14c-7.6,0-13.7-6.1-13.7-13.7v-0.4c0-7.6,6.2-13.8,13.8-13.8H93c7.5,0,13.6,6.1,13.6,13.6v0.9
	C106.6,22.2,100.5,28.2,93.1,28.2z"/>
<rect x="3" y="10" class="st3" width="98.8" height="10.2"/>
<g class="st4">
	<path class="st5" d="M17.3,10.5h1.6h0.8c1,0,1.8,0.2,2.3,0.6s0.8,1,0.8,1.7s-0.2,1.3-0.8,1.7s-1.3,0.6-2.3,0.6h-0.8v2.7h-1.6V10.5z
		 M18.9,11.9v1.8h0.8c0.5,0,0.9-0.1,1.2-0.2c0.3-0.1,0.4-0.4,0.4-0.7c0-0.3-0.1-0.6-0.4-0.7c-0.3-0.1-0.6-0.2-1.2-0.2H18.9z"/>
	<path class="st5" d="M26.8,11.9v1.5c-0.7,0-1.1,0.2-1.4,0.5c-0.3,0.3-0.5,0.8-0.5,1.2v2.7h-1.5v-5.8H25v0.8
		c0.2-0.3,0.5-0.5,0.8-0.7C26.1,12,26.5,11.9,26.8,11.9z"/>
	<path class="st5" d="M27.5,10.1c0.2-0.1,0.4-0.2,0.6-0.2c0.2,0,0.4,0.1,0.6,0.2c0.2,0.1,0.2,0.3,0.2,0.6s-0.1,0.5-0.2,0.6
		c-0.2,0.1-0.4,0.2-0.6,0.2c-0.2,0-0.4-0.1-0.6-0.2s-0.2-0.3-0.2-0.6S27.4,10.3,27.5,10.1z M27.3,12.1h1.5v5.8h-1.5V12.1z"/>
	<path class="st5" d="M29.4,12.1h1.5l1.2,3.6l1.2-3.6h1.5l-2,5.8h-1.5L29.4,12.1z"/>
	<path class="st5" d="M37.7,11.9c0.6,0,1,0.2,1.4,0.6c0.4,0.4,0.6,1,0.6,1.8v0v3.6h-1.5v-0.7c-0.4,0.6-1,0.9-1.8,0.9
		c-0.5,0-0.9-0.1-1.3-0.4s-0.6-0.7-0.6-1.2c0-0.7,0.2-1.2,0.7-1.5c0.5-0.4,1-0.5,1.7-0.5h1.3v-0.1c0-0.6-0.3-0.9-0.8-0.9
		c-0.3,0-0.5,0-0.8,0.1c-0.3,0.1-0.5,0.2-0.6,0.2l-0.2,0.1l-0.6-1.1c0,0,0.1,0,0.1-0.1c0,0,0.2-0.1,0.3-0.2s0.3-0.2,0.5-0.2
		c0.2-0.1,0.4-0.1,0.7-0.2C37.1,12,37.4,11.9,37.7,11.9z M36.9,15.3c-0.6,0-0.9,0.3-0.9,0.8c0,0.2,0.1,0.4,0.2,0.5
		c0.2,0.1,0.4,0.2,0.6,0.2c0.4,0,0.7-0.2,0.9-0.5s0.4-0.6,0.4-0.9v-0.2H36.9z"/>
	<path class="st5" d="M41.1,10.5h1.5v1.6h1.5v1.4h-1.5v1.5v0v0.5c0,0.2,0,0.3,0,0.4c0,0.1,0,0.2,0.1,0.4s0.1,0.2,0.2,0.3
		c0.1,0.1,0.2,0.1,0.3,0.1c0.2,0,0.3,0,0.5-0.1c0.1-0.1,0.3-0.1,0.3-0.2l0.1-0.1l0.5,1.1c0,0-0.1,0.1-0.2,0.2
		c-0.1,0.1-0.2,0.1-0.5,0.3C43.7,18,43.4,18,43.1,18c-0.4,0-0.7-0.1-0.9-0.2c-0.3-0.1-0.5-0.3-0.6-0.4c-0.1-0.2-0.2-0.4-0.3-0.7
		c-0.1-0.3-0.1-0.6-0.1-0.8c0-0.2,0-0.6,0-0.9v-1.5h-1v-1.4h1V10.5z"/>
	<path class="st5" d="M47.5,11.9c0.8,0,1.4,0.3,1.9,0.8s0.8,1.3,0.8,2.2c0,0.2,0,0.4,0,0.5H46c0.1,0.4,0.2,0.7,0.5,0.9
		c0.3,0.2,0.6,0.3,1,0.3c0.6,0,1-0.2,1.3-0.7l1.3,0.7c-0.3,0.4-0.6,0.8-1.1,1C48.5,17.9,48,18,47.4,18c-0.9,0-1.6-0.3-2.1-0.9
		c-0.6-0.6-0.9-1.3-0.9-2.2s0.3-1.6,0.9-2.2S46.6,11.9,47.5,11.9z M47.4,13.3c-0.3,0-0.6,0.1-0.8,0.2c-0.2,0.2-0.4,0.4-0.5,0.7h2.6
		c0-0.2-0.1-0.4-0.3-0.6S47.9,13.3,47.4,13.3z"/>
	<path class="st5" d="M59.7,15.7c0,0.8-0.3,1.4-0.8,1.7c-0.5,0.4-1.3,0.6-2.2,0.6c-0.3,0-0.7,0-1-0.1c-0.3-0.1-0.6-0.1-0.8-0.2
		c-0.2-0.1-0.4-0.2-0.6-0.2c-0.2-0.1-0.3-0.2-0.4-0.2l-0.1-0.1l0.8-1.3c0.1,0.1,0.2,0.1,0.3,0.2c0.1,0.1,0.4,0.2,0.8,0.3
		c0.4,0.1,0.8,0.2,1.1,0.2c0.8,0,1.2-0.3,1.2-0.9c0-0.2-0.1-0.4-0.4-0.6s-0.6-0.3-1-0.4c-0.4-0.1-0.8-0.2-1.2-0.4
		c-0.4-0.1-0.7-0.3-1-0.6c-0.3-0.3-0.4-0.6-0.4-1.1c0-0.7,0.3-1.3,0.8-1.7c0.6-0.4,1.2-0.6,2-0.6c0.3,0,0.7,0,1,0.1
		c0.3,0.1,0.6,0.1,0.8,0.2c0.2,0.1,0.4,0.2,0.6,0.3s0.3,0.2,0.4,0.2l0.1,0.1l-0.8,1.2c-0.1-0.1-0.2-0.1-0.3-0.2
		c-0.1-0.1-0.4-0.2-0.8-0.3c-0.4-0.1-0.8-0.2-1.1-0.2c-0.4,0-0.6,0.1-0.8,0.3s-0.2,0.4-0.2,0.6c0,0.1,0.1,0.3,0.3,0.4
		s0.5,0.2,0.8,0.3c0.3,0.1,0.6,0.2,1,0.3c0.4,0.1,0.7,0.3,1,0.4c0.3,0.2,0.6,0.4,0.8,0.7C59.6,15,59.7,15.3,59.7,15.7z"/>
	<path class="st5" d="M63.2,11.9c0.8,0,1.4,0.3,1.9,0.8s0.8,1.3,0.8,2.2c0,0.2,0,0.4,0,0.5h-4.2c0.1,0.4,0.2,0.7,0.5,0.9
		c0.3,0.2,0.6,0.3,1,0.3c0.6,0,1-0.2,1.3-0.7l1.3,0.7c-0.3,0.4-0.6,0.8-1.1,1c-0.4,0.3-0.9,0.4-1.5,0.4c-0.9,0-1.6-0.3-2.1-0.9
		c-0.6-0.6-0.9-1.3-0.9-2.2s0.3-1.6,0.9-2.2S62.4,11.9,63.2,11.9z M63.2,13.3c-0.3,0-0.6,0.1-0.8,0.2c-0.2,0.2-0.4,0.4-0.5,0.7h2.6
		c0-0.2-0.1-0.4-0.3-0.6S63.6,13.3,63.2,13.3z"/>
	<path class="st5" d="M70.6,16l1.3,0.7c-0.3,0.4-0.6,0.8-1.1,1S69.9,18,69.4,18c-0.9,0-1.6-0.3-2.1-0.9s-0.9-1.3-0.9-2.2
		s0.3-1.6,0.9-2.2s1.3-0.9,2.1-0.9c0.5,0,1,0.1,1.5,0.4c0.4,0.2,0.8,0.6,1.1,1L70.6,14c-0.3-0.5-0.7-0.7-1.3-0.7
		c-0.4,0-0.8,0.2-1.1,0.5c-0.3,0.3-0.4,0.7-0.4,1.2s0.1,0.9,0.4,1.2c0.3,0.3,0.7,0.5,1.1,0.5C69.9,16.7,70.3,16.4,70.6,16z"/>
	<path class="st5" d="M73.2,10.5h1.5v1.6h1.5v1.4h-1.5v1.5v0v0.5c0,0.2,0,0.3,0,0.4c0,0.1,0,0.2,0.1,0.4s0.1,0.2,0.2,0.3
		c0.1,0.1,0.2,0.1,0.3,0.1c0.2,0,0.3,0,0.5-0.1c0.1-0.1,0.3-0.1,0.3-0.2l0.1-0.1l0.5,1.1c0,0-0.1,0.1-0.2,0.2
		c-0.1,0.1-0.2,0.1-0.5,0.3C75.8,18,75.5,18,75.2,18c-0.4,0-0.7-0.1-0.9-0.2s-0.5-0.3-0.6-0.4c-0.1-0.2-0.2-0.4-0.3-0.7
		c-0.1-0.3-0.1-0.6-0.1-0.8c0-0.2,0-0.6,0-0.9v-1.5h-1v-1.4h1V10.5z"/>
	<path class="st5" d="M77.4,12.8c0.6-0.6,1.3-0.9,2.1-0.9s1.6,0.3,2.1,0.9s0.9,1.3,0.9,2.2s-0.3,1.6-0.9,2.2S80.4,18,79.5,18
		s-1.6-0.3-2.1-0.9s-0.9-1.3-0.9-2.2S76.8,13.4,77.4,12.8z M80.6,13.8c-0.3-0.3-0.6-0.5-1.1-0.5s-0.8,0.2-1.1,0.5
		C78.2,14.1,78,14.5,78,15s0.1,0.9,0.4,1.2c0.3,0.3,0.7,0.5,1.1,0.5s0.8-0.2,1.1-0.5c0.3-0.3,0.4-0.7,0.4-1.2S80.9,14.1,80.6,13.8z"
		/>
	<path class="st5" d="M86.6,11.9v1.5c-0.7,0-1.1,0.2-1.4,0.5c-0.3,0.3-0.5,0.8-0.5,1.2v2.7h-1.5v-5.8h1.5v0.8
		c0.2-0.3,0.5-0.5,0.8-0.7C85.8,12,86.2,11.9,86.6,11.9z"/>
</g>
</svg>
