<?xml version="1.0" encoding="utf-8"?>
<!-- Generator: Adobe Illustrator 25.4.1, SVG Export Plug-In . SVG Version: 6.00 Build 0)  -->
<svg version="1.1" id="Capa_1" xmlns="http://www.w3.org/2000/svg" xmlns:xlink="http://www.w3.org/1999/xlink" x="0px" y="0px"
	 viewBox="0 0 106.9 28" style="enable-background:new 0 0 106.9 28;" xml:space="preserve">
<style type="text/css">
	.st0{opacity:0.33;fill:url(#SVGID_1_);enable-background:new    ;}
	.st1{fill:none;stroke:url(#SVGID_00000140707678188587785620000002481807831619851136_);stroke-width:0.5;stroke-miterlimit:10;}
	.st2{opacity:8.000000e-02;fill:url(#SVGID_00000023246632635816279510000011849152023270686896_);enable-background:new    ;}
	.st3{fill:none;}
	.st4{fill:#FFFFFF;}
	.st5{font-family:'TangoSans';}
	.st6{font-size:10.5px;}
</style>
<linearGradient id="SVGID_1_" gradientUnits="userSpaceOnUse" x1="0.28" y1="13.52" x2="106.6" y2="13.52" gradientTransform="matrix(1 0 0 -1 0 27.89)">
	<stop  offset="0" style="stop-color:#FFFFFF"/>
	<stop  offset="1" style="stop-color:#FFFFFF;stop-opacity:0.5"/>
</linearGradient>
<path class="st0" d="M92.6,28.3H14.3c-7.7,0-14-6.3-14-14l0,0c0-7.7,6.3-14,14-14h78.4c7.7,0,14,6.3,14,14l0,0
	C106.6,22.1,100.3,28.3,92.6,28.3z"/>
<linearGradient id="SVGID_00000008843905204051579050000017000111577940236981_" gradientUnits="userSpaceOnUse" x1="0" y1="13.86" x2="106.89" y2="13.86" gradientTransform="matrix(1 0 0 -1 0 27.89)">
	<stop  offset="0" style="stop-color:#ACC90F"/>
	<stop  offset="1" style="stop-color:#E6E120;stop-opacity:0.2"/>
</linearGradient>
<path style="fill:none;stroke:url(#SVGID_00000008843905204051579050000017000111577940236981_);stroke-width:0.5;stroke-miterlimit:10;" d="
	M93.2,27.8H14c-7.6,0-13.7-6.1-13.7-13.7l0,0c0-7.6,6.2-13.8,13.8-13.8H93c7.5,0,13.6,6.1,13.6,13.6v0.5
	C106.6,21.8,100.6,27.8,93.2,27.8z"/>
<linearGradient id="SVGID_00000097488651848065666620000007667559527251909011_" gradientUnits="userSpaceOnUse" x1="106.56" y1="21.06" x2="15.68" y2="21.06" gradientTransform="matrix(1 0 0 -1 0 27.89)">
	<stop  offset="0" style="stop-color:#FFFFFF"/>
	<stop  offset="1" style="stop-color:#FFFFFF;stop-opacity:0"/>
</linearGradient>
<path style="opacity:8.000000e-02;fill:url(#SVGID_00000097488651848065666620000007667559527251909011_);enable-background:new    ;" d="
	M15.7,0.3h77.8c7.2,0,13.1,5.8,13.1,13.1l0,0L15.7,0.3z"/>
<rect x="4" y="9.7" class="st3" width="98.8" height="8.1"/>
<text transform="matrix(1 0 0 1 20.2342 17.6684)" class="st4 st5 st6">Public Sector</text>
</svg>
