<?xml version="1.0" encoding="utf-8"?>
<!-- Generator: Adobe Illustrator 25.4.1, SVG Export Plug-In . SVG Version: 6.00 Build 0)  -->
<svg version="1.1" id="Capa_1" xmlns="http://www.w3.org/2000/svg" xmlns:xlink="http://www.w3.org/1999/xlink" x="0px" y="0px"
	 viewBox="0 0 106.8 28.5" style="enable-background:new 0 0 106.8 28.5;" xml:space="preserve">
<style type="text/css">
	.st0{opacity:0.33;fill:url(#SVGID_1_);enable-background:new    ;}
	.st1{opacity:8.000000e-02;fill:url(#SVGID_00000141431239819457799600000007768385118740044465_);enable-background:new    ;}
	.st2{fill:none;stroke:url(#SVGID_00000094601375719842298140000012109408509029949848_);stroke-width:0.5;stroke-miterlimit:10;}
	.st3{fill:none;}
	.st4{fill:#FFFFFF;}
	.st5{font-family:'TangoSans';}
	.st6{font-size:10.5px;}
</style>
<linearGradient id="SVGID_1_" gradientUnits="userSpaceOnUse" x1="0.25" y1="13.6" x2="106.57" y2="13.6" gradientTransform="matrix(1 0 0 -1 0 27.89)">
	<stop  offset="0" style="stop-color:#FFFFFF"/>
	<stop  offset="1" style="stop-color:#FFFFFF;stop-opacity:0.5"/>
</linearGradient>
<path class="st0" d="M92.6,28.3H14.2c-7.7,0-14-6.3-14-14l0,0c0-7.7,6.3-14,14-14h78.4c7.7,0,14,6.3,14,14l0,0
	C106.6,22,100.3,28.3,92.6,28.3z"/>
<linearGradient id="SVGID_00000039814452344279208240000006284558973863300769_" gradientUnits="userSpaceOnUse" x1="106.56" y1="20.66" x2="15.68" y2="20.66" gradientTransform="matrix(1 0 0 -1 0 27.89)">
	<stop  offset="0" style="stop-color:#FFFFFF"/>
	<stop  offset="1" style="stop-color:#FFFFFF;stop-opacity:0"/>
</linearGradient>
<path style="opacity:8.000000e-02;fill:url(#SVGID_00000039814452344279208240000006284558973863300769_);enable-background:new    ;" d="
	M15.7,0.7h77.8c7.2,0,13.1,5.8,13.1,13.1l0,0L15.7,0.7z"/>
<linearGradient id="SVGID_00000168086205092884853010000008555229196346787463_" gradientUnits="userSpaceOnUse" x1="106.82" y1="13.66" x2="1.818989e-12" y2="13.66" gradientTransform="matrix(1 0 0 -1 0 27.89)">
	<stop  offset="0" style="stop-color:#EC6466;stop-opacity:0"/>
	<stop  offset="1" style="stop-color:#B1338A"/>
</linearGradient>
<path style="fill:none;stroke:url(#SVGID_00000168086205092884853010000008555229196346787463_);stroke-width:0.5;stroke-miterlimit:10;" d="
	M93.1,28.2H14c-7.6,0-13.7-6.1-13.7-13.7v-0.4c0-7.6,6.2-13.8,13.8-13.8H93c7.5,0,13.6,6.1,13.6,13.6v0.9
	C106.6,22.2,100.5,28.2,93.1,28.2z"/>
<rect x="3" y="10" class="st3" width="98.8" height="10.2"/>
<text transform="matrix(1 0 0 1 16.9131 17.8989)" class="st4 st5 st6">Private Sector</text>
</svg>
