<?xml version="1.0" encoding="utf-8"?>
<!-- Generator: Adobe Illustrator 18.0.0, SVG Export Plug-In . SVG Version: 6.00 Build 0)  -->
<!DOCTYPE svg PUBLIC "-//W3C//DTD SVG 1.1//EN" "http://www.w3.org/Graphics/SVG/1.1/DTD/svg11.dtd">
<svg version="1.1" id="Capa_1" xmlns="http://www.w3.org/2000/svg" xmlns:xlink="http://www.w3.org/1999/xlink" x="0px" y="0px"
	 viewBox="0 0 20.5 20.5" enable-background="new 0 0 20.5 20.5" xml:space="preserve">
<g>
	<g>
		<path fill="#DF6363" d="M20.5,20.5c-1.7,0-3.3,0-5,0c0-0.2,0-0.3,0-0.5c0-2.2,0-4.4,0-6.6c0-0.5,0-0.9-0.1-1.4
			c-0.2-0.8-0.6-1.2-1.4-1.3c-0.9-0.1-1.6,0.3-1.9,1c-0.2,0.5-0.3,1-0.3,1.5c0,2.3,0,4.5,0,6.8c0,0.1,0,0.3,0,0.5
			c-1.6,0-3.2,0-4.8,0c0-4.6,0-9.3,0-13.9c1.6,0,3.2,0,4.8,0c0,0.3,0,0.5,0,0.8c0.2-0.2,0.4-0.3,0.7-0.4c3.3-2.1,7.6-0.1,7.9,3.8
			c0.1,0.6,0.1,1.3,0.1,1.9c0,2.5,0,4.9,0,7.4C20.5,20.1,20.5,20.3,20.5,20.5z M19.5,19.5c0-2.8,0-5.5,0-8.2c0-0.2,0-0.4-0.1-0.7
			c-0.3-1.9-1.4-3.1-3.2-3.4c-1.9-0.3-3.7,0.5-4.5,2c-0.2,0.4-0.5,0.9-0.7,1.3c0,0-0.1,0-0.1,0c0-1,0-2,0-3c-1,0-1.9,0-2.8,0
			c0,4,0,8,0,12c1,0,1.9,0,2.8,0c0-0.2,0-0.3,0-0.5c0-1.9,0-3.8,0-5.8c0-0.7,0.1-1.4,0.5-2.1c0.5-1,1.6-1.5,2.8-1.4
			c1.1,0.1,1.9,0.8,2.2,1.9c0.1,0.5,0.2,1.1,0.2,1.6c0,1.9,0,3.8,0,5.7c0,0.1,0,0.3,0,0.5C17.5,19.5,18.5,19.5,19.5,19.5z"/>
		<path fill="#DF6363" d="M5.4,6.5c0,4.7,0,9.3,0,14c-1.7,0-3.3,0-4.9,0c0-4.6,0-9.3,0-14C2.1,6.5,3.7,6.5,5.4,6.5z M1.4,7.5
			c0,4,0,8,0,12c1,0,2,0,3,0c0-4,0-8,0-12C3.4,7.5,2.4,7.5,1.4,7.5z"/>
		<path fill="#DF6363" d="M2.9,5.8C1.3,5.8,0,4.5,0,2.9C0,1.3,1.3,0,2.9,0c1.6,0,2.9,1.3,2.8,2.9C5.7,4.5,4.4,5.8,2.9,5.8z M2.8,4.8
			c1,0,1.9-0.8,1.9-1.9c0-1-0.8-1.9-1.9-1.9C1.9,1,1,1.8,1,2.9C1,3.9,1.8,4.8,2.8,4.8z"/>
	</g>
</g>
</svg>
