<?xml version="1.0" encoding="utf-8"?>
<!-- Generator: Adobe Illustrator 18.0.0, SVG Export Plug-In . SVG Version: 6.00 Build 0)  -->
<!DOCTYPE svg PUBLIC "-//W3C//DTD SVG 1.1//EN" "http://www.w3.org/Graphics/SVG/1.1/DTD/svg11.dtd">
<svg version="1.1" id="Capa_1" xmlns="http://www.w3.org/2000/svg" xmlns:xlink="http://www.w3.org/1999/xlink" x="0px" y="0px"
	 viewBox="0 212.6 992.1 992.1" enable-background="new 0 212.6 992.1 992.1" xml:space="preserve">
<g>
	<g>
		<path fill="#F1FF33" d="M992.1,1204.7c-82.3,0-159.7,0-242,0c0-9.7,0-14.5,0-24.2c0-106.5,0-212.9,0-319.4c0-24.2,0-43.6-4.8-67.8
			c-9.7-38.7-29-58.1-67.8-62.9c-43.6-4.8-77.4,14.5-92,48.4c-9.7,24.2-14.5,48.4-14.5,72.6c0,111.3,0,217.8,0,329.1
			c0,4.8,0,14.5,0,24.2c-77.4,0-154.9,0-232.3,0c0-222.6,0-450.1,0-672.7c77.4,0,154.9,0,232.3,0c0,14.5,0,24.2,0,38.7
			c9.7-9.7,19.4-14.5,33.9-19.4c159.7-101.6,367.8-4.8,382.3,183.9c4.8,29,4.8,62.9,4.8,92c0,121,0,237.1,0,358.1
			C992.1,1185.4,992.1,1195,992.1,1204.7z M943.7,1156.3c0-135.5,0-266.2,0-396.9c0-9.7,0-19.4-4.8-33.9
			c-14.5-92-67.8-150-154.9-164.5c-92-14.5-179.1,24.2-217.8,96.8c-9.7,19.4-24.2,43.6-33.9,62.9h-4.8c0-48.4,0-96.8,0-145.2
			c-48.4,0-92,0-135.5,0c0,193.6,0,387.2,0,580.8c48.4,0,92,0,135.5,0c0-9.7,0-14.5,0-24.2c0-92,0-183.9,0-280.7
			c0-33.9,4.8-67.8,24.2-101.6c24.2-48.4,77.4-72.6,135.5-67.8c53.2,4.8,92,38.7,106.5,92c4.8,24.2,9.7,53.2,9.7,77.4
			c0,92,0,183.9,0,275.9c0,4.8,0,14.5,0,24.2C846.9,1156.3,895.3,1156.3,943.7,1156.3z"/>
		<path fill="#F1FF33" d="M261.3,527.2c0,227.5,0,450.1,0,677.6c-82.3,0-159.7,0-237.1,0c0-222.6,0-450.1,0-677.6
			C101.6,527.2,179.1,527.2,261.3,527.2z M67.8,575.6c0,193.6,0,387.2,0,580.8c48.4,0,96.8,0,145.2,0c0-193.6,0-387.2,0-580.8
			C164.5,575.6,116.2,575.6,67.8,575.6z"/>
		<path fill="#F1FF33" d="M140.4,493.3C62.9,493.3,0,430.4,0,352.9s62.9-140.4,140.4-140.4s140.4,62.9,135.5,140.4
			C275.9,430.4,212.9,493.3,140.4,493.3z M135.5,444.9c48.4,0,92-38.7,92-92c0-48.4-38.7-92-92-92c-43.6,0-87.1,38.7-87.1,92
			C48.4,401.3,87.1,444.9,135.5,444.9z"/>
	</g>
</g>
</svg>
