<?xml version="1.0" encoding="utf-8"?>
<!-- Generator: Adobe Illustrator 18.0.0, SVG Export Plug-In . SVG Version: 6.00 Build 0)  -->
<!DOCTYPE svg PUBLIC "-//W3C//DTD SVG 1.1//EN" "http://www.w3.org/Graphics/SVG/1.1/DTD/svg11.dtd">
<svg version="1.1" id="Capa_1" xmlns="http://www.w3.org/2000/svg" xmlns:xlink="http://www.w3.org/1999/xlink" x="0px" y="0px"
	 viewBox="0 0 35.9 26.1" enable-background="new 0 0 35.9 26.1" xml:space="preserve">
<g>
	<path fill="#3D4CFA" d="M18,0c4.6,0,9.2,0,13.9,0c2.1,0,3.7,1.3,4,3.4c0,0.3,0,0.6,0,0.8c0,5.9,0,11.7,0,17.6
		c0,2.5-1.7,4.2-4.2,4.2c-9.1,0-18.3,0-27.4,0C1.7,26,0,24.4,0,21.8C0,16,0,10.1,0,4.2C0,1.7,1.7,0,4.2,0C8.8,0,13.4,0,18,0z
		 M18,1.4c-4.6,0-9.1,0-13.7,0c-1.8,0-2.8,1-2.8,2.8c0,5.8,0,11.7,0,17.5c0,1.8,1,2.8,2.8,2.8c9.1,0,18.3,0,27.4,0
		c1.8,0,2.8-1,2.8-2.8c0-5.8,0-11.7,0-17.5c0-1.8-1-2.8-2.8-2.8C27.1,1.4,22.5,1.4,18,1.4z"/>
	<path fill="#3D4CFA" d="M18,13c3.2-2.3,6.3-4.5,9.5-6.8c1.2-0.9,2.4-1.7,3.6-2.6c0.3-0.2,0.7-0.2,0.9,0.1c0.3,0.3,0.3,0.7,0,0.9
		c-0.1,0.1-0.3,0.2-0.4,0.3c-4.3,3.1-8.7,6.2-13,9.3c-0.6,0.4-0.7,0.4-1.3,0C13,11.2,8.6,8.1,4.3,5c0,0-0.1-0.1-0.1-0.1
		C3.7,4.6,3.6,4.2,3.8,3.8C4.1,3.5,4.5,3.4,5,3.8c4.2,3,8.3,5.9,12.5,8.9C17.6,12.8,17.8,12.9,18,13z"/>
</g>
</svg>
