<?xml version="1.0" encoding="utf-8"?>
<!-- Generator: Adobe Illustrator 18.0.0, SVG Export Plug-In . SVG Version: 6.00 Build 0)  -->
<!DOCTYPE svg PUBLIC "-//W3C//DTD SVG 1.1//EN" "http://www.w3.org/Graphics/SVG/1.1/DTD/svg11.dtd">
<svg version="1.1" id="Capa_1" xmlns="http://www.w3.org/2000/svg" xmlns:xlink="http://www.w3.org/1999/xlink" x="0px" y="0px"
	 viewBox="0 348 992.1 721.3" enable-background="new 0 348 992.1 721.3" xml:space="preserve">
<g>
	<g>
		<path fill="#F1FF33" d="M497.4,348c127.1,0,254.3,0,384.1,0c58,0,102.3,35.9,110.5,94c0,8.3,0,16.6,0,22.1
			c0,163.1,0,323.3,0,486.4c0,69.1-47,116.1-116.1,116.1c-251.5,0-505.7,0-757.2,0C47,1066.5,0,1022.3,0,950.5
			c0-160.3,0-323.3,0-486.4C0,395,47,348,116.1,348C243.2,348,370.3,348,497.4,348z M497.4,386.7c-127.1,0-251.5,0-378.6,0
			c-49.7,0-77.4,27.6-77.4,77.4c0,160.3,0,323.3,0,483.6c0,49.7,27.6,77.4,77.4,77.4c251.5,0,505.7,0,757.2,0
			c49.7,0,77.4-27.6,77.4-77.4c0-160.3,0-323.3,0-483.6c0-49.7-27.6-77.4-77.4-77.4C748.9,386.7,621.8,386.7,497.4,386.7z"/>
		<path fill="#F1FF33" d="M497.4,707.3c88.4-63.6,174.1-124.4,262.5-187.9c33.2-24.9,66.3-47,99.5-71.9c8.3-5.5,19.3-5.5,24.9,2.8
			c8.3,8.3,8.3,19.3,0,24.9c-2.8,2.8-8.3,5.5-11.1,8.3c-118.8,85.7-240.4,171.3-359.3,257c-16.6,11.1-19.3,11.1-35.9,0
			c-118.8-82.9-240.4-168.6-359.3-254.3l-2.8-2.8c-13.8-8.3-16.6-19.3-11.1-30.4c8.3-8.3,19.3-11.1,33.2,0
			c116.1,82.9,229.4,163.1,345.4,246C486.4,701.8,491.9,704.5,497.4,707.3z"/>
	</g>
</g>
</svg>
