<?xml version="1.0" encoding="utf-8"?>
<!-- Generator: Adobe Illustrator 25.4.1, SVG Export Plug-In . SVG Version: 6.00 Build 0)  -->
<svg version="1.1" id="Capa_1" xmlns="http://www.w3.org/2000/svg" xmlns:xlink="http://www.w3.org/1999/xlink" x="0px" y="0px"
	 viewBox="0 0 251.3 342.8" style="enable-background:new 0 0 251.3 342.8;" xml:space="preserve">
<style type="text/css">
	.st0{fill:#E6E11E;}
</style>
<g>
	<path class="st0" d="M57.9,342.8c-2.6-0.5-5.2-1-7.8-1.6C24.6,335,4.7,312.8,1,286.5c-0.6-4.4-0.9-8.9-0.9-13.3
		c-0.1-57.3,0-114.7-0.1-172c0-8.2,1.9-15.7,7.6-21.8C16,70.2,29.7,68,40.7,74c0.7,0.4,1.3,0.8,2.5,1.5c0-1.5,0-2.6,0-3.6
		c0-8,0.1-16.1,0-24.1c-0.3-22,22.4-37.4,42.7-23.7c2-9,6.4-16.3,14.7-20.8c5-2.7,10.4-3.9,15.9-2.8c20.5,4.3,24.5,19.2,23.3,37.3
		c3.8-1.5,7-3.2,10.5-4c15.7-3.5,31.2,8.6,32.2,25c0.1,1.9,0.1,3.8,0.1,5.7c0,40.3,0.1,80.5,0.1,120.8c0,1.3,0,2.6,0.7,4.1
		c2-2.4,4.1-4.9,6.1-7.3c14.3-17.1,36.2-19.1,53.3-4.8c1.6,1.4,3.3,2.7,4.9,4.1c4.2,3.5,4.6,5.3,2.1,10
		c-9.9,19.1-19.9,38.1-29.8,57.2c-10.1,19.4-20.2,38.7-30.2,58.1c-9.9,18.9-24.8,31.1-46,35.4c-1.6,0.3-3.3,0.6-4.9,1
		C111.9,342.8,84.9,342.8,57.9,342.8z M238.5,188.5c-13.6-13.5-29.4-12.7-41.2,1.7c-5.2,6.3-10.3,12.6-15.5,18.9
		c-1.7,2.1-3.8,3.1-6.5,2.1c-2.7-1-3.8-3-3.8-5.7c0-1,0-2,0-3c-0.1-46-0.1-91.9-0.2-137.9c0-1.9,0-3.8-0.2-5.7
		c-0.8-7.7-7-14-14.3-14.6c-7.1-0.6-13.8,4.3-15.9,11.8c-0.6,2.3-0.8,4.8-0.8,7.3c0,35.6,0,71.2,0,106.7c0,5.7-1.9,8.5-5.8,8.5
		c-3.7-0.1-5.5-2.7-5.5-8.3c0-46.3,0-92.6,0-138.9c0-1.3,0-2.7-0.1-4c-0.6-8.3-6.4-15-13.7-15.9c-7.8-0.9-14.9,3.6-17.3,11.2
		c-0.7,2.4-1,5-1,7.6c-0.1,46.6,0,93.2,0,139.9c0,5.6-1.7,8.2-5.5,8.4c-3.9,0.1-5.8-2.7-5.8-8.4c0-40,0-80.1,0-120.1
		c0-1.7,0-3.4-0.1-5c-0.6-7.8-6.7-14.3-13.8-15c-7.8-0.7-14.4,4.2-16.4,12.3c-0.5,2.2-0.6,4.6-0.6,7c0,40.3,0,80.5,0,120.8
		c0,1.3,0.1,2.7-0.2,4c-0.7,2.9-2.7,4.3-5.5,4.4c-2.7,0.1-5.1-2.1-5.5-4.9c-0.1-1.1-0.1-2.2-0.1-3.3c0-23,0-46,0-68.9
		c0-1.3,0-2.7-0.1-4c-0.6-8.2-6.7-14.6-14.6-15.4c-7.4-0.7-14.4,4.2-16.4,11.9c-0.6,2.2-0.8,4.6-0.8,6.9c0,57.6,0,115.1,0.1,172.7
		c0,4.2,0.3,8.5,1.1,12.6c4.9,26.6,27.2,46.1,53.6,45.5c21.9-0.5,43.7-0.1,65.6-0.1c2.6,0,5.2,0,7.7-0.4
		c18.2-2.7,31.3-12.7,39.9-28.7c7.6-14.3,15-28.6,22.4-42.9C213.8,235.8,226.1,212.2,238.5,188.5z"/>
</g>
</svg>
