<?xml version="1.0" encoding="utf-8"?>
<!-- Generator: Adobe Illustrator 25.4.1, SVG Export Plug-In . SVG Version: 6.00 Build 0)  -->
<svg version="1.1" id="Capa_1" xmlns="http://www.w3.org/2000/svg" xmlns:xlink="http://www.w3.org/1999/xlink" x="0px" y="0px"
	 viewBox="0 0 307.3 307.2" style="enable-background:new 0 0 307.3 307.2;" xml:space="preserve">
<style type="text/css">
	.st0{fill:#24388A;}
</style>
<g>
	<path class="st0" d="M227.9,0c43.9,0,79.5,35.7,79.4,79.7c-0.1,43.6-35.7,79.2-79.2,79.2c-44.2,0-79.7-35.5-79.7-79.7
		C148.4,35.6,184.1,0,227.9,0z M273.9,130.2c18.7-16.1,29-46.4,18.1-75.2c-10.6-27.8-37.9-45.7-67.9-44.3
		c-29.1,1.3-54.8,22.2-62.6,50.6c-7.8,28.5,4.6,56.4,20.3,68.8c7.9-24.3,28.4-35,46.2-34.5C251.1,96.2,266,108.5,273.9,130.2z
		 M221.9,148.3c17.9,0,30.2-3.3,40.1-9.1c1.8-1,2.5-2,2-4.2c-3.8-16.7-18.9-28.8-36.2-28.8c-17.2,0-32.4,12.1-36.2,28.8
		c-0.5,2.1,0.2,3.1,2,4.2C204.2,145.2,215.5,148.3,221.9,148.3z"/>
	<path class="st0" d="M0,227.7c0-43.8,35.7-79.5,79.3-79.4c44.2,0,79.7,35.6,79.6,79.8c-0.1,43.7-35.9,79.2-79.7,79.1
		C35.5,307.1,0,271.5,0,227.7z M125.6,278.6c18.8-16.2,29-46.1,18.6-74.5c-10.4-28.4-37.5-46.3-68.3-45.1
		C47.1,160,21.2,180.8,13.2,209c-8.1,28.6,4.3,56.8,20.2,69.4c7.9-21.7,23.1-34.5,46.5-34.3C102.9,244.3,117.8,257.1,125.6,278.6z
		 M79.5,296.7c12.3-0.1,23.7-3.2,34.4-9.3c1.9-1.1,2.2-2.2,1.7-4.2c-4-16.7-18.7-28.5-36-28.6c-17.2-0.1-32.3,11.9-36.3,28.6
		c-0.5,2.1-0.1,3.2,1.8,4.2C55.8,293.5,67.2,296.7,79.5,296.7z"/>
	<path class="st0" d="M183.6,277.4c0.3,2.1,1.1,4.1,0.8,6c-0.2,1.9-1,4.4-2.3,5.3c-1.4,0.9-4.3,0.9-5.7,0
		c-5.5-3.5-10.7-7.4-15.8-11.4c-2.4-1.9-2.8-4.5-1-7.1c3.6-5.3,7.2-10.6,11.2-15.6c1-1.3,3.7-2.4,5.1-2c1.7,0.5,3.5,2.5,4.2,4.3
		c1.1,2.8,1.3,6,2,9.4c20-5.1,37.2-14.5,51.9-28.6c16.3-15.5,27.1-34.1,32.8-56.1c-3-0.6-5.7-0.8-8.1-1.8c-1.7-0.7-3.7-2.5-4.1-4.1
		c-0.3-1.6,0.8-4.3,2.1-5.3c5.1-3.8,10.5-7.3,15.9-10.7c2.7-1.7,5.4-1.2,7.3,1.5c3.6,5.2,7.1,10.4,10.2,15.8c0.9,1.5,0.9,4.4,0,5.7
		c-1.1,1.4-3.6,2.1-5.6,2.2c-2.3,0.1-4.7-0.8-7-1.2C263.4,232.4,232.2,263.5,183.6,277.4z"/>
	<path class="st0" d="M123.7,30c-0.3-2.1-1.1-4.1-0.8-6c0.2-1.9,0.9-4.4,2.3-5.3c1.4-0.9,4.3-0.9,5.7,0c5.4,3.4,10.5,7.2,15.7,11.1
		c2.6,1.9,3,4.7,1.1,7.3c-3.6,5.3-7.3,10.5-11.3,15.5c-1.1,1.3-3.8,2.4-5.4,2c-1.6-0.4-3.3-2.5-3.9-4.2c-1-2.9-1.2-6.2-1.8-9.3
		c-40.2,8.6-76.1,44.5-84.4,84.4c2.5,0.5,5.1,0.7,7.3,1.7c1.8,0.8,4.1,2.4,4.4,4.1c0.4,1.6-0.9,4.4-2.3,5.5
		c-4.9,3.7-10.1,7-15.3,10.4c-3.2,2-5.8,1.4-7.9-1.8c-3.3-4.9-6.5-10-9.8-14.9c-1.4-2.1-1.7-4.3-0.1-6.5c1.6-2.2,3.7-2.5,6.2-2
		c2.1,0.5,4.3,0.9,6.5,1.4C43.9,74.9,75.1,43.9,123.7,30z"/>
	<path class="st0" d="M227.8,90C210.1,90,196,75.6,196,57.9c0.1-17.3,14.4-31.5,31.8-31.4c17.7,0,31.9,14.4,31.8,32.1
		C259.5,75.9,245.1,90.1,227.8,90z M227.9,37.1c-11.7,0-21.2,9.5-21.3,21.2c0,11.5,9.4,21.1,20.9,21.2c11.7,0.1,21.4-9.3,21.4-21
		C249.1,46.7,239.6,37.1,227.9,37.1z"/>
	<path class="st0" d="M47.7,206.7c0-17.5,14.2-31.9,31.7-31.9c17.6,0,31.8,14.2,31.9,31.7c0.1,17.5-14.2,31.9-31.7,31.9
		C62,238.3,47.7,224.2,47.7,206.7z M100.7,206.4c-0.1-11.7-9.7-21.1-21.5-21c-11.5,0.1-20.9,9.6-20.9,21.2
		c0,11.7,9.6,21.2,21.3,21.1C91.3,227.7,100.7,218.1,100.7,206.4z"/>
</g>
</svg>
