<?xml version="1.0" encoding="utf-8"?>
<!-- Generator: Adobe Illustrator 25.4.1, SVG Export Plug-In . SVG Version: 6.00 Build 0)  -->
<svg version="1.1" id="Capa_1" xmlns="http://www.w3.org/2000/svg" xmlns:xlink="http://www.w3.org/1999/xlink" x="0px" y="0px"
	 viewBox="0 0 315.2 280.3" style="enable-background:new 0 0 315.2 280.3;" xml:space="preserve">
<style type="text/css">
	.st0{fill:#E6E11E;}
</style>
<g>
	<path class="st0" d="M313.8,137.3c0,22.4,0,44.8,0,67.3c0,18.5-10.9,29.5-29.4,29.5c-46,0-92,0-138,0c-1.7,0-3.4,0-5.7,0
		c0,0,0,0.1,0,0.1l143.7-0.1c18.9,0,31.7-12.2,30.8-31.1l-1.3-69.8v-0.7c0,0,0,0,0,0C313.8,134.2,313.8,135.7,313.8,137.3z"/>
	<path class="st0" d="M313.8,113.4c0-28.2,0-56.3,0-84.5C313.8,11.2,302.7,0,285,0C221.9,0,158.8,0,95.7,0c-1.4,0-2.9,0-4.3,0.3
		c-3.4,0.7-5.3,3-5.1,6.5c0.2,3.4,2.1,5.6,5.6,6c1.7,0.2,3.4,0.1,5.2,0.1c62.2,0,124.5,0,186.7,0c12,0,17,5,17,17
		c0,57.9,0,115.8,0,173.8c0,12.6-4.9,17.4-17.5,17.4c-56.5,0-113,0.1-169.4-0.1c-5.7,0-10.1,1.7-14.3,5.5
		c-13.7,12.5-27.6,24.7-41.5,37.1c-0.8,0.7-1.6,1.2-2.9,2.1c0-11.2,0.1-21.7,0-32.2c-0.1-7.4-4.8-12.1-12.1-12.4
		c-4.6-0.1-9.2,0-13.8-0.1c-11.1,0-16.3-5.2-16.3-16.4c0-58.4,0-116.7,0-175.1c0-11.9,4.9-16.8,16.8-16.8c10.8,0,21.6,0.1,32.3-0.1
		c4.1,0,6.8-2.6,6.9-6.2c0.1-3.6-2.5-6.2-6.5-6.6C61.5,0,60.7,0,59.8,0c-10.3,0-20.7,0-31,0C11,0.1,0,11.1,0,28.8
		c0,58.8,0,117.6,0,176.3c0,17.7,11,28.8,28.7,28.9c4.4,0,8.8,0,13.5,0c0,9.7,0,18.9,0,28.1c0,1.7,0,3.5,0,5.2
		c-0.1,5.4,2,9.6,7,11.8c5,2.2,9.5,1.1,13.5-2.4c13.8-12.3,28.2-24.1,41.4-37.2c7.4-7.3,15.2-4.9,23.6-5.3h12.9c0,0,0-0.1,0-0.1
		c2.3,0,4,0,5.7,0c46,0,92,0,138,0c18.5,0,29.4-11,29.4-29.5c0-22.4,0-44.8,0-67.3c0-1.5,0-3.1,0-4.8c0,0,0,0,0,0l0-13.2
		c0,0,0,0,0,0C313.8,116.8,313.8,115.1,313.8,113.4z"/>
	<path class="st0" d="M157,125.7c4.6-0.1,8.4-3.8,8.5-8.4c0.1-4.7-3.9-8.8-8.6-8.8c-4.9,0-8.7,3.8-8.7,8.7
		C148.3,122,152.1,125.7,157,125.7z"/>
	<path class="st0" d="M121.9,125.7c4.9,0,8.7-3.9,8.6-8.8c-0.1-4.7-3.9-8.4-8.6-8.4c-4.8,0-8.8,4.1-8.7,8.9
		C113.4,121.9,117.3,125.7,121.9,125.7z"/>
	<path class="st0" d="M191.5,125.7c4.9,0.1,8.7-3.6,8.8-8.5c0-4.9-3.8-8.7-8.6-8.7c-4.7,0-8.8,4.1-8.7,8.8
		C183.1,121.8,187,125.6,191.5,125.7z"/>
</g>
</svg>
