<?xml version="1.0" encoding="utf-8"?>
<!-- Generator: Adobe Illustrator 25.4.1, SVG Export Plug-In . SVG Version: 6.00 Build 0)  -->
<svg version="1.1" id="Capa_1" xmlns="http://www.w3.org/2000/svg" xmlns:xlink="http://www.w3.org/1999/xlink" x="0px" y="0px"
	 viewBox="0 0 281.6 368.7" style="enable-background:new 0 0 281.6 368.7;" xml:space="preserve">
<style type="text/css">
	.st0{fill:#24388A;}
</style>
<g>
	<path class="st0" d="M187.1,95.5c-27.8,20.8-55.5,41.4-82.4,61.6c2.2,7.9,4.7,15.2,6.4,22.7c1.7,7.9,0.4,15.8-2.1,23.5
		c-0.7,2-0.6,3.2,1.2,4.5c27.4,20.4,54.7,40.8,82.3,61.4c15.1-10.4,31.6-13.3,49.3-8.2c12.9,3.7,23.3,10.8,30.7,22.1
		c15.2,23.3,10.6,55.2-10.3,72.7c-21.7,18.1-54.3,17.2-75-2.1c-20-18.7-24.4-50.4-4.5-75.3c-26.8-20.1-53.7-40.1-80.8-60.3
		c-12.1,15.4-27.5,24-47.1,23.4c-15.2-0.4-28.7-5.6-39.5-16.6c-19.9-20.3-20.1-55-0.8-75.9c17.5-18.9,54.2-26.7,81.1-1.4
		c27.6-20.6,55.2-41.2,83.1-62c-9.6-15.1-11.8-31.1-5.7-47.9c4.8-13.3,13.3-23.5,25.6-30.5c24-13.6,55.4-6.7,72.2,15.7
		c16.3,21.7,14.1,52.1-5,71C247.5,111.7,213.3,119,187.1,95.5z M268.3,314.1c0.1-24-18.3-42.2-42.6-42.3
		c-24.2-0.1-42.8,18.1-43,42.1c-0.2,22.5,19.4,41.7,42.7,41.7C248.9,355.7,268.2,337,268.3,314.1z M268.3,55
		c0-22.8-19.2-41.6-42.6-41.7c-23.3,0-42.9,18.8-42.9,41.5c-0.1,23.8,18.5,42.2,42.8,42.3C249.7,97.1,268.3,78.9,268.3,55z
		 M55.6,144.7c-24.5,0-42.7,18-42.7,42.1c0,22.8,19.3,41.5,42.8,41.5c23.5,0,42.9-18.9,42.8-41.5C98.4,162.7,80.1,144.7,55.6,144.7z
		"/>
</g>
</svg>
