<?xml version="1.0" encoding="utf-8"?>
<!-- Generator: Adobe Illustrator 25.4.1, SVG Export Plug-In . SVG Version: 6.00 Build 0)  -->
<svg version="1.1" id="Capa_1" xmlns="http://www.w3.org/2000/svg" xmlns:xlink="http://www.w3.org/1999/xlink" x="0px" y="0px"
	 viewBox="0 0 131 105.3" style="enable-background:new 0 0 131 105.3;" xml:space="preserve">
<style type="text/css">
	.st0{fill:#E6E120;}
	
		.st1{opacity:0.33;fill:url(#SVGID_1_);stroke:url(#SVGID_00000142165332437180634720000009159782656510750603_);stroke-width:1.5;stroke-miterlimit:10;}
	.st2{opacity:0.13;fill:url(#SVGID_00000070098862596163984360000014589350008299444118_);}
</style>
<g>
	<path class="st0" d="M102.2,37.8H28.8c-2.8,0-5.1-2.3-5.1-5.1v0c0-2.8,2.3-5.1,5.1-5.1h73.4c2.8,0,5.1,2.3,5.1,5.1v0
		C107.3,35.5,105,37.8,102.2,37.8z"/>
	<path class="st0" d="M102.2,57.7H28.8c-2.8,0-5.1-2.3-5.1-5.1v0c0-2.8,2.3-5.1,5.1-5.1h73.4c2.8,0,5.1,2.3,5.1,5.1v0
		C107.3,55.5,105,57.7,102.2,57.7z"/>
	<path class="st0" d="M102.2,77.7H28.8c-2.8,0-5.1-2.3-5.1-5.1v0c0-2.8,2.3-5.1,5.1-5.1h73.4c2.8,0,5.1,2.3,5.1,5.1v0
		C107.3,75.4,105,77.7,102.2,77.7z"/>
	<linearGradient id="SVGID_1_" gradientUnits="userSpaceOnUse" x1="0.75" y1="52.6512" x2="130.2552" y2="52.6512">
		<stop  offset="0" style="stop-color:#FFFFFF;stop-opacity:0.13"/>
		<stop  offset="1" style="stop-color:#FFFFFF;stop-opacity:0.13"/>
	</linearGradient>
	
		<linearGradient id="SVGID_00000097481877901471060400000008523742539600563605_" gradientUnits="userSpaceOnUse" x1="0" y1="52.6512" x2="131.0052" y2="52.6512">
		<stop  offset="0" style="stop-color:#FFFFFF"/>
		<stop  offset="1" style="stop-color:#FFFFFF;stop-opacity:0"/>
	</linearGradient>
	
		<path style="opacity:0.33;fill:url(#SVGID_1_);stroke:url(#SVGID_00000097481877901471060400000008523742539600563605_);stroke-width:1.5;stroke-miterlimit:10;" d="
		M108.6,104.6H22.4c-11.9,0-21.6-9.7-21.6-21.6V22.4c0-11.9,9.7-21.6,21.6-21.6h86.2c11.9,0,21.6,9.7,21.6,21.6v60.5
		C130.3,94.9,120.6,104.6,108.6,104.6z"/>
	
		<linearGradient id="SVGID_00000050663030527589074520000005075745512423207347_" gradientUnits="userSpaceOnUse" x1="65.5026" y1="0.75" x2="65.5026" y2="82.9237">
		<stop  offset="0" style="stop-color:#FFFFFF;stop-opacity:0.3"/>
		<stop  offset="1" style="stop-color:#FFFFFF;stop-opacity:0"/>
	</linearGradient>
	<path style="opacity:0.13;fill:url(#SVGID_00000050663030527589074520000005075745512423207347_);" d="M0.8,22.4
		c0-11.9,9.7-21.6,21.6-21.6h86.2c11.9,0,21.6,9.7,21.6,21.6v60.5"/>
</g>
</svg>
