<?xml version="1.0" encoding="utf-8"?>
<!-- Generator: Adobe Illustrator 25.4.1, SVG Export Plug-In . SVG Version: 6.00 Build 0)  -->
<svg version="1.1" id="Capa_1" xmlns="http://www.w3.org/2000/svg" xmlns:xlink="http://www.w3.org/1999/xlink" x="0px" y="0px"
	 viewBox="0 0 922.2 560" style="enable-background:new 0 0 922.2 560;" xml:space="preserve">
<style type="text/css">
	.st0{opacity:0.9;fill:#00046E;}
	.st1{opacity:0.15;fill:url(#SVGID_1_);}
	.st2{opacity:0.15;fill:url(#SVGID_00000132777179302669143010000005468060839764232380_);}
	
		.st3{opacity:0.35;fill:none;stroke:url(#SVGID_00000118375169370953785210000005368363251992119438_);stroke-width:4;stroke-miterlimit:10;}
	.st4{opacity:0.15;fill:url(#SVGID_00000029033908416950179530000010632382468224200352_);}
	.st5{opacity:0.15;fill:url(#SVGID_00000117669732989911644430000006172070416644124827_);}
	.st6{opacity:0.15;fill:url(#SVGID_00000055690475443179732300000007583943786192968602_);}
	.st7{opacity:0.15;fill:url(#SVGID_00000000224546969892588930000014953041130646230929_);}
	.st8{opacity:0.15;fill:url(#SVGID_00000114755938444451262990000002470970767160401541_);}
	.st9{opacity:0.15;fill:url(#SVGID_00000165940402429240167950000016130878737745503671_);}
	.st10{opacity:0.15;fill:url(#SVGID_00000000924323151188668660000001896521752630584497_);}
</style>
<g>
	<path class="st0" d="M877.7,558H43.6C20.6,558,2,539.4,2,516.4V43.6C2,20.6,20.6,2,43.6,2h834.1c23,0,41.6,18.6,41.6,41.6v472.8
		C919.3,539.4,900.7,558,877.7,558z"/>
	<linearGradient id="SVGID_1_" gradientUnits="userSpaceOnUse" x1="2" y1="280.0198" x2="919.311" y2="280.0198">
		<stop  offset="0" style="stop-color:#FFFFFF"/>
		<stop  offset="1" style="stop-color:#FFFFFF;stop-opacity:0"/>
	</linearGradient>
	<path class="st1" d="M877.7,558H43.6C20.6,558,2,539.4,2,516.4V43.6C2,20.6,20.6,2,43.6,2h834.1c23,0,41.6,18.6,41.6,41.6v472.8
		C919.3,539.4,900.7,558,877.7,558z"/>
	
		<linearGradient id="SVGID_00000029018096243573295120000013507742584580156560_" gradientUnits="userSpaceOnUse" x1="2" y1="280.0198" x2="919.311" y2="280.0198">
		<stop  offset="0" style="stop-color:#F1FF33"/>
		<stop  offset="1" style="stop-color:#F1FF33;stop-opacity:0"/>
	</linearGradient>
	<path style="opacity:0.15;fill:url(#SVGID_00000029018096243573295120000013507742584580156560_);" d="M877.7,558H43.6
		C20.6,558,2,539.4,2,516.4V43.6C2,20.6,20.6,2,43.6,2h834.1c23,0,41.6,18.6,41.6,41.6v472.8C919.3,539.4,900.7,558,877.7,558z"/>
	
		<linearGradient id="SVGID_00000004546319158059847820000000631708950536768173_" gradientUnits="userSpaceOnUse" x1="0" y1="280.0198" x2="921.6699" y2="280.0198">
		<stop  offset="0" style="stop-color:#FFFFFF"/>
		<stop  offset="1" style="stop-color:#FFFFFF;stop-opacity:0"/>
	</linearGradient>
	
		<path style="opacity:0.35;fill:none;stroke:url(#SVGID_00000004546319158059847820000000631708950536768173_);stroke-width:4;stroke-miterlimit:10;" d="
		M44.2,558h833.2c23.3,0,42.2-18.9,42.2-42.2V44.2c0-23.3-18.9-42.2-42.2-42.2H44.2C20.9,2,2,20.9,2,44.2v471.6
		C2,539.1,20.9,558,44.2,558z"/>
	
		<linearGradient id="SVGID_00000004540609023286636420000014382320845331496622_" gradientUnits="userSpaceOnUse" x1="2" y1="150.5036" x2="922.2195" y2="150.5036">
		<stop  offset="0" style="stop-color:#FFFFFF"/>
		<stop  offset="1" style="stop-color:#FFFFFF;stop-opacity:0"/>
	</linearGradient>
	
		<rect x="2" y="149.6" style="opacity:0.15;fill:url(#SVGID_00000004540609023286636420000014382320845331496622_);" width="920.2" height="1.9"/>
	
		<linearGradient id="SVGID_00000029733891771625654550000005833427532648135349_" gradientUnits="userSpaceOnUse" x1="2" y1="297.2588" x2="922.2195" y2="297.2588">
		<stop  offset="0" style="stop-color:#FFFFFF"/>
		<stop  offset="1" style="stop-color:#FFFFFF;stop-opacity:0"/>
	</linearGradient>
	
		<rect x="2" y="296.3" style="opacity:0.15;fill:url(#SVGID_00000029733891771625654550000005833427532648135349_);" width="920.2" height="1.9"/>
	
		<linearGradient id="SVGID_00000116228754274331657190000005894093689092918960_" gradientUnits="userSpaceOnUse" x1="2" y1="423.2813" x2="922.2195" y2="423.2813">
		<stop  offset="0" style="stop-color:#FFFFFF"/>
		<stop  offset="1" style="stop-color:#FFFFFF;stop-opacity:0"/>
	</linearGradient>
	
		<rect x="2" y="422.3" style="opacity:0.15;fill:url(#SVGID_00000116228754274331657190000005894093689092918960_);" width="920.2" height="1.9"/>
	
		<linearGradient id="SVGID_00000026886209496880137520000013936077059579704453_" gradientUnits="userSpaceOnUse" x1="35.2216" y1="-24.635" x2="774.5043" y2="402.1901">
		<stop  offset="0" style="stop-color:#FFFFFF"/>
		<stop  offset="1" style="stop-color:#FFFFFF;stop-opacity:0"/>
	</linearGradient>
	<path style="opacity:0.15;fill:url(#SVGID_00000026886209496880137520000013936077059579704453_);" d="M877.4,2H44.2
		C20.9,2,2,20.9,2,44.2v378.1l917.7-271.6V44.2C919.7,20.9,900.8,2,877.4,2z"/>
	
		<linearGradient id="SVGID_00000170268183043606044420000018211093991281153429_" gradientUnits="userSpaceOnUse" x1="1.8205" y1="150.5036" x2="922.04" y2="150.5036">
		<stop  offset="0" style="stop-color:#FFFFFF"/>
		<stop  offset="1" style="stop-color:#FFFFFF;stop-opacity:0"/>
	</linearGradient>
	
		<rect x="1.8" y="149.6" style="opacity:0.15;fill:url(#SVGID_00000170268183043606044420000018211093991281153429_);" width="920.2" height="1.9"/>
	
		<linearGradient id="SVGID_00000092425354302429355420000008794569082460499594_" gradientUnits="userSpaceOnUse" x1="1.8205" y1="297.2588" x2="922.04" y2="297.2588">
		<stop  offset="0" style="stop-color:#FFFFFF"/>
		<stop  offset="1" style="stop-color:#FFFFFF;stop-opacity:0"/>
	</linearGradient>
	
		<rect x="1.8" y="296.3" style="opacity:0.15;fill:url(#SVGID_00000092425354302429355420000008794569082460499594_);" width="920.2" height="1.9"/>
	
		<linearGradient id="SVGID_00000181073080952459847470000018346622659029272248_" gradientUnits="userSpaceOnUse" x1="1.8205" y1="423.2813" x2="922.04" y2="423.2813">
		<stop  offset="0" style="stop-color:#FFFFFF"/>
		<stop  offset="1" style="stop-color:#FFFFFF;stop-opacity:0"/>
	</linearGradient>
	
		<rect x="1.8" y="422.3" style="opacity:0.15;fill:url(#SVGID_00000181073080952459847470000018346622659029272248_);" width="920.2" height="1.9"/>
</g>
</svg>
