<?xml version="1.0" encoding="utf-8"?>
<!-- Generator: Adobe Illustrator 25.4.1, SVG Export Plug-In . SVG Version: 6.00 Build 0)  -->
<svg version="1.1" id="Capa_1" xmlns="http://www.w3.org/2000/svg" xmlns:xlink="http://www.w3.org/1999/xlink" x="0px" y="0px"
	 viewBox="0 0 918.5 678.4" style="enable-background:new 0 0 918.5 678.4;" xml:space="preserve">
<style type="text/css">
	.st0{opacity:0.9;fill:#00046E;stroke:url(#SVGID_1_);stroke-miterlimit:10;enable-background:new    ;}
	.st1{opacity:0.15;fill:url(#SVGID_00000126305535484601057230000009011138322821384581_);enable-background:new    ;}
	.st2{opacity:0.15;fill:url(#SVGID_00000110435528612941964280000001107907148784154805_);enable-background:new    ;}
	
		.st3{opacity:0.15;fill:url(#SVGID_00000097492914925477449340000008669943362849900676_);stroke:url(#SVGID_00000079479460822209854240000018005418569756029088_);stroke-miterlimit:10;enable-background:new    ;}
	
		.st4{opacity:0.15;fill:url(#SVGID_00000043431886870198441460000004823443549491512501_);stroke:url(#SVGID_00000131343185772799374950000003578198432790534294_);stroke-miterlimit:10;enable-background:new    ;}
	
		.st5{opacity:0.15;fill:url(#SVGID_00000117636255174997283850000002761488837200217487_);stroke:url(#SVGID_00000174569057867716066460000002285829437433184649_);stroke-miterlimit:10;enable-background:new    ;}
	
		.st6{opacity:0.15;fill:url(#SVGID_00000091736094989475470370000003154569323274498730_);stroke:url(#SVGID_00000150092381176050977960000010544374934066329757_);stroke-miterlimit:10;enable-background:new    ;}
	
		.st7{opacity:0.15;fill:url(#SVGID_00000060710899408994540530000004314378191029354414_);stroke:url(#SVGID_00000105399815624712510990000015162021215814913467_);stroke-miterlimit:10;enable-background:new    ;}
</style>
<g>
	<linearGradient id="SVGID_1_" gradientUnits="userSpaceOnUse" x1="0" y1="339.2032" x2="918.5" y2="339.2032">
		<stop  offset="0" style="stop-color:#FFFFFF;stop-opacity:0.35"/>
		<stop  offset="1" style="stop-color:#FFFFFF;stop-opacity:0"/>
	</linearGradient>
	<path class="st0" d="M61.7,0.5C27.9,0.5,0.5,27.9,0.5,61.7V136v135.5v135.5v135.5v74.3c0,33.8,27.4,61.2,61.2,61.2h795.1
		c33.8,0,61.2-27.4,61.2-61.2v-74.3V406.9V271.5V136V61.7c0-33.8-27.4-61.2-61.2-61.2H61.7z"/>
	
		<linearGradient id="SVGID_00000068669295893608234860000012559435431484698500_" gradientUnits="userSpaceOnUse" x1="0.5" y1="339.2032" x2="918" y2="339.2032">
		<stop  offset="0" style="stop-color:#F1FF33"/>
		<stop  offset="1" style="stop-color:#F1FF33;stop-opacity:0"/>
	</linearGradient>
	<path style="opacity:0.15;fill:url(#SVGID_00000068669295893608234860000012559435431484698500_);enable-background:new    ;" d="
		M61.7,0.5C27.9,0.5,0.5,27.9,0.5,61.7V136v135.5v135.5v135.5v74.3c0,33.8,27.4,61.2,61.2,61.2h795.1c33.8,0,61.2-27.4,61.2-61.2
		v-74.3V406.9V271.5V136V61.7c0-33.8-27.4-61.2-61.2-61.2H61.7z"/>
	
		<linearGradient id="SVGID_00000088811285850222166390000013404320154185327525_" gradientUnits="userSpaceOnUse" x1="0.5" y1="271.4626" x2="918" y2="271.4626">
		<stop  offset="0" style="stop-color:#FFFFFF"/>
		<stop  offset="1" style="stop-color:#FFFFFF;stop-opacity:0"/>
	</linearGradient>
	<path style="opacity:0.15;fill:url(#SVGID_00000088811285850222166390000013404320154185327525_);enable-background:new    ;" d="
		M61.7,0.5C27.9,0.5,0.5,27.9,0.5,61.7V136v135.5v135.5v135.5l917.5-271V136V61.7c0-33.8-27.4-61.2-61.2-61.2H61.7z"/>
	<g>
		
			<linearGradient id="SVGID_00000161604520189873019100000008285492558095627911_" gradientUnits="userSpaceOnUse" x1="0.5" y1="68.2406" x2="917.9999" y2="68.2406">
			<stop  offset="0" style="stop-color:#FFFFFF"/>
			<stop  offset="1" style="stop-color:#FFFFFF;stop-opacity:0"/>
		</linearGradient>
		
			<linearGradient id="SVGID_00000176761208290927267950000014972406644055140266_" gradientUnits="userSpaceOnUse" x1="0" y1="68.2406" x2="918.4999" y2="68.2406">
			<stop  offset="0" style="stop-color:#FFFFFF"/>
			<stop  offset="1" style="stop-color:#FFFFFF;stop-opacity:0"/>
		</linearGradient>
		
			<path style="opacity:0.15;fill:url(#SVGID_00000161604520189873019100000008285492558095627911_);stroke:url(#SVGID_00000176761208290927267950000014972406644055140266_);stroke-miterlimit:10;enable-background:new    ;" d="
			M918,136H0.5V61.7c0-33.8,27.4-61.2,61.2-61.2h795.1c33.8,0,61.2,27.4,61.2,61.2V136z"/>
		
			<linearGradient id="SVGID_00000064335172330025122230000014370025181422496912_" gradientUnits="userSpaceOnUse" x1="0.5" y1="203.7219" x2="917.9999" y2="203.7219">
			<stop  offset="0" style="stop-color:#FFFFFF"/>
			<stop  offset="1" style="stop-color:#FFFFFF;stop-opacity:0"/>
		</linearGradient>
		
			<linearGradient id="SVGID_00000160180660476572948650000009233055354851319742_" gradientUnits="userSpaceOnUse" x1="0" y1="203.7219" x2="918.4999" y2="203.7219">
			<stop  offset="0" style="stop-color:#FFFFFF"/>
			<stop  offset="1" style="stop-color:#FFFFFF;stop-opacity:0"/>
		</linearGradient>
		
			<rect x="0.5" y="136" style="opacity:0.15;fill:url(#SVGID_00000064335172330025122230000014370025181422496912_);stroke:url(#SVGID_00000160180660476572948650000009233055354851319742_);stroke-miterlimit:10;enable-background:new    ;" width="917.5" height="135.5"/>
		
			<linearGradient id="SVGID_00000012437189368314358890000008123560901879596974_" gradientUnits="userSpaceOnUse" x1="0.5" y1="339.2032" x2="917.9999" y2="339.2032">
			<stop  offset="0" style="stop-color:#FFFFFF"/>
			<stop  offset="1" style="stop-color:#FFFFFF;stop-opacity:0"/>
		</linearGradient>
		
			<linearGradient id="SVGID_00000096051345289546960390000018080765579683197089_" gradientUnits="userSpaceOnUse" x1="0" y1="339.2032" x2="918.4999" y2="339.2032">
			<stop  offset="0" style="stop-color:#FFFFFF"/>
			<stop  offset="1" style="stop-color:#FFFFFF;stop-opacity:0"/>
		</linearGradient>
		
			<rect x="0.5" y="271.5" style="opacity:0.15;fill:url(#SVGID_00000012437189368314358890000008123560901879596974_);stroke:url(#SVGID_00000096051345289546960390000018080765579683197089_);stroke-miterlimit:10;enable-background:new    ;" width="917.5" height="135.5"/>
		
			<linearGradient id="SVGID_00000155853336157828614100000010566259992176247690_" gradientUnits="userSpaceOnUse" x1="0.5" y1="474.6844" x2="917.9999" y2="474.6844">
			<stop  offset="0" style="stop-color:#FFFFFF"/>
			<stop  offset="1" style="stop-color:#FFFFFF;stop-opacity:0"/>
		</linearGradient>
		
			<linearGradient id="SVGID_00000071523924207008504260000014416889049435629206_" gradientUnits="userSpaceOnUse" x1="0" y1="474.6844" x2="918.4999" y2="474.6844">
			<stop  offset="0" style="stop-color:#FFFFFF"/>
			<stop  offset="1" style="stop-color:#FFFFFF;stop-opacity:0"/>
		</linearGradient>
		
			<rect x="0.5" y="406.9" style="opacity:0.15;fill:url(#SVGID_00000155853336157828614100000010566259992176247690_);stroke:url(#SVGID_00000071523924207008504260000014416889049435629206_);stroke-miterlimit:10;enable-background:new    ;" width="917.5" height="135.5"/>
		
			<linearGradient id="SVGID_00000046305124296312217960000007056838707033198745_" gradientUnits="userSpaceOnUse" x1="0.5" y1="610.1657" x2="917.9999" y2="610.1657">
			<stop  offset="0" style="stop-color:#FFFFFF"/>
			<stop  offset="1" style="stop-color:#FFFFFF;stop-opacity:0"/>
		</linearGradient>
		
			<linearGradient id="SVGID_00000026854203555529642370000006368033550595378106_" gradientUnits="userSpaceOnUse" x1="0" y1="610.1657" x2="918.4999" y2="610.1657">
			<stop  offset="0" style="stop-color:#FFFFFF"/>
			<stop  offset="1" style="stop-color:#FFFFFF;stop-opacity:0"/>
		</linearGradient>
		
			<path style="opacity:0.15;fill:url(#SVGID_00000046305124296312217960000007056838707033198745_);stroke:url(#SVGID_00000026854203555529642370000006368033550595378106_);stroke-miterlimit:10;enable-background:new    ;" d="
			M856.8,677.9H61.7c-33.8,0-61.2-27.4-61.2-61.2v-74.3H918v74.3C918,650.5,890.6,677.9,856.8,677.9z"/>
	</g>
</g>
</svg>
