<?xml version="1.0" encoding="utf-8"?>
<!-- Generator: Adobe Illustrator 18.0.0, SVG Export Plug-In . SVG Version: 6.00 Build 0)  -->
<!DOCTYPE svg PUBLIC "-//W3C//DTD SVG 1.1//EN" "http://www.w3.org/Graphics/SVG/1.1/DTD/svg11.dtd">
<svg version="1.1" id="Capa_1" xmlns="http://www.w3.org/2000/svg" xmlns:xlink="http://www.w3.org/1999/xlink" x="0px" y="0px"
	 viewBox="0 0 471.5 581.6" enable-background="new 0 0 471.5 581.6" xml:space="preserve">
<g>
	<defs>
		<rect id="SVGID_1_" y="0" width="471.5" height="581.6"/>
	</defs>
	<clipPath id="SVGID_2_">
		<use xlink:href="#SVGID_1_"  overflow="visible"/>
	</clipPath>
	<g clip-path="url(#SVGID_2_)">
		<g>
			<linearGradient id="SVGID_3_" gradientUnits="userSpaceOnUse" x1="206.0841" y1="166.6488" x2="145.2192" y2="393.7995">
				<stop  offset="0" style="stop-color:#DF6363"/>
				<stop  offset="1" style="stop-color:#030A72"/>
			</linearGradient>
			<path fill="url(#SVGID_3_)" d="M125.1,386.4c-14.8,0-28.8-5.8-39.3-16.3c-10.5-10.5-16.3-24.5-16.3-39.3
				c0-14.8,5.8-28.8,16.3-39.3L187,190.3c10.5-10.5,24.5-16.3,39.3-16.3s28.8,5.8,39.3,16.3c21.7,21.7,21.7,56.9,0,78.6L164.4,370.1
				C153.9,380.6,139.9,386.4,125.1,386.4z M226.3,176.8c-14.1,0-27.4,5.5-37.3,15.5L87.7,293.5c-10,10-15.5,23.2-15.5,37.3
				c0,14.1,5.5,27.4,15.5,37.3c10,10,23.2,15.5,37.3,15.5s27.4-5.5,37.3-15.5L263.6,267c20.6-20.6,20.6-54.1,0-74.7
				C253.6,182.3,240.4,176.8,226.3,176.8z"/>
		</g>
		<g opacity="0.26">
			<linearGradient id="SVGID_4_" gradientUnits="userSpaceOnUse" x1="185.588" y1="361.8832" x2="124.7321" y2="589.0004">
				<stop  offset="0" style="stop-color:#DF6363"/>
				<stop  offset="1" style="stop-color:#030A72"/>
			</linearGradient>
			<path fill="url(#SVGID_4_)" d="M104.6,581.6c-14.2,0-28.5-5.4-39.3-16.3C54.8,554.9,49,540.9,49,526.1c0-14.8,5.8-28.8,16.3-39.3
				l101.2-101.2c10.5-10.5,24.5-16.3,39.3-16.3c14.8,0,28.8,5.8,39.3,16.3c21.7,21.7,21.7,56.9,0,78.6l-1-1l1,1L143.9,565.4
				C133,576.2,118.8,581.6,104.6,581.6z M205.8,372.1c-14.1,0-27.4,5.5-37.3,15.5L67.2,488.7c-10,10-15.5,23.2-15.5,37.3
				c0,14.1,5.5,27.4,15.5,37.3c10,10,23.2,15.5,37.3,15.5s27.4-5.5,37.3-15.5l101.2-101.2c20.6-20.6,20.6-54.1,0-74.7
				C233.1,377.5,219.9,372.1,205.8,372.1z"/>
		</g>
		<g opacity="0.15">
			<linearGradient id="SVGID_5_" gradientUnits="userSpaceOnUse" x1="395.8036" y1="328.5332" x2="334.9388" y2="555.6839">
				<stop  offset="0" style="stop-color:#DF6363"/>
				<stop  offset="1" style="stop-color:#030A72"/>
			</linearGradient>
			<path fill="url(#SVGID_5_)" d="M314.8,548.3c-14.8,0-28.8-5.8-39.3-16.3c-21.7-21.7-21.7-56.9,0-78.6l101.2-101.2
				c10.5-10.5,24.5-16.3,39.3-16.3c14.8,0,28.8,5.8,39.3,16.3c10.5,10.5,16.3,24.5,16.3,39.3c0,14.8-5.8,28.8-16.3,39.3l-1-1l1,1
				L354.1,532C343.6,542.5,329.6,548.3,314.8,548.3z M416,338.7c-14.1,0-27.4,5.5-37.3,15.5L277.4,455.4
				c-20.6,20.6-20.6,54.1,0,74.7c10,10,23.2,15.5,37.3,15.5s27.4-5.5,37.3-15.5l101.2-101.2c10-10,15.5-23.2,15.5-37.3
				c0-14.1-5.5-27.4-15.5-37.3C443.3,344.2,430.1,338.7,416,338.7z"/>
		</g>
		<g opacity="0.33">
			<linearGradient id="SVGID_6_" gradientUnits="userSpaceOnUse" x1="206.0839" y1="-7.3947" x2="145.219" y2="219.7561">
				<stop  offset="0" style="stop-color:#DF6363"/>
				<stop  offset="1" style="stop-color:#030A72"/>
			</linearGradient>
			<path fill="url(#SVGID_6_)" d="M125.1,212.4c-14.8,0-28.8-5.8-39.3-16.3c-10.5-10.5-16.3-24.5-16.3-39.3
				c0-14.8,5.8-28.8,16.3-39.3L187,16.3C197.5,5.8,211.4,0,226.3,0s28.8,5.8,39.3,16.3c21.7,21.7,21.7,56.9,0,78.6L164.4,196.1
				C153.9,206.6,139.9,212.4,125.1,212.4z M226.3,2.8c-14.1,0-27.4,5.5-37.3,15.5L87.7,119.5c-10,10-15.5,23.2-15.5,37.3
				c0,14.1,5.5,27.4,15.5,37.3c10,10,23.2,15.5,37.3,15.5s27.4-5.5,37.3-15.5L263.6,92.9c20.6-20.6,20.6-54.1,0-74.7
				C253.6,8.3,240.4,2.8,226.3,2.8z"/>
		</g>
		<g opacity="0.16">
			<linearGradient id="SVGID_7_" gradientUnits="userSpaceOnUse" x1="17.5569" y1="-3.6553" x2="-43.2989" y2="223.4616">
				<stop  offset="0" style="stop-color:#DF6363"/>
				<stop  offset="1" style="stop-color:#030A72"/>
			</linearGradient>
			<path fill="url(#SVGID_7_)" d="M-63.5,216.1c-14.8,0-28.8-5.8-39.3-16.3c-10.5-10.5-16.3-24.5-16.3-39.3
				c0-14.8,5.8-28.8,16.3-39.3L-1.5,20C20.1-1.7,55.4-1.7,77.1,20c21.7,21.7,21.7,56.9,0,78.6L-24.1,199.8
				C-34.6,210.3-48.6,216.1-63.5,216.1z M37.8,6.5c-13.5,0-27,5.1-37.3,15.4l-101.2,101.2c-10,10-15.5,23.2-15.5,37.3
				c0,14.1,5.5,27.4,15.5,37.3c10,10,23.2,15.5,37.3,15.5c14.1,0,27.4-5.5,37.3-15.5L75.1,96.6C95.7,76,95.7,42.5,75.1,22
				C64.8,11.7,51.3,6.5,37.8,6.5z"/>
		</g>
		<g opacity="0.21">
			<linearGradient id="SVGID_8_" gradientUnits="userSpaceOnUse" x1="19.5682" y1="180.2063" x2="-41.2967" y2="407.357">
				<stop  offset="0" style="stop-color:#DF6363"/>
				<stop  offset="1" style="stop-color:#030A72"/>
			</linearGradient>
			<path fill="url(#SVGID_8_)" d="M-61.5,400c-14.8,0-28.8-5.8-39.3-16.3c-21.7-21.7-21.7-56.9,0-78.6L0.4,203.9
				c10.5-10.5,24.5-16.3,39.3-16.3c14.8,0,28.8,5.8,39.3,16.3c10.5,10.5,16.3,24.5,16.3,39.3c0,14.8-5.8,28.8-16.3,39.3L-22.2,383.7
				C-32.7,394.2-46.6,400-61.5,400z M39.7,190.4c-13.5,0-27,5.1-37.3,15.4L-98.8,307c-20.6,20.6-20.6,54.1,0,74.7
				c10,10,23.2,15.5,37.3,15.5c14.1,0,27.4-5.5,37.3-15.5L77.1,280.5c20.6-20.6,20.6-54.1,0-74.7C66.8,195.5,53.2,190.4,39.7,190.4z
				"/>
		</g>
		<g opacity="0.44">
			<linearGradient id="SVGID_9_" gradientUnits="userSpaceOnUse" x1="386.7191" y1="155.566" x2="325.8632" y2="382.6831">
				<stop  offset="0" style="stop-color:#DF6363"/>
				<stop  offset="1" style="stop-color:#030A72"/>
			</linearGradient>
			<path fill="url(#SVGID_9_)" d="M305.7,375.3c-14.8,0-28.8-5.8-39.3-16.3c-10.5-10.5-16.3-24.5-16.3-39.3
				c0-14.8,5.8-28.8,16.3-39.3l101.2-101.2c21.7-21.7,56.9-21.7,78.6,0c21.7,21.7,21.7,56.9,0,78.6L345,359
				C334.5,369.5,320.6,375.3,305.7,375.3z M406.9,165.7c-13.5,0-27,5.1-37.3,15.4L268.4,282.4c-10,10-15.5,23.2-15.5,37.3
				c0,14.1,5.5,27.4,15.5,37.3c10,10,23.2,15.5,37.3,15.5c14.1,0,27.4-5.5,37.3-15.5l101.2-101.2c20.6-20.6,20.6-54.1,0-74.7
				C434,170.9,420.4,165.7,406.9,165.7z"/>
		</g>
	</g>
</g>
</svg>
