<?xml version="1.0" encoding="utf-8"?>
<!-- Generator: Adobe Illustrator 18.0.0, SVG Export Plug-In . SVG Version: 6.00 Build 0)  -->
<!DOCTYPE svg PUBLIC "-//W3C//DTD SVG 1.1//EN" "http://www.w3.org/Graphics/SVG/1.1/DTD/svg11.dtd">
<svg version="1.1" id="Capa_1" xmlns="http://www.w3.org/2000/svg" xmlns:xlink="http://www.w3.org/1999/xlink" x="0px" y="0px"
	 viewBox="0 0 33.4 33.4" enable-background="new 0 0 33.4 33.4" xml:space="preserve">
<g>
	<g>
		<path fill="#DF6363" d="M33.4,16.7c0,7.9-5.7,14.8-13.5,16.3c-4.1,0.8-7.9,0.1-11.6-1.9C8.1,31,7.9,31,7.6,31
			c-2.2,0.8-4.5,1.5-6.7,2.2c-0.3,0.1-0.5,0.1-0.7-0.1C0,33,0,32.7,0.1,32.4c0.8-2.2,1.5-4.5,2.3-6.7c0.1-0.3,0.1-0.4-0.1-0.7
			c-1.8-3.1-2.6-6.5-2.2-10.1C1,7.9,5.5,2.5,12.3,0.6c5.3-1.5,10.2-0.4,14.6,2.9c3.5,2.7,5.6,6.4,6.3,10.8
			C33.3,15.1,33.3,15.9,33.4,16.7z M1.5,31.9c0.1,0,0.2-0.1,0.3-0.1c2-0.7,3.9-1.3,5.9-2c0.3-0.1,0.6-0.1,0.9,0.1
			c3.9,2.3,8.1,2.9,12.5,1.7c6.2-1.8,10.9-7.7,11.1-14.2c0.1-3.6-0.8-6.9-2.9-9.7c-4-5.2-9.2-7.3-15.7-6.1C9.2,2.3,5.8,4.8,3.4,8.6
			c-1.9,3.1-2.6,6.4-2.2,10c0.3,2.2,1,4.3,2.2,6.2c0.2,0.3,0.2,0.5,0.1,0.8c-0.2,0.4-0.3,0.9-0.4,1.3C2.6,28.6,2.1,30.2,1.5,31.9z"
			/>
		<path fill="#DF6363" d="M17.6,19.9c0.2-0.4,0.5-0.5,0.8-0.4c1.8,0,3.7,0,5.5,0c0.5,0,0.7,0.1,0.8,0.6c0.3,1.2,0.7,2.4,1,3.6
			c0.2,0.6,0.1,0.8-0.5,1c-7.2,2.5-15.1-2.1-16.4-9.6c-0.4-2.2-0.2-4.3,0.5-6.4C9.5,8.1,9.7,8,10.2,8.2c1.2,0.3,2.4,0.7,3.7,1
			c0.5,0.1,0.6,0.3,0.6,0.8c0,1.9,0,3.8,0,5.6c0,0.3-0.1,0.6-0.4,0.8C14.9,17.9,16,19.1,17.6,19.9z M23.8,20.6c-0.1,0-0.1,0-0.1,0
			c-1.6,0-3.2,0-4.8,0c-0.1,0-0.2,0.1-0.3,0.2c-0.2,0.4-0.4,0.5-0.8,0.4c-2.4-1-4-2.7-5-5c-0.1-0.3,0-0.7,0.3-0.8
			c0.3-0.1,0.3-0.2,0.3-0.5c0-1.2,0-2.5,0-3.7c0-0.3,0.1-0.8-0.1-1c-0.2-0.2-0.6-0.2-1-0.3c-0.7-0.2-1.3-0.4-2-0.5
			c-1.2,3.6-0.4,8.4,3.1,11.7c3.4,3.2,8.1,3.6,11.2,2.5C24.3,22.6,24,21.6,23.8,20.6z"/>
	</g>
</g>
</svg>
