<?xml version="1.0" encoding="utf-8"?>
<!-- Generator: Adobe Illustrator 18.0.0, SVG Export Plug-In . SVG Version: 6.00 Build 0)  -->
<!DOCTYPE svg PUBLIC "-//W3C//DTD SVG 1.1//EN" "http://www.w3.org/Graphics/SVG/1.1/DTD/svg11.dtd">
<svg version="1.1" id="Capa_1" xmlns="http://www.w3.org/2000/svg" xmlns:xlink="http://www.w3.org/1999/xlink" x="0px" y="0px"
	 viewBox="0 211.2 992.1 994.9" enable-background="new 0 211.2 992.1 994.9" xml:space="preserve">
<g>
	<g>
		<path fill="#F1FF33" d="M992.1,708.7c0,234.7-169.3,439.6-401,484.2c-121.8,23.8-234.7,3-344.6-56.4c-5.9-3-11.9-3-20.8-3
			c-65.3,23.8-133.7,44.6-199,65.3c-8.9,3-14.9,3-20.8-3c-5.9-3-5.9-11.9-3-20.8c23.8-65.3,44.6-133.7,68.3-199c3-8.9,3-11.9-3-20.8
			C14.9,863.1-8.9,762.1,3,655.2c26.7-207.9,160.4-368.3,362.4-424.8c157.4-44.6,303-11.9,433.7,86.1
			c104,80.2,166.3,190.1,187.1,320.8C989.2,661.1,989.2,684.9,992.1,708.7z M44.6,1160.2c3,0,5.9-3,8.9-3
			c59.4-20.8,115.8-38.6,175.3-59.4c8.9-3,17.8-3,26.7,3c115.8,68.3,240.6,86.1,371.3,50.5c184.2-53.5,323.8-228.7,329.7-421.8
			c3-106.9-23.8-205-86.1-288.1C751.5,286.9,597.1,224.5,404,260.1c-130.7,20.8-231.7,95.1-303,207.9
			c-56.4,92.1-77.2,190.1-65.3,297c8.9,65.3,29.7,127.7,65.3,184.2c5.9,8.9,5.9,14.9,3,23.8c-5.9,11.9-8.9,26.7-11.9,38.6
			C77.2,1062.1,62.4,1109.7,44.6,1160.2z"/>
		<path fill="#F1FF33" d="M522.8,803.7c5.9-11.9,14.9-14.9,23.8-11.9c53.5,0,109.9,0,163.4,0c14.9,0,20.8,3,23.8,17.8
			c8.9,35.6,20.8,71.3,29.7,106.9c5.9,17.8,3,23.8-14.9,29.7c-213.9,74.3-448.5-62.4-487.2-285.2c-11.9-65.3-5.9-127.7,14.9-190.1
			c5.9-17.8,11.9-20.8,26.7-14.9c35.6,8.9,71.3,20.8,109.9,29.7c14.9,3,17.8,8.9,17.8,23.8c0,56.4,0,112.9,0,166.3
			c0,8.9-3,17.8-11.9,23.8C442.6,744.3,475.3,780,522.8,803.7z M707,824.5c-3,0-3,0-3,0c-47.5,0-95.1,0-142.6,0c-3,0-5.9,3-8.9,5.9
			c-5.9,11.9-11.9,14.9-23.8,11.9c-71.3-29.7-118.8-80.2-148.5-148.5c-3-8.9,0-20.8,8.9-23.8s8.9-5.9,8.9-14.9
			c0-35.6,0-74.3,0-109.9c0-8.9,3-23.8-3-29.7c-5.9-5.9-17.8-5.9-29.7-8.9c-20.8-5.9-38.6-11.9-59.4-14.9
			c-35.6,106.9-11.9,249.5,92.1,347.5c101,95.1,240.6,106.9,332.7,74.3C721.8,883.9,712.9,854.2,707,824.5z"/>
	</g>
</g>
</svg>
