<?xml version="1.0" encoding="utf-8"?>
<!-- Generator: Adobe Illustrator 25.4.1, SVG Export Plug-In . SVG Version: 6.00 Build 0)  -->
<svg version="1.1" id="Capa_1" xmlns="http://www.w3.org/2000/svg" xmlns:xlink="http://www.w3.org/1999/xlink" x="0px" y="0px"
	 viewBox="0 0 150.8 111.3" style="enable-background:new 0 0 150.8 111.3;" xml:space="preserve">
<style type="text/css">
	.st0{fill:#341677;}
</style>
<g>
	<path class="st0" d="M0,31.5c3,1.8,6.1,3.6,9.1,5.4C29.3,49.3,49.6,61.6,69.9,74c3.7,2.3,7.3,2.3,11,0
		c22.7-13.9,45.5-27.7,68.2-41.6c0.5-0.3,1-0.6,1.7-1c0,0.6,0,1,0,1.4c0,18.5,0,37,0,55.5c0,13.1-9.6,22.8-22.7,22.8
		c-35.1,0-70.2,0-105.3,0c-11.8,0-20.5-7.5-22.5-19.2c0-0.2-0.2-0.3-0.2-0.5C0,71.5,0,51.5,0,31.5z"/>
	<path class="st0" d="M0.7,17.4C2.2,8.8,10.5,1.2,19.3,0.3C20.9,0.1,22.5,0,24.1,0c34.5,0,69,0,103.5,0c9.8,0,17,4.5,21.2,13.4
		c1.8,3.8,1.7,3.8-1.8,5.9c-23.4,14.3-46.9,28.6-70.3,43c-1,0.6-1.7,0.7-2.7,0C50,47.6,26,32.9,1.9,18.2C1.5,18,1.1,17.7,0.7,17.4z"
		/>
</g>
</svg>
