<?xml version="1.0" encoding="utf-8"?>
<!-- Generator: Adobe Illustrator 25.4.1, SVG Export Plug-In . SVG Version: 6.00 Build 0)  -->
<svg version="1.1" id="Capa_1" xmlns="http://www.w3.org/2000/svg" xmlns:xlink="http://www.w3.org/1999/xlink" x="0px" y="0px"
	 viewBox="0 0 114.1 141.8" style="enable-background:new 0 0 114.1 141.8;" xml:space="preserve">
<style type="text/css">
	.st0{fill:#341677;}
</style>
<g>
	<path class="st0" d="M46.4,15.4c0-1.7,0-3.3,0-4.9C46.5,4.6,51.1,0.1,56.9,0c5.7-0.1,10.6,4.6,10.8,10.3c0.1,1.7,0,3.3,0,4.6
		c3.8,1.8,7.6,3.2,10.9,5.3c9.4,6,14.9,15,18.3,25.4c2,6.2,2.9,12.5,2.9,19c0,9.7,0,19.3,0,29c0,4.4,1.5,8.1,4.6,11.2
		c2.6,2.5,5.1,5.1,7.7,7.7c1.9,1.9,2.4,3.9,1.5,6c-1,2.2-2.9,3.1-5.2,3.1c-34.3,0-68.6,0-102.9,0c-2.3,0-4.1-0.9-5.1-3.1
		c-0.9-2-0.4-4.1,1.4-5.9c2.7-2.7,5.4-5.4,8.1-8.1c2.9-2.9,4.3-6.4,4.3-10.5c0-9.9,0-19.8,0-29.7c0-9,1.9-17.7,5.7-25.9
		C24.7,28.6,32.9,19,46.4,15.4z"/>
	<path class="st0" d="M71.2,127.7c0.3,7.7-6.4,14.2-14.3,14.1c-7.8-0.1-14.4-6.8-14-14.1C52.3,127.7,61.7,127.7,71.2,127.7z"/>
</g>
</svg>
