<?xml version="1.0" encoding="utf-8"?>
<!-- Generator: Adobe Illustrator 18.0.0, SVG Export Plug-In . SVG Version: 6.00 Build 0)  -->
<!DOCTYPE svg PUBLIC "-//W3C//DTD SVG 1.1//EN" "http://www.w3.org/Graphics/SVG/1.1/DTD/svg11.dtd">
<svg version="1.1" id="Capa_1" xmlns="http://www.w3.org/2000/svg" xmlns:xlink="http://www.w3.org/1999/xlink" x="0px" y="0px"
	 viewBox="0 636 992.1 145.2" enable-background="new 0 636 992.1 145.2" xml:space="preserve">
<g>
	<g>
		<g>
			<path fill="#F1FF33" d="M911.1,703.8c6.3,3.3,14.2,6.6,23.8,9.7c10.2,3.3,18.5,6.2,25.1,8.8c6.6,2.6,11.4,5.6,14.6,8.9
				c2.8,2.9,4.3,6.7,4.6,11.2H992c-0.3-6.6-1.8-12-4.7-16.3c-3.3-4.7-8.3-8.7-14.8-12c-6.7-3.3-15.1-6.6-25.2-9.7
				c-9.6-3.2-17.5-6-23.6-8.7c-6.2-2.6-10.6-5.6-13.4-9.2c-2.9-3.4-4.3-7.9-4.3-13.4c0-8.4,3.2-14.6,9.6-18.5
				c6.4-3.9,14.6-5.9,24.7-5.9c10.1,0,18.3,2.2,24.6,6.6c6.3,4.5,9.8,10,10.6,16.8c0.3,1.6,0.9,2.8,2,3.3c1.1,0.5,1.8,0.8,2.5,0.8
				h4.1c1.4,0,2.6-0.4,3.3-1.3s1.1-1.8,1.1-2.8c-0.1-3.9-1.2-8-3.3-12.1c-2.1-4.2-5-8-8.9-11.6c-3.9-3.5-8.9-6.4-14.8-8.7
				c-6-2.2-13-3.3-21-3.3c-10.1,0-18.5,1.6-25.6,4.9c-7,3.3-12.3,7.6-16,13.1c-3.7,5.5-5.5,11.7-5.5,18.6c0,7.5,1.4,13.5,4.3,18.4
				C900.3,696.4,904.8,700.4,911.1,703.8z"/>
			<path fill="#F1FF33" d="M12.9,742.4v-76l38.6,76h17.7l38.6-76v76h12.9v-99c0-1.4-0.4-2.6-1.2-3.4s-2-1.2-3.4-1.2h-4.9
				c-1.3,0-2.4,0.4-2.9,1.1c-0.7,0.7-1.1,1.2-1.3,1.6l-46.8,90l-46.2-90.1c-0.1-0.4-0.5-0.9-1.2-1.6s-1.7-1.1-3.2-1.1h-5
				c-1.3,0-2.5,0.4-3.4,1.2c-0.9,0.9-1.3,2-1.3,3.5v99H12.9z"/>
			<path fill="#F1FF33" d="M779.5,742.4h-12.6c-0.1,0-0.1,0-0.1-0.1V639.7c0-0.7,0.5-1.2,1.2-1.2h10.5c0.7,0,1.2,0.5,1.2,1.2
				L779.5,742.4C779.7,742.4,779.5,742.4,779.5,742.4z"/>
			<path fill="#F1FF33" d="M687.3,742.4h-12.6c-0.1,0-0.1,0-0.1-0.1V639.7c0-0.7,0.5-1.2,1.2-1.2h10.5c0.7,0,1.2,0.5,1.2,1.2
				L687.3,742.4C687.5,742.4,687.5,742.4,687.3,742.4z"/>
		</g>
		<path fill="#F1FF33" d="M236.2,742.4h13.4c-1.3-4.9-2-10.2-2.2-16.4c-0.1-6.2-0.3-11.6-0.3-16.2c0-4.6,0.1-10,0.3-16.2
			c0.4-10.6,2.4-19.3,6-26c3.7-6.7,8.4-11.6,14.6-14.6c6-3,12.9-4.6,20.6-4.6c7.7,0,14.7,1.6,20.7,4.6s10.9,7.9,14.6,14.6
			c3.5,6.7,5.5,15.4,5.8,26c0.3,6.2,0.4,11.6,0.4,16.2c0,4.6-0.1,10-0.4,16.2c-0.3,6.2-0.9,11.6-2.2,16.4H341
			c0.9-4.7,1.4-9.8,1.6-15.4c0.3-6.2,0.4-11.8,0.4-17.2s-0.1-11-0.4-17.2c-0.3-12.7-2.8-23.2-7.2-31.6c-4.6-8.4-10.9-14.6-18.8-18.6
			c-8.1-4.1-17.5-6.2-28.1-6.2c-10.6,0-20,2.1-28,6.2c-8,4.1-14.2,10.4-18.6,18.6c-4.5,8.4-7,18.9-7.4,31.6
			c-0.1,6.2-0.3,11.8-0.3,17.2c0,5.4,0.1,11,0.3,17.2C234.8,732.6,235.3,737.7,236.2,742.4z"/>
		<path fill="#F1FF33" d="M461.1,781.1c-1.3,0-2.5-0.4-3.3-1.2s-1.2-1.8-1.2-3.3V643.3c0-1.4,0.4-2.6,1.2-3.4
			c0.8-0.8,1.8-1.2,3.3-1.2h43.3c14.4,0,25.6,2.1,33.9,6.3c8.1,4.2,13.9,10.4,17.5,18.6c3.4,8.3,5.3,18.3,5.4,30.1
			c0.1,6.2,0.3,11.6,0.3,16.2c0,4.6-0.1,10.1-0.3,16.2c-0.3,12.5-2.1,22.8-5.5,31c-3.4,8.1-9.1,14.2-17.1,18.3c-8,4.1-19,6-33,6
			h-44.5V781.1z M469.5,768.9h35.1c10.9,0,19.4-1.4,25.7-4.3c6.3-2.9,10.9-7.6,13.7-14.1c2.8-6.4,4.2-15,4.3-25.6
			c0.1-4.1,0.3-7.6,0.3-10.6s0-6,0-9.1s-0.1-6.6-0.3-10.6c-0.3-15-3.7-26-10.4-33.1c-6.7-7.1-18.1-10.6-34.4-10.6h-34V768.9z"/>
	</g>
</g>
</svg>
