<?xml version="1.0" encoding="utf-8"?>
<!-- Generator: Adobe Illustrator 18.0.0, SVG Export Plug-In . SVG Version: 6.00 Build 0)  -->
<!DOCTYPE svg PUBLIC "-//W3C//DTD SVG 1.1//EN" "http://www.w3.org/Graphics/SVG/1.1/DTD/svg11.dtd">
<svg version="1.1" id="Capa_1" xmlns="http://www.w3.org/2000/svg" xmlns:xlink="http://www.w3.org/1999/xlink" x="0px" y="0px"
	 viewBox="0 0 755.5 110.4" enable-background="new 0 0 755.5 110.4" xml:space="preserve">
<g>
	<g>
		<g>
			<path fill="#DF6363" d="M693.8,51.5c4.8,2.5,10.8,5,18.1,7.4c7.8,2.5,14.1,4.7,19.1,6.7c5,2,8.7,4.3,11.1,6.8
				c2.1,2.2,3.3,5.1,3.5,8.5h9.8c-0.2-5-1.4-9.1-3.6-12.4c-2.5-3.6-6.3-6.6-11.3-9.1c-5.1-2.5-11.5-5-19.2-7.4
				c-7.3-2.4-13.3-4.6-18-6.6c-4.7-2-8.1-4.3-10.2-7c-2.2-2.6-3.3-6-3.3-10.2c0-6.4,2.4-11.1,7.3-14.1c4.9-3,11.1-4.5,18.8-4.5
				c7.7,0,13.9,1.7,18.7,5c4.8,3.4,7.5,7.6,8.1,12.8c0.2,1.2,0.7,2.1,1.5,2.5c0.8,0.4,1.4,0.6,1.9,0.6h3.1c1.1,0,2-0.3,2.5-1
				c0.5-0.7,0.8-1.4,0.8-2.1c-0.1-3-0.9-6.1-2.5-9.2c-1.6-3.2-3.8-6.1-6.8-8.8c-3-2.7-6.8-4.9-11.3-6.6c-4.6-1.7-9.9-2.5-16-2.5
				c-7.7,0-14.1,1.2-19.5,3.7c-5.3,2.5-9.4,5.8-12.2,10c-2.8,4.2-4.2,8.9-4.2,14.2c0,5.7,1.1,10.3,3.3,14
				C685.6,45.9,689,48.9,693.8,51.5z"/>
			<path fill="#DF6363" d="M9.8,80.9V23l29.4,57.9h13.5L82.1,23v57.9h9.8V5.5c0-1.1-0.3-2-0.9-2.6c-0.6-0.6-1.5-0.9-2.6-0.9h-3.7
				c-1,0-1.8,0.3-2.2,0.8c-0.5,0.5-0.8,0.9-1,1.2L45.9,72.5L10.7,3.9c-0.1-0.3-0.4-0.7-0.9-1.2C9.3,2.2,8.5,1.9,7.4,1.9H3.6
				c-1,0-1.9,0.3-2.6,0.9C0.3,3.5,0,4.3,0,5.5v75.4H9.8z"/>
			<path fill="#DF6363" d="M593.6,80.9H584c-0.1,0-0.1,0-0.1-0.1V2.7c0-0.5,0.4-0.9,0.9-0.9h8c0.5,0,0.9,0.4,0.9,0.9L593.6,80.9
				C593.7,80.9,593.6,80.9,593.6,80.9z"/>
			<path fill="#DF6363" d="M523.4,80.9h-9.6c-0.1,0-0.1,0-0.1-0.1V2.7c0-0.5,0.4-0.9,0.9-0.9h8c0.5,0,0.9,0.4,0.9,0.9L523.4,80.9
				C523.5,80.9,523.5,80.9,523.4,80.9z"/>
		</g>
		<path fill="#DF6363" d="M179.9,80.9h10.2c-1-3.7-1.5-7.8-1.7-12.5c-0.1-4.7-0.2-8.8-0.2-12.3c0-3.5,0.1-7.6,0.2-12.3
			c0.3-8.1,1.8-14.7,4.6-19.8c2.8-5.1,6.4-8.8,11.1-11.1c4.6-2.3,9.8-3.5,15.7-3.5c5.9,0,11.2,1.2,15.8,3.5c4.6,2.3,8.3,6,11.1,11.1
			c2.7,5.1,4.2,11.7,4.4,19.8c0.2,4.7,0.3,8.8,0.3,12.3c0,3.5-0.1,7.6-0.3,12.3c-0.2,4.7-0.7,8.8-1.7,12.5h10.3
			c0.7-3.6,1.1-7.5,1.2-11.7c0.2-4.7,0.3-9,0.3-13.1s-0.1-8.4-0.3-13.1c-0.2-9.7-2.1-17.7-5.5-24.1c-3.5-6.4-8.3-11.1-14.3-14.2
			C234.9,1.6,227.8,0,219.7,0c-8.1,0-15.2,1.6-21.3,4.7c-6.1,3.1-10.8,7.9-14.2,14.2c-3.4,6.4-5.3,14.4-5.6,24.1
			c-0.1,4.7-0.2,9-0.2,13.1s0.1,8.4,0.2,13.1C178.8,73.4,179.2,77.3,179.9,80.9z"/>
		<path fill="#DF6363" d="M351.1,110.4c-1,0-1.9-0.3-2.5-0.9c-0.6-0.6-0.9-1.4-0.9-2.5V5.4c0-1.1,0.3-2,0.9-2.6
			c0.6-0.6,1.4-0.9,2.5-0.9h33c11,0,19.5,1.6,25.8,4.8c6.2,3.2,10.6,7.9,13.3,14.2c2.6,6.3,4,13.9,4.1,22.9
			c0.1,4.7,0.2,8.8,0.2,12.3s-0.1,7.7-0.2,12.3c-0.2,9.5-1.6,17.4-4.2,23.6c-2.6,6.2-6.9,10.8-13,13.9c-6.1,3.1-14.5,4.6-25.1,4.6
			H351.1z M357.5,101.1h26.7c8.3,0,14.8-1.1,19.6-3.3c4.8-2.2,8.3-5.8,10.4-10.7c2.1-4.9,3.2-11.4,3.3-19.5c0.1-3.1,0.2-5.8,0.2-8.1
			c0-2.3,0-4.6,0-6.9c0-2.3-0.1-5-0.2-8.1c-0.2-11.4-2.8-19.8-7.9-25.2c-5.1-5.4-13.8-8.1-26.2-8.1h-25.9V101.1z"/>
	</g>
</g>
</svg>
