<?xml version="1.0" encoding="utf-8"?>
<!-- Generator: Adobe Illustrator 18.0.0, SVG Export Plug-In . SVG Version: 6.00 Build 0)  -->
<!DOCTYPE svg PUBLIC "-//W3C//DTD SVG 1.1//EN" "http://www.w3.org/Graphics/SVG/1.1/DTD/svg11.dtd">
<svg version="1.1" id="Capa_1" xmlns="http://www.w3.org/2000/svg" xmlns:xlink="http://www.w3.org/1999/xlink" x="0px" y="0px"
	 viewBox="0 0 271.5 39.7" enable-background="new 0 0 271.5 39.7" xml:space="preserve">
<g>
	<path fill="#F4FF4E" d="M249.4,18.5c1.7,0.9,3.9,1.8,6.5,2.6c2.8,0.9,5.1,1.7,6.9,2.4c1.8,0.7,3.1,1.5,4,2.5
		c0.8,0.8,1.2,1.8,1.3,3.1h3.5c-0.1-1.8-0.5-3.3-1.3-4.4c-0.9-1.3-2.3-2.4-4.1-3.3c-1.8-0.9-4.1-1.8-6.9-2.7
		c-2.6-0.9-4.8-1.6-6.5-2.4c-1.7-0.7-2.9-1.6-3.7-2.5c-0.8-0.9-1.2-2.2-1.2-3.7c0-2.3,0.9-4,2.6-5.1c1.7-1.1,4-1.6,6.7-1.6
		c2.8,0,5,0.6,6.7,1.8c1.7,1.2,2.7,2.7,2.9,4.6c0.1,0.4,0.3,0.7,0.5,0.9c0.3,0.1,0.5,0.2,0.7,0.2h1.1c0.4,0,0.7-0.1,0.9-0.4
		c0.2-0.2,0.3-0.5,0.3-0.8c0-1.1-0.3-2.2-0.9-3.3c-0.6-1.1-1.4-2.2-2.5-3.2c-1.1-1-2.4-1.8-4.1-2.4c-1.6-0.6-3.6-0.9-5.7-0.9
		c-2.8,0-5.1,0.4-7,1.3c-1.9,0.9-3.4,2.1-4.4,3.6c-1,1.5-1.5,3.2-1.5,5.1c0,2,0.4,3.7,1.2,5C246.4,16.5,247.7,17.6,249.4,18.5"/>
	<path fill="#F4FF4E" d="M3.5,29.1V8.3l10.6,20.8h4.8L29.5,8.3v20.8H33V2c0-0.4-0.1-0.7-0.3-0.9c-0.2-0.2-0.5-0.3-0.9-0.3h-1.3
		c-0.4,0-0.6,0.1-0.8,0.3c-0.2,0.2-0.3,0.3-0.4,0.4L16.5,26.1L3.8,1.4c0-0.1-0.1-0.3-0.3-0.4C3.3,0.8,3,0.7,2.7,0.7H1.3
		C0.9,0.7,0.6,0.8,0.4,1C0.1,1.2,0,1.6,0,2v27.1H3.5z"/>
	<path fill="#F4FF4E" d="M213.3,29.1H210c-0.1,0-0.1-0.1-0.1-0.1V1.9c0-0.7,0.6-1.3,1.3-1.3h1c0.7,0,1.3,0.6,1.3,1.3V29
		C213.4,29,213.3,29.1,213.3,29.1"/>
	<path fill="#F4FF4E" d="M188,29.1h-3.2c-0.1,0-0.1-0.1-0.1-0.1V1.9c0-0.7,0.6-1.3,1.3-1.3h1c0.7,0,1.3,0.6,1.3,1.3V29
		C188.2,29,188.1,29.1,188,29.1"/>
	<path fill="#F4FF4E" d="M64.7,29.1h3.7c-0.3-1.3-0.5-2.8-0.6-4.5c0-1.7-0.1-3.2-0.1-4.4c0-1.3,0-2.7,0.1-4.4
		c0.1-2.9,0.7-5.3,1.7-7.1c1-1.8,2.3-3.2,4-4C75,3.8,76.9,3.4,79,3.4c2.1,0,4,0.4,5.7,1.3c1.7,0.8,3,2.2,4,4c1,1.8,1.5,4.2,1.6,7.1
		c0.1,1.7,0.1,3.2,0.1,4.4c0,1.3,0,2.7-0.1,4.4c-0.1,1.7-0.3,3.2-0.6,4.5h3.7c0.2-1.3,0.4-2.7,0.4-4.2c0.1-1.7,0.1-3.2,0.1-4.7
		c0-1.5,0-3-0.1-4.7c-0.1-3.5-0.7-6.4-2-8.6c-1.3-2.3-3-4-5.1-5.1C84.4,0.6,81.9,0,79,0s-5.5,0.6-7.6,1.7c-2.2,1.1-3.9,2.8-5.1,5.1
		c-1.2,2.3-1.9,5.2-2,8.6c0,1.7-0.1,3.2-0.1,4.7c0,1.5,0,3,0.1,4.7C64.3,26.4,64.4,27.8,64.7,29.1"/>
	<path fill="#F4FF4E" d="M126.2,39.7c-0.4,0-0.7-0.1-0.9-0.3c-0.2-0.2-0.3-0.5-0.3-0.9V1.9c0-0.4,0.1-0.7,0.3-0.9
		c0.2-0.2,0.5-0.3,0.9-0.3h11.9c3.9,0,7,0.6,9.3,1.7c2.2,1.2,3.8,2.9,4.8,5.1c0.9,2.3,1.4,5,1.5,8.2c0,1.7,0.1,3.2,0.1,4.4
		c0,1.3,0,2.8-0.1,4.4c-0.1,3.4-0.6,6.2-1.5,8.5c-0.9,2.2-2.5,3.9-4.7,5c-2.2,1.1-5.2,1.6-9,1.6H126.2z M128.5,36.3h9.6
		c3,0,5.3-0.4,7.1-1.2c1.7-0.8,3-2.1,3.7-3.8c0.8-1.8,1.2-4.1,1.2-7c0-1.1,0.1-2.1,0.1-2.9v-2.5c0-0.8,0-1.8-0.1-2.9
		c-0.1-4.1-1-7.1-2.8-9.1c-1.8-2-5-2.9-9.4-2.9h-9.3V36.3z"/>
</g>
</svg>
