<?xml version="1.0" encoding="utf-8"?>
<!-- Generator: Adobe Illustrator 25.4.1, SVG Export Plug-In . SVG Version: 6.00 Build 0)  -->
<svg version="1.1" id="Capa_1" xmlns="http://www.w3.org/2000/svg" xmlns:xlink="http://www.w3.org/1999/xlink" x="0px" y="0px"
	 viewBox="0 0 1920.1 1239.8" style="enable-background:new 0 0 1920.1 1239.8;" xml:space="preserve">
<style type="text/css">
	.st0{fill:url(#SVGID_1_);}
	
		.st1{opacity:0.31;clip-path:url(#SVGID_00000162332014754994826320000015730506857781391283_);fill:url(#SVGID_00000043427260579614766710000009436423438282302106_);enable-background:new    ;}
	
		.st2{opacity:0.13;clip-path:url(#SVGID_00000071522244457468121470000004040673319191118239_);fill:url(#SVGID_00000065783392344939098660000004016687728027638711_);enable-background:new    ;}
	
		.st3{opacity:6.000000e-02;clip-path:url(#SVGID_00000044142893036594623840000001041363741528235680_);fill:url(#SVGID_00000091730663530936419610000014031918554060220341_);enable-background:new    ;}
	
		.st4{opacity:6.000000e-02;clip-path:url(#SVGID_00000139271139079856579180000013627708815604018585_);fill:url(#SVGID_00000026159543541015463660000001404494612414139031_);enable-background:new    ;}
	
		.st5{opacity:0.21;clip-path:url(#SVGID_00000033344673163678812940000005493450055452190120_);fill:url(#SVGID_00000114038413148947808150000005020091147003492770_);enable-background:new    ;}
	
		.st6{opacity:0.21;clip-path:url(#SVGID_00000001639263564350172630000009719994316785434553_);fill:url(#SVGID_00000076576820244389617920000006181575522935979964_);enable-background:new    ;}
	.st7{fill:url(#SVGID_00000145741168395513679870000004246107105474770066_);stroke:#F0FF4E;stroke-miterlimit:10;}
</style>
<radialGradient id="SVGID_1_" cx="1291.025" cy="-58.4582" r="808.0715" gradientTransform="matrix(2 0 0 -1.4 -662 1147.6583)" gradientUnits="userSpaceOnUse">
	<stop  offset="0" style="stop-color:#0E79CB;stop-opacity:0.5"/>
	<stop  offset="1" style="stop-color:#3C69C1;stop-opacity:0"/>
</radialGradient>
<rect y="5.4" class="st0" width="3840.1" height="2448.2"/>
<g>
	<g>
		<defs>
			<rect id="SVGID_00000164499503263084055580000006976729519868120467_" x="0.1" y="823.9" width="525.5" height="415.9"/>
		</defs>
		<clipPath id="SVGID_00000055692648889939587450000013208788415458615716_">
			<use xlink:href="#SVGID_00000164499503263084055580000006976729519868120467_"  style="overflow:visible;"/>
		</clipPath>
		
			<linearGradient id="SVGID_00000001665141645089163350000013859910512171072904_" gradientUnits="userSpaceOnUse" x1="-462.5962" y1="-2382.3081" x2="-509.2245" y2="-2556.3269" gradientTransform="matrix(0 -1 1 0 2541.9675 714.3397)">
			<stop  offset="0" style="stop-color:#F4FF4E"/>
			<stop  offset="1" style="stop-color:#311C74;stop-opacity:0.1"/>
		</linearGradient>
		
			<path style="opacity:0.31;clip-path:url(#SVGID_00000055692648889939587450000013208788415458615716_);fill:url(#SVGID_00000001665141645089163350000013859910512171072904_);enable-background:new    ;" d="
			M82.2,1131.3l-78.5,78.5c-16.4,16.4-16.4,43,0,59.4l0,0c16.4,16.4,43,16.4,59.4,0l78.5-78.5c16.4-16.4,16.4-43,0-59.4l0,0
			C125.2,1114.9,98.6,1114.9,82.2,1131.3z"/>
	</g>
	<g>
		<defs>
			<rect id="SVGID_00000090272043105157174560000014100300147930107521_" x="0.1" y="823.9" width="525.5" height="415.9"/>
		</defs>
		<clipPath id="SVGID_00000032610054309477180960000006658183204399765906_">
			<use xlink:href="#SVGID_00000090272043105157174560000014100300147930107521_"  style="overflow:visible;"/>
		</clipPath>
		
			<linearGradient id="SVGID_00000016779166973801854750000008449443134922279831_" gradientUnits="userSpaceOnUse" x1="-304.9962" y1="-2218.1082" x2="-351.6244" y2="-2392.1267" gradientTransform="matrix(0 -1 1 0 2541.9675 714.3397)">
			<stop  offset="0" style="stop-color:#F4FF4E"/>
			<stop  offset="1" style="stop-color:#311C74;stop-opacity:0.1"/>
		</linearGradient>
		
			<path style="opacity:0.13;clip-path:url(#SVGID_00000032610054309477180960000006658183204399765906_);fill:url(#SVGID_00000016779166973801854750000008449443134922279831_);enable-background:new    ;" d="
			M246.4,973.7l-78.5,78.5c-16.4,16.4-16.4,43,0,59.4l0,0c16.4,16.4,43,16.4,59.4,0l78.5-78.5c16.4-16.4,16.4-43,0-59.4l0,0
			C289.4,957.3,262.8,957.3,246.4,973.7z"/>
	</g>
	<g>
		<defs>
			<rect id="SVGID_00000163757751276107283130000005979016536790587835_" x="0.1" y="823.9" width="525.5" height="415.9"/>
		</defs>
		<clipPath id="SVGID_00000090255326270066668150000005945355101054553235_">
			<use xlink:href="#SVGID_00000163757751276107283130000005979016536790587835_"  style="overflow:visible;"/>
		</clipPath>
		
			<linearGradient id="SVGID_00000123432364594088292230000003229638882544347054_" gradientUnits="userSpaceOnUse" x1="-187.4045" y1="-2390.9058" x2="-234.0327" y2="-2564.9246" gradientTransform="matrix(0 -1 1 0 2541.9675 714.3397)">
			<stop  offset="0" style="stop-color:#F4FF4E"/>
			<stop  offset="1" style="stop-color:#311C74;stop-opacity:0.1"/>
		</linearGradient>
		
			<path style="opacity:6.000000e-02;clip-path:url(#SVGID_00000090255326270066668150000005945355101054553235_);fill:url(#SVGID_00000123432364594088292230000003229638882544347054_);enable-background:new    ;" d="
			M73.6,856.1l-78.5,78.5c-16.4,16.4-16.4,43,0,59.4l0,0c16.4,16.4,43,16.4,59.4,0l78.5-78.5c16.4-16.4,16.4-43,0-59.4l0,0
			C116.7,839.7,90.1,839.7,73.6,856.1z"/>
	</g>
	<g>
		<defs>
			<rect id="SVGID_00000144307622650498302340000012351988219503904688_" x="0.1" y="823.9" width="525.5" height="415.9"/>
		</defs>
		<clipPath id="SVGID_00000055674369881440791470000013844531895314554769_">
			<use xlink:href="#SVGID_00000144307622650498302340000012351988219503904688_"  style="overflow:visible;"/>
		</clipPath>
		
			<linearGradient id="SVGID_00000023969248479691790920000015196100658322555303_" gradientUnits="userSpaceOnUse" x1="-532.7963" y1="-2154.0081" x2="-579.4243" y2="-2328.0269" gradientTransform="matrix(0 -1 1 0 2541.9675 714.3397)">
			<stop  offset="0" style="stop-color:#F4FF4E"/>
			<stop  offset="1" style="stop-color:#311C74;stop-opacity:0.1"/>
		</linearGradient>
		
			<path style="opacity:6.000000e-02;clip-path:url(#SVGID_00000055674369881440791470000013844531895314554769_);fill:url(#SVGID_00000023969248479691790920000015196100658322555303_);enable-background:new    ;" d="
			M310.5,1201.5L232,1280c-16.4,16.4-16.4,43,0,59.4l0,0c16.4,16.4,43,16.4,59.4,0l78.5-78.5c16.4-16.4,16.4-43,0-59.4l0,0
			C353.5,1185.1,326.9,1185.1,310.5,1201.5z"/>
	</g>
	<g>
		<defs>
			<rect id="SVGID_00000011754268781442488290000002296938052990342283_" x="0.1" y="823.9" width="525.5" height="415.9"/>
		</defs>
		<clipPath id="SVGID_00000026132211858694855270000014423034384305278596_">
			<use xlink:href="#SVGID_00000011754268781442488290000002296938052990342283_"  style="overflow:visible;"/>
		</clipPath>
		
			<linearGradient id="SVGID_00000109731376065097146800000005745947794628860302_" gradientUnits="userSpaceOnUse" x1="-468.2989" y1="-2244.3074" x2="-514.9272" y2="-2418.3262" gradientTransform="matrix(0 -1 1 0 2541.9675 714.3397)">
			<stop  offset="0" style="stop-color:#F4FF4E"/>
			<stop  offset="1" style="stop-color:#311C74;stop-opacity:0.1"/>
		</linearGradient>
		
			<path style="opacity:0.21;clip-path:url(#SVGID_00000026132211858694855270000014423034384305278596_);fill:url(#SVGID_00000109731376065097146800000005745947794628860302_);enable-background:new    ;" d="
			M220.2,1137l-78.5,78.5c-16.4,16.4-16.4,43,0,59.4l0,0c16.4,16.4,43,16.4,59.4,0l78.5-78.5c16.4-16.4,16.4-43,0-59.4l0,0
			C263.3,1120.6,236.6,1120.6,220.2,1137z"/>
	</g>
	<g>
		<defs>
			<rect id="SVGID_00000025441249159211232300000013344014795345170585_" x="0.1" y="823.9" width="525.5" height="415.9"/>
		</defs>
		<clipPath id="SVGID_00000180327071194784205960000016350747505922205349_">
			<use xlink:href="#SVGID_00000025441249159211232300000013344014795345170585_"  style="overflow:visible;"/>
		</clipPath>
		
			<linearGradient id="SVGID_00000156552308678834031720000012967028490720756885_" gradientUnits="userSpaceOnUse" x1="-317.199" y1="-2376.6074" x2="-363.8271" y2="-2550.626" gradientTransform="matrix(0 -1 1 0 2541.9675 714.3397)">
			<stop  offset="0" style="stop-color:#F4FF4E"/>
			<stop  offset="1" style="stop-color:#311C74;stop-opacity:0.1"/>
		</linearGradient>
		
			<path style="opacity:0.21;clip-path:url(#SVGID_00000180327071194784205960000016350747505922205349_);fill:url(#SVGID_00000156552308678834031720000012967028490720756885_);enable-background:new    ;" d="
			M87.9,985.9l-78.5,78.5c-16.4,16.4-16.4,43,0,59.4l0,0c16.4,16.4,43,16.4,59.4,0l78.5-78.5c16.4-16.4,16.4-43,0-59.4l0,0
			C131,969.5,104.3,969.5,87.9,985.9z"/>
	</g>
</g>
</svg>
