<?xml version="1.0" encoding="utf-8"?>
<!-- Generator: Adobe Illustrator 25.4.1, SVG Export Plug-In . SVG Version: 6.00 Build 0)  -->
<svg version="1.1" id="Capa_1" xmlns="http://www.w3.org/2000/svg" xmlns:xlink="http://www.w3.org/1999/xlink" x="0px" y="0px"
	 viewBox="0 0 1920.1 1239.8" style="enable-background:new 0 0 1920.1 1239.8;" xml:space="preserve">
<style type="text/css">
	.st0{fill:url(#SVGID_1_);}
	
		.st1{opacity:0.31;clip-path:url(#SVGID_00000131354996195677452280000004669753687443406515_);fill:url(#SVGID_00000095303755028907079720000000955310278943292820_);enable-background:new    ;}
	
		.st2{opacity:0.13;clip-path:url(#SVGID_00000072972893394181758930000012079267159689292460_);fill:url(#SVGID_00000090255648373118122680000014913203978818251399_);enable-background:new    ;}
	
		.st3{opacity:6.000000e-02;clip-path:url(#SVGID_00000007408693658463136720000016373847667454752917_);fill:url(#SVGID_00000084506550024827563950000007397822820912837562_);enable-background:new    ;}
	
		.st4{opacity:6.000000e-02;clip-path:url(#SVGID_00000072996879864804359000000013843782173880368799_);fill:url(#SVGID_00000020376150206761915360000005134135320065085094_);enable-background:new    ;}
	
		.st5{opacity:0.21;clip-path:url(#SVGID_00000026842232592936453760000018047739295902275716_);fill:url(#SVGID_00000028303502373681331700000000947342588046897591_);enable-background:new    ;}
	
		.st6{opacity:0.21;clip-path:url(#SVGID_00000132070349174205411180000018280628918694916274_);fill:url(#SVGID_00000083785213207716471200000015910243085460566418_);enable-background:new    ;}
</style>
<radialGradient id="SVGID_1_" cx="1622.025" cy="956.9197" r="808.0714" gradientTransform="matrix(2 0 0 1.4 -1324 -110.1877)" gradientUnits="userSpaceOnUse">
	<stop  offset="0" style="stop-color:#0E79CB;stop-opacity:0.5"/>
	<stop  offset="1" style="stop-color:#3C69C1;stop-opacity:0"/>
</radialGradient>
<rect y="5.4" class="st0" width="3840.1" height="2448.2"/>
<g>
	<g>
		<defs>
			<rect id="SVGID_00000155117469741556177710000004812396566247766966_" x="0" y="721.8" width="654.5" height="518"/>
		</defs>
		<clipPath id="SVGID_00000040536828574337244840000004597346743457952390_">
			<use xlink:href="#SVGID_00000155117469741556177710000004812396566247766966_"  style="overflow:visible;"/>
		</clipPath>
		
			<linearGradient id="SVGID_00000021799006119667317010000008112562925717855155_" gradientUnits="userSpaceOnUse" x1="-2069.519" y1="-4974.1006" x2="-2127.6003" y2="-5190.8633" gradientTransform="matrix(-4.489700e-11 -1 1 -4.489700e-11 5172.875 -907.985)">
			<stop  offset="0" style="stop-color:#B72992"/>
			<stop  offset="1" style="stop-color:#341677;stop-opacity:0.1"/>
		</linearGradient>
		
			<path style="opacity:0.31;clip-path:url(#SVGID_00000040536828574337244840000004597346743457952390_);fill:url(#SVGID_00000021799006119667317010000008112562925717855155_);enable-background:new    ;" d="
			M102.3,1104.7l-97.8,97.8c-20.4,20.4-20.4,53.6,0,74l0,0c20.4,20.4,53.6,20.4,74,0l97.8-97.8c20.4-20.4,20.4-53.6,0-74l0,0
			C155.9,1084.2,122.8,1084.2,102.3,1104.7z"/>
	</g>
	<g>
		<defs>
			<rect id="SVGID_00000116198605316379324300000003121173325333351570_" x="0" y="721.8" width="654.5" height="518"/>
		</defs>
		<clipPath id="SVGID_00000081640985794821581640000012882532370925148573_">
			<use xlink:href="#SVGID_00000116198605316379324300000003121173325333351570_"  style="overflow:visible;"/>
		</clipPath>
		
			<linearGradient id="SVGID_00000105411273168550858010000013499442010041282206_" gradientUnits="userSpaceOnUse" x1="-1873.2134" y1="-4769.6021" x2="-1931.2948" y2="-4986.3647" gradientTransform="matrix(-4.489700e-11 -1 1 -4.489700e-11 5172.875 -907.985)">
			<stop  offset="0" style="stop-color:#B72992"/>
			<stop  offset="1" style="stop-color:#341677;stop-opacity:0.1"/>
		</linearGradient>
		
			<path style="opacity:0.13;clip-path:url(#SVGID_00000081640985794821581640000012882532370925148573_);fill:url(#SVGID_00000105411273168550858010000013499442010041282206_);enable-background:new    ;" d="
			M306.8,908.4l-97.8,97.8c-20.4,20.4-20.4,53.6,0,74l0,0c20.4,20.4,53.6,20.4,74,0l97.8-97.8c20.4-20.4,20.4-53.6,0-74l0,0
			C360.4,887.9,327.2,887.9,306.8,908.4z"/>
	</g>
	<g>
		<defs>
			<rect id="SVGID_00000165943393431137272440000006146045004087134869_" x="0" y="721.8" width="654.5" height="518"/>
		</defs>
		<clipPath id="SVGID_00000018951446210248850610000012641673876217380529_">
			<use xlink:href="#SVGID_00000165943393431137272440000006146045004087134869_"  style="overflow:visible;"/>
		</clipPath>
		
			<linearGradient id="SVGID_00000017502135599609014510000016310543786666058635_" gradientUnits="userSpaceOnUse" x1="-1726.7499" y1="-4984.7925" x2="-1784.8313" y2="-5201.5552" gradientTransform="matrix(-4.489700e-11 -1 1 -4.489700e-11 5172.875 -907.985)">
			<stop  offset="0" style="stop-color:#B72992"/>
			<stop  offset="1" style="stop-color:#341677;stop-opacity:0.1"/>
		</linearGradient>
		
			<path style="opacity:6.000000e-02;clip-path:url(#SVGID_00000018951446210248850610000012641673876217380529_);fill:url(#SVGID_00000017502135599609014510000016310543786666058635_);enable-background:new    ;" d="
			M91.6,761.9l-97.8,97.8c-20.4,20.4-20.4,53.6,0,74l0,0c20.4,20.4,53.6,20.4,74,0l97.8-97.8c20.4-20.4,20.4-53.6,0-74l0,0
			C145.2,741.5,112.1,741.5,91.6,761.9z"/>
	</g>
	<g>
		<defs>
			<rect id="SVGID_00000079443792971623700500000017944270027401014928_" x="0" y="721.8" width="654.5" height="518"/>
		</defs>
		<clipPath id="SVGID_00000165936413675518060940000004741831227634902425_">
			<use xlink:href="#SVGID_00000079443792971623700500000017944270027401014928_"  style="overflow:visible;"/>
		</clipPath>
		
			<linearGradient id="SVGID_00000114755054289480629330000010695316316782921883_" gradientUnits="userSpaceOnUse" x1="-2156.95" y1="-4689.7925" x2="-2215.031" y2="-4906.5552" gradientTransform="matrix(-4.489700e-11 -1 1 -4.489700e-11 5172.875 -907.985)">
			<stop  offset="0" style="stop-color:#B72992"/>
			<stop  offset="1" style="stop-color:#341677;stop-opacity:0.1"/>
		</linearGradient>
		
			<path style="opacity:6.000000e-02;clip-path:url(#SVGID_00000165936413675518060940000004741831227634902425_);fill:url(#SVGID_00000114755054289480629330000010695316316782921883_);enable-background:new    ;" d="
			M386.6,1192.1l-97.8,97.8c-20.4,20.4-20.4,53.6,0,74l0,0c20.4,20.4,53.6,20.4,74,0l97.8-97.8c20.4-20.4,20.4-53.6,0-74l0,0
			C440.2,1171.7,407.1,1171.7,386.6,1192.1z"/>
	</g>
	<g>
		<defs>
			<rect id="SVGID_00000098927475939014953730000010914075071115003300_" x="0" y="721.8" width="654.5" height="518"/>
		</defs>
		<clipPath id="SVGID_00000165922957504414306800000015941804943624049303_">
			<use xlink:href="#SVGID_00000098927475939014953730000010914075071115003300_"  style="overflow:visible;"/>
		</clipPath>
		
			<linearGradient id="SVGID_00000123415388147714108250000018328717227976958112_" gradientUnits="userSpaceOnUse" x1="-2076.6191" y1="-4802.2007" x2="-2134.7004" y2="-5018.9634" gradientTransform="matrix(-4.489700e-11 -1 1 -4.489700e-11 5172.875 -907.985)">
			<stop  offset="0" style="stop-color:#B72992"/>
			<stop  offset="1" style="stop-color:#341677;stop-opacity:0.1"/>
		</linearGradient>
		
			<path style="opacity:0.21;clip-path:url(#SVGID_00000165922957504414306800000015941804943624049303_);fill:url(#SVGID_00000123415388147714108250000018328717227976958112_);enable-background:new    ;" d="
			M274.2,1111.8l-97.8,97.8c-20.4,20.4-20.4,53.6,0,74l0,0c20.4,20.4,53.6,20.4,74,0l97.8-97.8c20.4-20.4,20.4-53.6,0-74l0,0
			C327.8,1091.3,294.7,1091.3,274.2,1111.8z"/>
	</g>
	<g>
		<defs>
			<rect id="SVGID_00000047037236219627158070000017516992664961398924_" x="0" y="721.8" width="654.5" height="518"/>
		</defs>
		<clipPath id="SVGID_00000109009676290835419070000009108525089559545508_">
			<use xlink:href="#SVGID_00000047037236219627158070000017516992664961398924_"  style="overflow:visible;"/>
		</clipPath>
		
			<linearGradient id="SVGID_00000088834402996795930380000015508198762278638764_" gradientUnits="userSpaceOnUse" x1="-1888.4498" y1="-4966.9922" x2="-1946.5311" y2="-5183.7549" gradientTransform="matrix(-4.489700e-11 -1 1 -4.489700e-11 5172.875 -907.985)">
			<stop  offset="0" style="stop-color:#B72992"/>
			<stop  offset="1" style="stop-color:#341677;stop-opacity:0.1"/>
		</linearGradient>
		
			<path style="opacity:0.21;clip-path:url(#SVGID_00000109009676290835419070000009108525089559545508_);fill:url(#SVGID_00000088834402996795930380000015508198762278638764_);enable-background:new    ;" d="
			M109.4,923.6l-97.8,97.8c-20.4,20.4-20.4,53.6,0,74l0,0c20.4,20.4,53.6,20.4,74,0l97.8-97.8c20.4-20.4,20.4-53.6,0-74l0,0
			C163,903.2,129.9,903.2,109.4,923.6z"/>
	</g>
</g>
</svg>
