<?xml version="1.0" encoding="utf-8"?>
<!-- Generator: Adobe Illustrator 25.4.1, SVG Export Plug-In . SVG Version: 6.00 Build 0)  -->
<svg version="1.1" id="Capa_1" xmlns="http://www.w3.org/2000/svg" xmlns:xlink="http://www.w3.org/1999/xlink" x="0px" y="0px"
	 viewBox="0 0 63.4 63.4" style="enable-background:new 0 0 63.4 63.4;" xml:space="preserve">
<style type="text/css">
	.st0{opacity:0.3;fill:none;stroke:url(#SVGID_1_);stroke-miterlimit:10;enable-background:new    ;}
	.st1{fill:#FFFFFF;}
</style>
<linearGradient id="SVGID_1_" gradientUnits="userSpaceOnUse" x1="0" y1="32.1898" x2="63.4" y2="32.1898" gradientTransform="matrix(1 0 0 -1 0 63.8898)">
	<stop  offset="8.379889e-03" style="stop-color:#FF6363"/>
	<stop  offset="1" style="stop-color:#F2F2F2;stop-opacity:0"/>
</linearGradient>
<circle class="st0" cx="31.7" cy="31.7" r="31.2"/>
<g>
	<g>
		<path class="st1" d="M31.7,45.7L19,35.1c-0.6-0.5-0.7-1.5-0.2-2.1s1.5-0.7,2.1-0.2l10.7,9.1l10.7-9c0.6-0.5,1.6-0.5,2.1,0.2
			c0.5,0.6,0.5,1.6-0.2,2.1L31.7,45.7z"/>
	</g>
	<g>
		<path class="st1" d="M31.7,45.3c-0.8,0-1.5-0.7-1.5-1.5V19.1c0-0.8,0.7-1.5,1.5-1.5s1.5,0.7,1.5,1.5v24.6
			C33.2,44.6,32.5,45.3,31.7,45.3z"/>
	</g>
</g>
</svg>
