<?xml version="1.0" encoding="utf-8"?>
<!-- Generator: Adobe Illustrator 25.4.1, SVG Export Plug-In . SVG Version: 6.00 Build 0)  -->
<svg version="1.1" id="Capa_1" xmlns="http://www.w3.org/2000/svg" xmlns:xlink="http://www.w3.org/1999/xlink" x="0px" y="0px"
	 viewBox="0 0 63.4 63.4" style="enable-background:new 0 0 63.4 63.4;" xml:space="preserve">
<style type="text/css">
	
		.st0{opacity:0.3;fill:url(#SVGID_1_);stroke:url(#SVGID_00000096754409470120226480000002431957500740449410_);stroke-miterlimit:10;}
	.st1{fill:#FFFFFF;}
</style>
<linearGradient id="SVGID_1_" gradientUnits="userSpaceOnUse" x1="16.0879" y1="4.673" x2="47.2743" y2="58.6892">
	<stop  offset="8.379889e-03" style="stop-color:#341677"/>
	<stop  offset="1" style="stop-color:#FF6363"/>
</linearGradient>
<linearGradient id="SVGID_00000093880970812427695530000010040862017300565906_" gradientUnits="userSpaceOnUse" x1="0" y1="31.6811" x2="63.3622" y2="31.6811">
	<stop  offset="8.379889e-03" style="stop-color:#FF6363"/>
	<stop  offset="1" style="stop-color:#F2F2F2;stop-opacity:0"/>
</linearGradient>
<circle style="opacity:0.3;fill:url(#SVGID_1_);stroke:url(#SVGID_00000093880970812427695530000010040862017300565906_);stroke-miterlimit:10;" cx="31.7" cy="31.7" r="31.2"/>
<g>
	<g>
		<path class="st1" d="M31.7,45.7L19,35.1c-0.6-0.5-0.7-1.5-0.2-2.1c0.5-0.6,1.5-0.7,2.1-0.2l10.7,9.1l10.7-9
			c0.6-0.5,1.6-0.5,2.1,0.2c0.5,0.6,0.5,1.6-0.2,2.1L31.7,45.7z"/>
	</g>
	<g>
		<path class="st1" d="M31.7,45.3c-0.8,0-1.5-0.7-1.5-1.5V19.1c0-0.8,0.7-1.5,1.5-1.5s1.5,0.7,1.5,1.5v24.6
			C33.2,44.6,32.5,45.3,31.7,45.3z"/>
	</g>
</g>
</svg>
