<?xml version="1.0" encoding="utf-8"?>
<!-- Generator: Adobe Illustrator 25.4.1, SVG Export Plug-In . SVG Version: 6.00 Build 0)  -->
<svg version="1.1" id="Capa_1" xmlns="http://www.w3.org/2000/svg" xmlns:xlink="http://www.w3.org/1999/xlink" x="0px" y="0px"
	 viewBox="0 0 134.1 105.9" style="enable-background:new 0 0 134.1 105.9;" xml:space="preserve">
<style type="text/css">
	.st0{fill:url(#SVGID_1_);}
	.st1{fill:url(#SVGID_00000114766742138720954430000010671647170840797858_);}
	.st2{fill:url(#SVGID_00000121239802795224976220000010963350436844110252_);}
	.st3{fill:url(#SVGID_00000071543916059884737780000013986424126723490689_);}
	.st4{fill:url(#SVGID_00000168077487415398552940000003282159142798049676_);}
	.st5{fill:url(#SVGID_00000114069510160452665730000013077879349145371548_);}
	.st6{fill:url(#SVGID_00000039837608497410890050000015059623020805388206_);}
	.st7{fill:url(#SVGID_00000098913380724900835470000005678876771861493925_);}
	.st8{fill:url(#SVGID_00000036963855492967473740000008789501521264951228_);}
	.st9{opacity:0.15;fill:url(#SVGID_00000067921366498325813850000003586722961304403117_);}
	.st10{opacity:0.3;fill:url(#SVGID_00000111869798202379319570000007521814294057089920_);}
</style>
<g>
	<g>
		<linearGradient id="SVGID_1_" gradientUnits="userSpaceOnUse" x1="35.4225" y1="94.2948" x2="102.0337" y2="94.2948">
			<stop  offset="0" style="stop-color:#971674"/>
			<stop  offset="0.2242" style="stop-color:#A92471"/>
			<stop  offset="0.6732" style="stop-color:#D94769"/>
			<stop  offset="1" style="stop-color:#FF6363"/>
		</linearGradient>
		<path class="st0" d="M35.4,84.5l0.7,16.8c0,0,32.9,11.7,65.9-2.2c0-13.4,0-16.4,0-16.4L35.4,84.5z"/>
		
			<linearGradient id="SVGID_00000075140543737616194470000017718887754256592559_" gradientUnits="userSpaceOnUse" x1="7.518321e-02" y1="72.7293" x2="36.1163" y2="72.7293">
			<stop  offset="0" style="stop-color:#341677"/>
			<stop  offset="0.149" style="stop-color:#5F2673"/>
			<stop  offset="0.3667" style="stop-color:#983C6D"/>
			<stop  offset="0.5684" style="stop-color:#C44D69"/>
			<stop  offset="0.7475" style="stop-color:#E45966"/>
			<stop  offset="0.8975" style="stop-color:#F86064"/>
			<stop  offset="1" style="stop-color:#FF6363"/>
		</linearGradient>
		<path style="fill:url(#SVGID_00000075140543737616194470000017718887754256592559_);" d="M0.1,44.1l2.6,26.9c0,0,1.1,13,16.3,22.7
			c9.7,5.9,16.7,7.7,17.1,7.5c0-5.1-1.4-29.1-1.4-29.1L0.1,44.1z"/>
		
			<linearGradient id="SVGID_00000033343591025183823160000015551697053132516013_" gradientUnits="userSpaceOnUse" x1="0" y1="46.149" x2="66.2294" y2="46.149">
			<stop  offset="0" style="stop-color:#341677"/>
			<stop  offset="0.149" style="stop-color:#5F2673"/>
			<stop  offset="0.3667" style="stop-color:#983C6D"/>
			<stop  offset="0.5684" style="stop-color:#C44D69"/>
			<stop  offset="0.7475" style="stop-color:#E45966"/>
			<stop  offset="0.8975" style="stop-color:#F86064"/>
			<stop  offset="1" style="stop-color:#FF6363"/>
		</linearGradient>
		<path style="fill:url(#SVGID_00000033343591025183823160000015551697053132516013_);" d="M17.5,20.1l48.8,17.4L34.8,72.2
			c0,0-33.3-7.9-34.8-28.9C0,36.2,5.5,26.4,17.5,20.1z"/>
		
			<linearGradient id="SVGID_00000067228213088850125270000005195109756594715836_" gradientUnits="userSpaceOnUse" x1="34.7608" y1="61.0098" x2="66.2294" y2="61.0098">
			<stop  offset="0" style="stop-color:#3A205F"/>
			<stop  offset="0.1621" style="stop-color:#3F215E"/>
			<stop  offset="0.3479" style="stop-color:#4D265B"/>
			<stop  offset="0.5455" style="stop-color:#642D56"/>
			<stop  offset="0.7513" style="stop-color:#84364F"/>
			<stop  offset="0.9614" style="stop-color:#AD4247"/>
			<stop  offset="1" style="stop-color:#B54545"/>
		</linearGradient>
		<polygon style="fill:url(#SVGID_00000067228213088850125270000005195109756594715836_);" points="66.2,37.5 66.2,50 35.4,84.5 
			34.8,72.2 		"/>
		
			<linearGradient id="SVGID_00000025412046845526158420000002392999249554570159_" gradientUnits="userSpaceOnUse" x1="60.0043" y1="98.7128" x2="82.6443" y2="59.4992">
			<stop  offset="0" style="stop-color:#B72992"/>
			<stop  offset="0.3076" style="stop-color:#C93886"/>
			<stop  offset="0.9243" style="stop-color:#F95E67"/>
			<stop  offset="1" style="stop-color:#FF6363"/>
		</linearGradient>
		<path style="fill:url(#SVGID_00000025412046845526158420000002392999249554570159_);" d="M66.2,50L102,82.7
			c0,0-26.5,10.6-66.6,1.8C50.1,68,66.2,50,66.2,50z"/>
		
			<linearGradient id="SVGID_00000000214906612057637680000010848754237454537654_" gradientUnits="userSpaceOnUse" x1="62.1304" y1="31.4636" x2="107.6927" y2="77.0259">
			<stop  offset="0" style="stop-color:#3230FF"/>
			<stop  offset="0.1781" style="stop-color:#322CED"/>
			<stop  offset="0.5367" style="stop-color:#3323BD"/>
			<stop  offset="1" style="stop-color:#341677"/>
		</linearGradient>
		<polygon style="fill:url(#SVGID_00000000214906612057637680000010848754237454537654_);" points="66.2,50 66.2,27.4 104.3,59.2 
			102,82.7 		"/>
		
			<linearGradient id="SVGID_00000029743982600757469260000013894966800887972490_" gradientUnits="userSpaceOnUse" x1="131.2459" y1="72.241" x2="105.3954" y2="57.3162">
			<stop  offset="0" style="stop-color:#324BFF"/>
			<stop  offset="0.1781" style="stop-color:#3244ED"/>
			<stop  offset="0.5367" style="stop-color:#3331BD"/>
			<stop  offset="1" style="stop-color:#341677"/>
		</linearGradient>
		<path style="fill:url(#SVGID_00000029743982600757469260000013894966800887972490_);" d="M134.1,30.1l-4.4,41.1
			c0,0-1.1,18.5-27.6,27.9c0-16.4,0-16.4,0-16.4l2.3-23.5L134.1,30.1z"/>
		
			<linearGradient id="SVGID_00000070113988938189317330000009308007875010035384_" gradientUnits="userSpaceOnUse" x1="66.2294" y1="23.7713" x2="17.4611" y2="23.7713">
			<stop  offset="0" style="stop-color:#324BFF"/>
			<stop  offset="0.1781" style="stop-color:#3244ED"/>
			<stop  offset="0.5367" style="stop-color:#3331BD"/>
			<stop  offset="1" style="stop-color:#341677"/>
		</linearGradient>
		<polygon style="fill:url(#SVGID_00000070113988938189317330000009308007875010035384_);" points="17.5,20.1 17.5,10 66.2,27.4 
			66.2,37.5 		"/>
		
			<linearGradient id="SVGID_00000143613643885709562620000013771287439382943115_" gradientUnits="userSpaceOnUse" x1="115.791" y1="56.8782" x2="43.2086" y2="-15.7041">
			<stop  offset="0" style="stop-color:#324BFF"/>
			<stop  offset="0.1781" style="stop-color:#3244ED"/>
			<stop  offset="0.5367" style="stop-color:#3331BD"/>
			<stop  offset="1" style="stop-color:#341677"/>
		</linearGradient>
		<path style="fill:url(#SVGID_00000143613643885709562620000013771287439382943115_);" d="M17.5,10c0,0,41.5-20.8,92.4-2.5
			s8,50.6-5.6,51.6C88.9,46.3,66.2,27.4,66.2,27.4L17.5,10z"/>
	</g>
	
		<linearGradient id="SVGID_00000178164945891622911490000015324804078966747324_" gradientUnits="userSpaceOnUse" x1="126.5977" y1="15.7872" x2="102.2337" y2="57.9869">
		<stop  offset="8.379889e-03" style="stop-color:#FFFFFF"/>
		<stop  offset="0.4503" style="stop-color:#F6F6F6;stop-opacity:0.5543"/>
		<stop  offset="1" style="stop-color:#F2F2F2;stop-opacity:0"/>
	</linearGradient>
	<path style="opacity:0.15;fill:url(#SVGID_00000178164945891622911490000015324804078966747324_);" d="M112.4,8.5
		c0,0,27.8,23.5-17.3,43c8,6.7,9.2,7.7,9.2,7.7s25.2-5.8,29.7-27.3C134.5,21.2,126.3,14,112.4,8.5z"/>
	
		<linearGradient id="SVGID_00000006676424216514529100000012032224954847621053_" gradientUnits="userSpaceOnUse" x1="52.0028" y1="29.2854" x2="41.9303" y2="46.7316">
		<stop  offset="8.379889e-03" style="stop-color:#FFFFFF"/>
		<stop  offset="0.4503" style="stop-color:#F6F6F6;stop-opacity:0.5543"/>
		<stop  offset="1" style="stop-color:#F2F2F2;stop-opacity:0"/>
	</linearGradient>
	<polygon style="opacity:0.3;fill:url(#SVGID_00000006676424216514529100000012032224954847621053_);" points="34.8,26.3 52.4,52.8 
		66.2,37.5 	"/>
</g>
</svg>
