<?xml version="1.0" encoding="utf-8"?>
<!-- Generator: Adobe Illustrator 25.4.1, SVG Export Plug-In . SVG Version: 6.00 Build 0)  -->
<svg version="1.1" id="Capa_1" xmlns="http://www.w3.org/2000/svg" xmlns:xlink="http://www.w3.org/1999/xlink" x="0px" y="0px"
	 viewBox="0 0 99.9 95.3" style="enable-background:new 0 0 99.9 95.3;" xml:space="preserve">
<style type="text/css">
	.st0{fill:url(#SVGID_1_);}
</style>
<linearGradient id="SVGID_1_" gradientUnits="userSpaceOnUse" x1="49.9406" y1="95.3381" x2="49.9406" y2="0">
	<stop  offset="0" style="stop-color:#341677"/>
	<stop  offset="0.149" style="stop-color:#5F2673"/>
	<stop  offset="0.3667" style="stop-color:#983C6D"/>
	<stop  offset="0.5684" style="stop-color:#C44D69"/>
	<stop  offset="0.7475" style="stop-color:#E45966"/>
	<stop  offset="0.8975" style="stop-color:#F86064"/>
	<stop  offset="1" style="stop-color:#FF6363"/>
</linearGradient>
<path class="st0" d="M53.3,2.4l9.4,28.9c0.5,1.4,1.8,2.4,3.3,2.4h30.4c3.4,0,4.8,4.3,2.1,6.3L73.8,57.9c-1.2,0.9-1.7,2.5-1.3,3.9
	L82,90.7c1,3.2-2.6,5.9-5.4,3.9L52,76.8c-1.2-0.9-2.9-0.9-4.1,0L23.3,94.7c-2.7,2-6.4-0.7-5.4-3.9l9.4-28.9c0.5-1.4,0-3-1.3-3.9
	L1.4,40.1c-2.7-2-1.3-6.3,2.1-6.3h30.4c1.5,0,2.9-1,3.3-2.4l9.4-28.9C47.7-0.8,52.2-0.8,53.3,2.4z"/>
</svg>
